<?xml version="1.0" encoding="UTF-8" standalone="no"?>
<!-- Created with Inkscape (http://www.inkscape.org/) -->

<svg
   width="1200mm"
   height="1600mm"
   viewBox="0 0 1200 1600"
   version="1.1"
   id="svg1"
   xmlns="http://www.w3.org/2000/svg"
   xmlns:svg="http://www.w3.org/2000/svg">
  <defs
     id="defs1" />
  <g
     id="layer1">
    <path
       d="m 1000.8395,32.255302 c 3.1164,23.546887 5.2356,47.105986 7.1082,70.785808 0.3115,3.87069 0.6228,7.74134 0.9357,11.61198 0.8193,10.1655 1.6319,20.33158 2.4422,30.4978 1.4348,17.99546 2.8791,35.99012 4.3287,53.98434 0.2374,2.9458 0.2374,2.9458 0.4788,5.95113 2.6313,32.64667 5.4475,65.27375 8.3918,97.8923 6.5286,72.33006 6.5286,72.33006 6.2071,100.26703 -15.3545,-7.49653 -29.9873,-15.88513 -44.44733,-25.03629 -5.6769,-3.59202 -11.3724,-7.15303 -17.0673,-10.71517 -1.125,-0.7047 -2.2499,-1.40873 -3.4089,-2.13448 -14.93742,-9.33302 -30.10326,-18.26061 -45.30523,-27.13303 -5.94327,7.34786 -11.17642,15.05067 -16.27439,23.02258 -1.71373,2.65899 -3.42811,5.3177 -5.14283,7.9761 -0.8883,1.37977 -1.77649,2.75952 -2.6918,4.18109 -20.75025,32.1874 -41.742,63.9711 -66.48793,93.12505 -4.44389,5.27129 -8.72136,10.64378 -12.97585,16.07544 -12.78185,16.06624 -26.64663,31.20511 -41.09482,45.70895 -3.2281,3.37019 -6.22746,6.88569 -9.23196,10.46556 -10.66174,12.62194 -22.2688,24.17668 -34.63618,35.03424 -4.36466,3.86521 -8.62327,7.83764 -12.88822,11.81758 -8.11835,7.49772 -16.46884,14.63077 -24.97373,21.66298 -5.2491,4.37578 -10.39277,8.86154 -15.54465,13.35635 -13.89322,11.86904 -28.50571,22.7114 -43.14743,33.58613 -4.17262,3.10649 -8.32766,6.23597 -12.47775,9.37389 -40.32458,30.34492 -82.74552,57.80869 -124.66403,85.76317 -3.69533,2.4672 -7.39063,4.93477 -11.08554,7.40276 -7.09017,4.73521 -14.18142,9.46868 -21.27362,14.20048 -7.30979,4.87718 -14.61724,9.75798 -21.92311,14.64122 -8.96607,5.99259 -17.93728,11.97699 -26.91132,17.9569 -4.3802,2.92329 -8.75359,5.85692 -13.12541,8.79313 -2.3837,1.59154 -4.76772,3.18276 -7.15201,4.77335 -1.99649,1.33861 -3.99298,2.67716 -6.04999,4.05627 -4.57588,2.75643 -4.57588,2.75643 -8.3124,2.75643 4.59129,5.27253 9.57043,8.26831 15.61039,11.6307 3.04034,1.7068 3.04034,1.7068 6.14213,3.44796 1.0779,0.5999 2.15586,1.19971 3.26639,1.81765 5.74578,3.19906 11.47305,6.4324 17.19985,9.66699 1.16771,0.65914 2.33543,1.31814 3.53852,1.99714 11.08534,6.27495 22.02776,12.78937 32.94406,19.36712 15.37729,9.26264 30.87152,18.27104 46.47349,27.13097 17.80467,10.12058 35.21221,20.71066 52.31186,32.03147 -5.3971,4.36129 -11.07397,8.04268 -16.95548,11.67982 -33.72367,20.93005 -64.80314,45.85345 -93.67451,73.29151 -4.31871,4.0732 -8.68989,8.0429 -13.14361,11.9594 -13.57083,11.3391 -13.57083,11.3391 -23.82061,25.4579 -10.44057,-2.9724 -19.00378,-8.1547 -28.25775,-13.7449 -15.90482,-9.4579 -31.98956,-18.5239 -48.22502,-27.3702 -17.77012,-9.6884 -35.50042,-19.44226 -53.14615,-29.36676 -7.63395,-4.284 -15.28357,-8.5096 -23.03735,-12.5623 -42.3448,-22.16439 -73.23631,-52.15803 -89.04264,-99.22411 -9.83133,-37.85231 -2.82054,-75.2389 15.5128,-108.77453 4.81623,-8.30984 10.57531,-15.48561 16.94862,-22.57794 1.3559,-1.56292 2.71178,-3.12585 4.10879,-4.73607 11.56267,-12.63738 24.43218,-21.73464 38.61718,-30.92393 5.53712,-3.59742 11.02701,-7.26747 16.52078,-10.93375 4.69006,-3.12838 9.38641,-6.24644 14.08325,-9.36402 12.40113,-8.24226 24.76673,-16.53958 37.13214,-24.83784 4.6609,-3.12759 9.32188,-6.25496 13.98291,-9.3824 1.15537,-0.77519 2.31071,-1.55048 3.50111,-2.34924 11.75989,-7.88999 23.52629,-15.76987 35.29494,-23.64638 1.98067,-1.3257 3.96142,-2.65139 6.00211,-4.01745 11.6013,-7.76273 23.21114,-15.51168 34.82636,-23.25267 16.60488,-11.07001 33.20363,-22.14534 49.63904,-33.47778 3.08639,-2.12802 6.17504,-4.25269 9.26475,-6.37565 72.11307,-49.59487 149.66589,-104.0396 203.81967,-174.86724 3.80798,-4.9112 7.77039,-9.60962 11.81676,-14.31295 22.47663,-26.22569 41.84969,-54.89281 60.43958,-84.08472 2.88266,-4.51142 5.79688,-9.00038 8.7147,-13.48805 1.90575,-2.95496 3.81045,-5.91057 5.7143,-8.8669 0.89392,-1.36966 1.78792,-2.73929 2.70887,-4.1505 4.90319,-7.39586 4.90319,-7.39586 6.16542,-16.04838 -3.75675,-3.20571 -3.75675,-3.20571 -8.75746,-6.16277 -1.87027,-1.1778 -3.74053,-2.35571 -5.66735,-3.56922 -3.03252,-1.86801 -3.03252,-1.86801 -6.12624,-3.77379 -3.07402,-1.92899 -3.07402,-1.92899 -6.21007,-3.89701 -4.12337,-2.58716 -8.25138,-5.16642 -12.38434,-7.73753 -7.25975,-4.51974 -14.48347,-9.09623 -21.6904,-13.70374 -1.15875,-0.73822 -2.31743,-1.47653 -3.51126,-2.23725 -10.01443,-6.41361 -19.84923,-13.09321 -29.64025,-19.85759 -6.08777,-4.23404 -6.08777,-4.23404 -12.50464,-7.90468 0,-1.26209 0,-2.52428 0,-3.8246 2.23162,-0.89256 4.46325,-1.78508 6.76246,-2.70467 48.54984,-19.41975 97.07388,-38.90381 145.54514,-58.52833 13.40588,-5.42738 26.81262,-10.852762 40.21914,-16.278592 5.12176,-2.07303 10.24351,-4.14637 15.36526,-6.21977 15.61304,-6.31972 31.22817,-12.6344 46.85108,-18.92898 1.36518,-0.55003 2.73018,-1.10012 4.13672,-1.66685 6.48613,-2.61324 12.97296,-5.22466 19.46081,-7.833562 10.84898,-4.365792 21.68675,-8.755664 32.48745,-13.245717 1.7642,-0.732025 3.5284,-1.463968 5.3462,-2.218178 3.1645,-1.317096 6.3259,-2.642581 9.4828,-3.978694 5.694,-2.370966 10.0283,-4.171515 16.23853,-4.171515 z"
       fill="#21748b"
       id="path2"
       style="stroke-width:1.89018" />
    <path
       d="m 787.85544,586.82856 c 6.62178,2.5712 12.71917,5.56912 18.89447,9.11334 2.7689,1.58641 2.7689,1.58641 5.59383,3.20467 2.96407,1.71199 2.96407,1.71199 5.98804,3.45857 2.06996,1.19074 4.13991,2.38131 6.27254,3.60806 15.84753,9.14563 31.57395,18.49517 47.25801,27.93129 11.53204,6.91963 23.14609,13.66063 34.83965,20.28999 51.97829,29.4677 102.14492,58.35006 122.73832,118.84537 8.9547,33.14201 3.7328,69.89442 -11.3191,100.27732 -21.05173,35.9498 -52.31223,59.42867 -86.40033,80.95297 -8.00612,5.0558 -15.90603,10.2437 -23.7116,15.6193 -11.90817,8.1919 -23.89038,16.2631 -35.89857,24.3007 -79.06475,52.63476 -79.06475,52.63476 -157.11826,106.81286 -2.04467,1.4532 -2.04467,1.4532 -4.13075,2.9357 -27.84538,19.8296 -55.62734,39.9881 -81.81019,62.0834 -1.76531,1.4765 -3.53061,2.9532 -5.34944,4.4744 -3.48682,2.9166 -6.97076,5.8369 -10.45068,8.7624 -2.35174,1.9672 -2.35174,1.9672 -4.75101,3.9741 -1.70266,1.4297 -3.40534,2.8594 -5.15963,4.3326 -4.1818,3.3166 -4.1818,3.3166 -6.05005,3.3166 -1.14032,-28.8544 -1.99396,-57.7078 -2.51684,-86.5805 -0.24926,-13.4119 -0.5896,-26.8088 -1.14765,-40.2112 -3.77805,-92.61276 -3.77805,-92.61276 10.72041,-109.79633 10.08582,-9.71253 22.44643,-14.84483 35.43835,-19.32159 8.65594,-3.20821 15.54007,-8.10327 22.96128,-13.57088 2.49471,-1.69342 4.99743,-3.37454 7.50825,-5.04273 2.49643,-1.67804 4.99278,-3.35616 7.48906,-5.03435 2.01182,-1.35186 2.01182,-1.35186 4.06424,-2.73122 21.96144,-14.76255 43.8306,-29.66246 65.66439,-44.62199 18.08749,-12.38669 36.28441,-24.55443 54.73696,-36.36737 2.28377,-1.46586 2.28377,-1.46586 4.61367,-2.96135 1.31002,-0.83382 2.61996,-1.66773 3.96969,-2.52668 3.4911,-2.26013 3.4911,-2.26013 6.95535,-6.04893 -1.32045,-0.76661 -2.64102,-1.53331 -4.0015,-2.32315 -26.80873,-15.58064 -53.49528,-31.33262 -79.9817,-47.48211 -16.91332,-10.2995 -33.92957,-20.40139 -51.00098,-30.423 -5.45551,-3.20536 -10.90162,-6.4268 -16.34659,-9.65091 -1.82759,-1.06663 -3.65525,-2.13352 -5.53826,-3.23262 -1.71502,-1.01866 -3.43007,-2.0374 -5.19707,-3.08693 -2.29912,-1.3529 -2.29912,-1.3529 -4.64465,-2.73303 -1.6349,-1.19862 -1.6349,-1.19862 -3.30281,-2.42126 0,-1.26212 0,-2.5243 0,-3.82464 4.30141,-3.21427 8.62273,-6.22652 13.07793,-9.20308 15.22216,-10.4269 29.34539,-21.89813 43.40478,-33.89419 4.5147,-3.82591 9.11183,-7.54427 13.69464,-11.28435 24.90918,-20.90241 49.58918,-44.34633 69.9438,-69.91925 z"
       fill="#268793"
       id="path4"
       style="stroke-width:1.89018" />
    <path
       d="m 998.97107,975.02974 c 11.93443,5.372 15.76843,18.8415 20.55123,30.59696 17.8929,47.7783 17.9158,96.4591 -2.0123,143.5102 -19.01183,41.2262 -51.93393,67.3374 -88.36586,91.4666 -2.89988,1.9335 -5.79899,3.8682 -8.69747,5.8041 -5.87472,3.922 -11.75352,7.8379 -17.63551,11.7486 -7.77237,5.1697 -15.5294,10.3632 -23.2786,15.5692 -1.15357,0.775 -2.30695,1.5498 -3.49535,2.3483 -2.27499,1.5284 -4.54994,3.0568 -6.82476,4.5856 -18.67562,12.5436 -37.38093,25.0409 -56.09469,37.5248 -19.47524,12.9922 -38.9289,26.0181 -58.38341,39.0429 -5.96055,3.9897 -11.92237,7.9779 -17.88452,11.9651 -20.54177,13.739 -41.07374,27.4931 -61.59006,41.2718 -3.69922,2.4838 -7.39958,4.9655 -11.1001,7.4472 -12.79896,8.5882 -25.57702,17.2071 -38.32111,25.8803 -6.54673,4.454 -13.09961,8.8986 -19.65285,13.3427 -3.19429,2.1704 -6.38549,4.3452 -9.57353,6.525 -4.44921,3.0417 -8.90844,6.0672 -13.37014,9.0898 -1.33416,0.9182 -2.66831,1.8363 -4.04292,2.7823 -9.29475,6.2638 -9.29475,6.2638 -15.53757,6.2638 -0.81974,-37.646 -1.33288,-74.0768 7.47317,-110.9147 0.32976,-1.4398 0.65952,-2.8799 0.99981,-4.3635 16.59153,-70.5565 61.37204,-134.8933 116.70192,-179.2194 1.17647,-0.9475 2.35294,-1.895 3.56506,-2.8712 18.20288,-14.6148 36.78928,-28.2702 56.21988,-41.1121 2.38942,-1.5928 4.77829,-3.1865 7.16664,-4.7809 17.77142,-11.8369 35.64497,-23.5124 53.51519,-35.1921 29.82396,-19.5052 59.46151,-39.296 89.01426,-59.2287 1.77371,-1.1957 3.54735,-2.3917 5.37475,-3.6237 31.94332,-21.5452 63.69484,-43.36636 95.27884,-65.45896 z"
       fill="#0e3e63"
       id="path5"
       style="stroke-width:1.89018" />
    <path
       d="m 597.29069,967.38044 c 0.61361,28.9578 1.07337,57.91486 1.35519,86.87776 0.13416,13.4513 0.31706,26.8983 0.61787,40.3467 0.2902,12.995 0.44061,25.9854 0.50839,38.9837 0.0494,4.9423 0.14192,9.8846 0.28385,14.825 1.17831,42.7654 1.17831,42.7654 -11.84602,57.2469 -4.43078,4.2298 -9.01804,8.0553 -13.91394,11.7054 -4.61253,3.5614 -8.51229,7.7408 -12.50281,12.0027 -1.72442,1.7207 -3.44877,3.4414 -5.22537,5.214 -12.25778,12.268 -23.43154,24.9311 -34.00853,38.7694 -1.97653,2.5208 -3.95437,5.0407 -5.93327,7.5596 -22.9734,29.471 -43.80725,60.4646 -61.16161,93.7514 -2.14112,4.0754 -4.3425,8.1125 -6.549,12.151 -15.56697,28.8942 -28.66941,59.5898 -37.3442,91.4137 -1.1088,3.5674 -1.1088,3.5674 -2.97714,5.4797 -5.40198,0.182 -10.75926,0.2399 -16.1618,0.2167 -2.54247,4e-4 -2.54247,4e-4 -5.13627,0 -5.63074,0 -11.26142,-0.013 -16.8922,-0.029 -3.89284,0 -7.78569,-0.011 -11.67854,-0.011 -10.26786,-0.011 -20.53567,-0.029 -30.80346,-0.051 -10.46876,-0.022 -20.93758,-0.029 -31.40633,-0.037 -20.55719,-0.022 -41.11439,-0.051 -61.67157,-0.093 0.55925,-4.529 1.12726,-9.0567 1.69956,-13.5842 0.15534,-1.2664 0.3114,-2.5329 0.47168,-3.8378 1.5311,-12.0194 4.22164,-23.5097 7.40391,-35.1667 0.57408,-2.126 1.14759,-4.2518 1.73877,-6.4418 35.26698,-128.1655 109.45563,-241.1554 201.00584,-334.4769 2.90817,-2.9663 5.80609,-5.9429 8.7033,-8.9204 10.07502,-10.3209 20.29805,-20.341 31.19513,-29.7575 1.95145,-1.7226 3.90247,-3.4456 5.85299,-5.1693 14.57322,-12.6969 29.4169,-24.9653 44.59062,-36.902 1.19276,-0.9398 2.38549,-1.8796 3.61436,-2.8478 49.95129,-39.22326 49.95129,-39.22326 56.17066,-39.22326 z"
       fill="#6bb0e9"
       id="path7"
       style="stroke-width:1.89018" />
    <path
       d="m 604.76379,189.06571 c 7.68487,79.78404 -6.06051,164.11702 -54.18019,229.47858 -5.36809,6.62445 -11.00104,12.90797 -16.81453,19.1232 -1.12225,1.26952 -2.24456,2.53907 -3.40082,3.84707 -7.25773,7.9273 -15.26403,14.5373 -23.82061,20.93097 -1.21615,0.90989 -2.4323,1.81978 -3.68533,2.7572 -15.65705,11.59883 -31.84963,22.36639 -48.02808,33.18095 -3.39695,2.27916 -6.7934,4.55901 -10.18935,6.8398 -6.87877,4.61806 -13.76006,9.23234 -20.6437,13.84286 -12.76053,8.54765 -25.50428,17.12149 -38.24717,25.69688 -3.92089,2.63807 -7.8426,5.27492 -11.7645,7.91159 -15.28211,10.27484 -30.55446,20.56469 -45.81891,30.8669 -1.76862,1.19367 -3.53726,2.38732 -5.35939,3.61719 -7.16086,4.83324 -14.32158,9.6667 -21.48186,14.50094 -33.62618,22.70123 -33.62618,22.70123 -50.08672,33.69383 -1.13467,0.75787 -2.26933,1.51574 -3.43839,2.2967 -5.01128,3.3456 -10.02553,6.68639 -15.04422,10.02042 -10.03653,6.68695 -19.84776,13.58255 -29.49337,20.85072 -3.9199,2.44916 -3.9199,2.44916 -9.52475,2.44916 -23.18558,-45.90902 -35.68932,-93.9524 -21.14229,-145.36632 20.19411,-64.65936 69.66524,-99.37547 123.75814,-133.68363 1.81861,-1.15353 3.63722,-2.307 5.51093,-3.49552 1.87157,-1.18679 3.74317,-2.37357 5.67145,-3.59634 16.74758,-10.69057 33.1683,-21.84513 49.5596,-33.09631 24.0445,-16.50336 48.26971,-32.64934 72.71157,-48.53171 7.20083,-4.69546 14.36174,-9.45293 21.51985,-14.21631 9.09853,-6.05195 18.24259,-12.01861 27.44181,-17.90888 16.05969,-10.29287 31.89314,-20.9059 47.6398,-31.69198 16.63602,-11.38978 33.27614,-22.77207 49.99972,-34.02707 2.15453,-1.45189 4.30706,-2.9069 6.45742,-4.36522 2.97461,-2.01645 5.95714,-4.02075 8.94,-6.02434 1.69441,-1.14292 3.38883,-2.28575 5.13457,-3.46329 4.08274,-2.43804 4.08274,-2.43804 7.81932,-2.43804 z"
       fill="#6ab0e8"
       id="path8"
       style="stroke-width:1.89018" />
    <path
       d="m 388.04311,829.69337 c 5.19162,2.42535 5.19162,2.42535 10.55287,5.52033 3.01329,1.72517 3.01329,1.72517 6.0874,3.48521 2.13834,1.24842 4.27663,2.49682 6.47974,3.78304 2.25901,1.30325 4.51861,2.60539 6.7789,3.90635 16.32596,9.42392 32.52555,19.07073 48.68113,28.79688 13.55598,8.14668 27.24438,16.0239 40.98995,23.82981 17.80474,10.12049 35.21221,20.71057 52.31194,32.03138 -5.39718,4.36129 -11.07405,8.04268 -16.95549,11.67982 -33.72374,20.93005 -64.80321,45.85345 -93.6745,73.29151 -4.31879,4.0734 -8.68997,8.0429 -13.14369,11.9594 -13.57083,11.3391 -13.57083,11.3391 -23.82061,25.4579 -10.44044,-2.9724 -19.004,-8.1543 -28.25775,-13.7449 -15.01752,-8.9363 -30.19108,-17.522 -45.52452,-25.8728 -3.3937,-1.8519 -6.78167,-3.714 -10.16808,-5.5799 -9.39935,-5.1711 -18.79916,-10.30316 -28.38731,-15.10036 -13.83153,-7.0625 -24.14012,-13.5553 -30.02389,-29.0134 -4.86533,-20.5032 -2.70156,-36.9806 7.40016,-55.36028 19.38333,-30.85186 50.41923,-50.12831 80.39172,-68.78097 2.75586,-1.76314 5.46693,-3.60167 8.1281,-5.51113 1.26834,-0.89385 2.5366,-1.78778 3.84335,-2.70874 1.10226,-0.81144 2.20452,-1.62297 3.34018,-2.45907 5.57503,-2.25698 9.22942,-1.13891 14.9704,0.38961 z"
       fill="#0e3d62"
       id="path15"
       style="stroke-width:1.89018" />
    <path
       d="m 787.85544,586.82856 c 6.62178,2.5712 12.71917,5.56912 18.89447,9.11334 1.84794,1.05869 3.69575,2.11736 5.59984,3.20796 1.97399,1.14023 3.94809,2.28054 5.98203,3.45528 3.07844,1.77141 3.07844,1.77141 6.21924,3.57874 19.75384,11.40325 39.37297,23.04404 58.89785,34.85353 3.81592,2.27842 7.65745,4.51231 11.51433,6.71738 2.03901,1.1755 4.0779,2.3512 6.17866,3.56234 1.87049,1.06254 3.74105,2.12517 5.66818,3.22001 4.35196,3.04723 4.35196,3.04723 6.22024,8.78424 1.84957,0.63094 3.69921,1.26212 5.60471,1.91236 2.93386,4.16824 2.93386,4.16824 5.83848,9.32252 0.96809,1.69112 1.93625,3.38216 2.93379,5.1245 5.6456,10.83077 5.68689,21.36442 3.09435,33.11441 -11.52128,38.75523 -38.59758,58.34093 -70.44191,79.22041 -4.60998,3.03454 -9.18224,6.12031 -13.74755,9.2245 -2.6307,1.75778 -5.26269,3.51335 -7.89634,5.26639 -1.17911,0.80838 -2.35812,1.61667 -3.57283,2.44964 -7.40615,4.83107 -12.13504,6.22485 -20.83162,5.43869 -4.93123,-2.1477 -4.93123,-2.1477 -9.94713,-5.19919 -1.89542,-1.13636 -3.79077,-2.27281 -5.7436,-3.4437 -2.02782,-1.24974 -4.05553,-2.49964 -6.14487,-3.78729 -2.15643,-1.3045 -4.31421,-2.60664 -6.47327,-3.90673 -5.64965,-3.40982 -11.28202,-6.84871 -16.91018,-10.29557 -5.34537,-3.2687 -10.70407,-6.51441 -16.06209,-9.76144 -6.2623,-3.79597 -12.52335,-7.59388 -18.77851,-11.402 -16.97736,-10.32753 -34.0559,-20.46277 -51.18713,-30.51967 -5.45578,-3.20544 -10.90224,-6.42694 -16.3475,-9.6513 -1.82759,-1.06663 -3.65525,-2.13352 -5.53826,-3.23262 -1.71502,-1.01866 -3.43007,-2.0374 -5.19707,-3.08693 -2.29912,-1.3529 -2.29912,-1.3529 -4.64465,-2.73303 -1.6349,-1.19862 -1.6349,-1.19862 -3.30281,-2.42126 0,-1.26212 0,-2.5243 0,-3.82464 4.30141,-3.21427 8.62273,-6.22652 13.07793,-9.20308 15.22216,-10.4269 29.34539,-21.89813 43.40478,-33.89419 4.5147,-3.82591 9.11183,-7.54427 13.69464,-11.28435 24.90918,-20.90241 49.58918,-44.34633 69.9438,-69.91925 z"
       fill="#0d3d62"
       id="path16"
       style="stroke-width:1.89018" />
    <path
       d="m 424.29045,1503.9545 c 36.24975,0 36.24975,0 41.4631,4.932 2.93958,3.0299 4.54441,6.7005 4.70669,10.943 -0.12382,3.0295 -0.94962,6.0272 -2.77812,8.4667 -0.14598,0.2029 -0.29196,0.4058 -0.44236,0.6149 -1.52775,1.9228 -3.85561,3.5638 -6.28592,4.0732 -0.22442,0.024 -0.44884,0.049 -0.68006,0.074 0,0.1746 0,0.3492 0,0.5291 0.36017,0.025 0.36017,0.025 0.72761,0.05 3.32131,0.4956 6.52101,2.564 8.63099,5.1367 2.85566,4.2047 3.55636,9.0328 2.62103,14.0095 -0.83361,3.304 -2.17446,5.6469 -4.57129,8.0563 -0.13745,0.1467 -0.2749,0.2933 -0.41652,0.4444 -9.61317,9.3357 -37.96179,4.8473 -42.97515,4.8473 0,-20.5185 0,-41.0369 0,-62.1771 z"
       fill="#083960"
       id="path3"
       style="stroke-width:0.264583" />
    <path
       d="m 589.21475,1507.8385 c 3.44008,2.9967 5.95762,6.8523 6.5257,11.4618 0,0.8732 0,1.7463 0,2.6459 -4.10369,0 -8.20738,0 -12.43542,0 -0.26193,-0.8732 -0.52387,-1.7463 -0.79375,-2.6459 -1.25346,-2.5213 -2.99625,-3.9218 -5.62343,-4.8255 -3.22073,-0.8934 -6.95601,-0.8936 -9.98698,0.5922 -1.52453,0.9167 -2.74516,1.9862 -3.50573,3.6215 -0.41524,1.8339 -0.44745,3.4996 0.51159,5.1604 2.58493,3.5514 7.69267,4.4058 11.74192,5.1914 4.62295,0.9166 9.1111,2.4851 13.21263,4.8121 0.22886,0.1296 0.45771,0.2592 0.6935,0.3928 3.55472,2.1932 5.90352,5.5131 7.11171,9.4629 1.10387,4.7818 0.288,9.4227 -2.02468,13.7346 -3.37793,5.1919 -8.90926,7.8531 -14.77636,9.218 -4.7927,1.0079 -10.06764,0.9318 -14.81667,-0.2645 -0.26353,-0.066 -0.26353,-0.066 -0.53239,-0.1334 -5.6384,-1.4698 -11.21669,-4.3537 -14.27497,-9.4671 -1.83878,-3.4482 -2.39055,-6.3175 -2.39055,-10.2433 4.10368,0 8.20737,0 12.43541,0 0.52388,1.397 1.04775,2.794 1.5875,4.2333 1.64229,2.6406 3.96397,3.8394 6.87917,4.7625 3.77302,0.647 8.01838,0.5968 11.37605,-1.45 1.34376,-1.0189 2.39654,-2.2226 2.91145,-3.8416 0.22743,-1.6882 0.26527,-3.2609 -0.64492,-4.746 -3.26529,-4.1325 -9.76178,-4.872 -14.59175,-6.131 -4.54715,-1.1861 -9.08667,-2.5349 -12.80916,-5.5272 -0.16644,-0.1207 -0.33288,-0.2415 -0.50437,-0.3659 -2.16547,-1.6621 -3.41434,-4.2345 -4.25813,-6.7778 -0.14171,-0.3986 -0.14171,-0.3986 -0.28629,-0.8052 -1.15835,-4.1579 -0.35603,-9.1009 1.52652,-12.887 2.80089,-4.7805 7.62925,-7.7853 12.83953,-9.3111 8.06108,-2.1042 18.29755,-1.3486 24.90287,4.1331 z"
       fill="#0a3a60"
       id="path6"
       style="stroke-width:0.264583" />
    <path
       d="m 753.39904,1518.7051 c 0.419,0 0.419,0 0.84646,0.01 6.01291,0.086 11.00182,1.8938 15.3262,6.145 0.24914,0.244 0.24914,0.244 0.50332,0.493 2.45549,2.6002 3.86336,5.8874 4.78834,9.2965 0.0846,0.3073 0.16917,0.6146 0.25632,0.9313 0.83813,3.6435 0.53743,6.8008 0.53743,10.7104 -10.65212,0 -21.30425,0 -32.27916,0 0.41662,2.7754 0.41662,2.7754 1.42213,5.1429 0.23227,0.4496 0.23227,0.4496 0.46922,0.9084 1.38423,2.3392 3.42896,3.7157 6.05752,4.407 3.35819,0.5368 6.72791,0.3061 9.61284,-1.6444 0.79607,-0.6332 1.21281,-1.2812 1.70326,-2.1662 0.36335,-0.5811 0.36335,-0.5811 0.84336,-1.0914 0.601,-0.12 0.601,-0.12 1.29811,-0.092 0.25863,0.01 0.51727,0.02 0.78374,0.03 1.40145,0.1048 2.79201,0.2608 4.18547,0.4423 0.42692,0.053 0.42692,0.053 0.86248,0.108 0.7986,0.1003 1.59691,0.2027 2.3952,0.3054 0.70548,0.089 1.41107,0.1767 2.11667,0.2646 -0.70641,4.2384 -3.2108,7.6622 -6.55568,10.2826 -2.40088,1.5918 -5.186,2.8335 -7.99641,3.4757 -0.1985,0.054 -0.397,0.1071 -0.60151,0.1623 -6.16405,1.4292 -13.40586,0.2132 -18.84123,-2.9177 -5.14243,-3.2419 -8.39216,-8.066 -9.92601,-13.9133 -1.05579,-4.9928 -1.02641,-10.4647 0.52917,-15.3459 0.0989,-0.3107 0.19782,-0.6214 0.29972,-0.9415 1.96926,-5.5361 5.7976,-10.167 11.07736,-12.8168 0.70771,-0.3227 1.42342,-0.6148 2.14974,-0.893 0.1641,-0.063 0.32819,-0.1263 0.49726,-0.1914 2.49464,-0.8965 5.00361,-1.1234 7.63868,-1.0984 z"
       fill="#0b3b61"
       id="path9"
       style="stroke-width:0.264583" />
    <path
       d="m 424.29045,1503.9545 c 36.24975,0 36.24975,0 41.4631,4.932 2.93958,3.0299 4.54441,6.7005 4.70669,10.943 -0.12382,3.0295 -0.94962,6.0272 -2.77812,8.4667 -0.14598,0.2029 -0.29196,0.4058 -0.44236,0.6149 -1.73043,2.1779 -4.21823,3.7236 -6.96598,4.1476 -0.0873,0.1746 -0.17462,0.3492 -0.26458,0.5291 0,-0.6112 0,-1.2223 0,-1.8521 -0.17463,0 -0.34925,0 -0.52917,0 0,0.6985 0,1.397 0,2.1167 0.34925,0.087 0.6985,0.1746 1.05834,0.2646 0,0.2619 0,0.5239 0,0.7937 0.34925,0 0.6985,0 1.05833,0 0.26194,0.7859 0.52387,1.5717 0.79375,2.3813 -0.26194,0.087 -0.52388,0.1746 -0.79375,0.2646 0,0.5239 0,1.0477 0,1.5875 0.26194,0.087 0.52387,0.1746 0.79375,0.2646 0,0.2619 0,0.5238 0,0.7937 -0.17463,0.1746 -0.34925,0.3493 -0.52917,0.5292 -0.17,0.5473 -0.17,0.5473 -0.26458,1.0583 -0.17463,0 -0.34925,0 -0.52917,0 -0.0873,0.1746 -0.17462,0.3493 -0.26458,0.5292 -0.17463,-0.262 -0.34925,-0.5239 -0.52917,-0.7938 -1.17872,0.262 -1.17872,0.262 -2.38125,0.5292 0,0.2619 0,0.5239 0,0.7937 0.43657,0.087 0.87313,0.1747 1.32292,0.2646 -0.26194,0.087 -0.52388,0.1747 -0.79375,0.2646 0.0419,0.2599 0.0839,0.5198 0.12712,0.7876 0.37782,2.6695 0.60353,5.6066 -0.92087,7.9437 -0.14734,0.2401 -0.29468,0.4802 -0.44648,0.7276 -2.28862,2.2267 -5.50732,2.8029 -8.59625,2.8018 -0.27511,0 -0.55022,-0.01 -0.83367,-0.012 -0.26207,-8e-4 -0.52413,0 -0.79414,0 -0.96315,0 -1.92625,-0.015 -2.88936,-0.025 -2.16098,-0.016 -4.32196,-0.033 -6.54843,-0.05 0,-5.5006 0,-11.0013 0,-16.6687 5.75468,-0.083 5.75468,-0.083 7.56723,-0.1026 0.47483,-0.01 0.94965,-0.017 1.42447,-0.027 0.36892,0 0.36892,0 0.7453,0 0.23623,-0.01 0.47246,-0.011 0.71585,-0.016 0.20446,0 0.40892,-0.01 0.61958,-0.01 0.70779,-0.1312 1.08688,-0.436 1.62757,-0.8992 -0.0873,-0.262 -0.17463,-0.5239 -0.26459,-0.7938 0.26194,-0.1746 0.52388,-0.3492 0.79375,-0.5292 -0.17462,-0.4365 -0.34925,-0.8731 -0.52916,-1.3229 -0.26194,0 -0.52388,0 -0.79375,0 0.17462,-0.4365 0.34925,-0.8731 0.52916,-1.3229 0.17463,0 0.34925,0 0.52917,0 -0.17463,-0.2619 -0.34925,-0.5239 -0.52917,-0.7937 0,-0.262 0,-0.5239 0,-0.7938 -0.17462,0 -0.34925,0 -0.52916,0 0,-0.1746 0,-0.3492 0,-0.5292 0.26193,-0.087 0.52387,-0.1746 0.79375,-0.2645 0.32244,-0.6627 0.32244,-0.6627 0.52916,-1.323 0.17463,0 0.34925,0 0.52917,0 0.13097,-0.3929 0.13097,-0.3929 0.26458,-0.7937 -0.22529,0.019 -0.45059,0.038 -0.68271,0.057 -2.85737,0.2174 -5.69657,0.2379 -8.56117,0.2238 -1.57708,-0.01 -3.15416,-0.011 -4.77903,-0.017 0,-5.0641 0,-10.1283 0,-15.3459 -0.17463,0 -0.34925,0 -0.52917,0 0.005,0.3002 0.0109,0.6003 0.0165,0.9096 -0.0165,0.9425 -0.0165,0.9425 -0.28112,1.2071 -0.44084,0.011 -0.88209,0.011 -1.32292,0 -0.13097,-0.5239 -0.13097,-0.5239 -0.26458,-1.0583 -0.43657,-0.087 -0.87313,-0.1746 -1.32292,-0.2646 -0.0873,0.3492 -0.17463,0.6985 -0.26458,1.0583 -0.90889,0.1653 -1.71732,0.2646 -2.64584,0.2646 0,-0.1746 0,-0.3492 0,-0.5292 0.34925,0 0.6985,0 1.05834,0 0,-0.3492 0,-0.6985 0,-1.0583 -0.50806,-0.4694 -0.50806,-0.4694 -1.05834,-0.7937 0.0873,-0.4366 0.17463,-0.8732 0.26459,-1.323 -0.26194,0 -0.52388,0 -0.79375,0 -0.17463,-0.1746 -0.34925,-0.3492 -0.52917,-0.5291 -0.26194,-0.1746 -0.52388,-0.3493 -0.79375,-0.5292 0,-0.3492 0,-0.6985 0,-1.0583 -0.26194,0 -0.52388,0 -0.79375,0 0,-0.1746 0,-0.3493 0,-0.5292 -0.16371,0.055 -0.32742,0.1092 -0.49609,0.1654 -0.18554,0.033 -0.37108,0.065 -0.56224,0.099 -0.17463,-0.1746 -0.34925,-0.3493 -0.52917,-0.5292 0.34727,-0.5291 0.34727,-0.5291 0.79375,-1.0583 0.26194,0 0.52387,0 0.79375,0 0,-0.1746 0,-0.3493 0,-0.5292 0.19645,-0.033 0.39291,-0.065 0.59531,-0.099 0.67506,-0.1534 1.18448,-0.3604 1.78594,-0.6945 0,-0.1746 0,-0.3493 0,-0.5292 0.65484,0.131 0.65484,0.131 1.32292,0.2646 0,0.2619 0,0.5239 0,0.7937 0.26193,-0.087 0.52387,-0.1746 0.79375,-0.2645 0,-0.3493 0,-0.6985 0,-1.0584 -0.26194,-0.087 -0.52388,-0.1746 -0.79375,-0.2646 0.0873,-0.1746 0.17462,-0.3492 0.26458,-0.5291 0.26194,0 0.52387,0 0.79375,0 -0.13097,-0.5239 -0.13097,-0.5239 -0.26458,-1.0584 -3.92907,-0.1309 -3.92907,-0.1309 -7.9375,-0.2645 0,20.1692 0,40.3383 0,61.1187 10.04093,0 20.08187,0 30.42708,0 -0.0873,0.1746 -0.17463,0.3493 -0.26458,0.5292 -10.12825,0 -20.2565,0 -30.69167,0 0,-20.5185 0,-41.0369 0,-62.1771 z m 7.9375,0.7937 c 0.26194,0.131 0.26194,0.131 0.52917,0.2646 -0.26194,0.131 -0.26194,0.131 -0.52917,0.2646 0,-0.1746 0,-0.3492 0,-0.5292 z"
       fill="#0a3a60"
       id="path10"
       style="stroke-width:0.264583" />
    <path
       d="m 716.80696,1521.4522 c 3.96946,3.0554 5.62763,7.4431 6.35051,12.2641 0.16965,1.4068 0.18177,2.7953 0.17222,4.2107 8e-5,0.3076 1.5e-4,0.6152 2.3e-4,0.9321 -3.7e-4,1.0035 -0.004,2.007 -0.009,3.0105 -9.8e-4,0.701 -0.002,1.4019 -0.002,2.1029 -0.002,1.6482 -0.006,3.2963 -0.0113,4.9445 -0.006,1.8787 -0.009,3.7574 -0.0115,5.636 -0.006,3.8596 -0.0152,7.7191 -0.0266,11.5786 -4.27831,0 -8.55663,0 -12.96458,0 -0.007,-2.1053 -0.0136,-4.2107 -0.0207,-6.3799 -0.007,-1.3373 -0.0136,-2.6745 -0.0217,-4.0117 -0.0128,-2.1205 -0.0244,-4.2409 -0.0293,-6.3614 -0.004,-1.7104 -0.0131,-3.4208 -0.0257,-5.1312 -0.004,-0.6511 -0.006,-1.3023 -0.006,-1.9534 -6.4e-4,-0.9151 -0.008,-1.83 -0.0165,-2.745 0.001,-0.2667 0.003,-0.5333 0.004,-0.808 -0.0416,-2.8591 -0.93243,-5.4079 -2.97621,-7.4517 -2.09797,-1.6098 -4.67544,-1.6963 -7.22643,-1.4056 -2.29328,0.7228 -3.77035,2.1555 -4.99194,4.1838 -0.49062,0.9474 -0.80817,1.9344 -1.09347,2.96 -0.046,0.1614 -0.0919,0.3227 -0.13924,0.489 -0.13288,0.6035 -0.16209,1.1437 -0.16721,1.7613 -0.003,0.2374 -0.005,0.4749 -0.008,0.7195 -0.002,0.2585 -0.003,0.5169 -0.005,0.7832 -0.003,0.2737 -0.005,0.5474 -0.008,0.8294 -0.008,0.9047 -0.0149,1.8095 -0.0214,2.7143 -0.005,0.6273 -0.011,1.2546 -0.0167,1.8818 -0.0146,1.6512 -0.0277,3.3023 -0.0405,4.9535 -0.0156,1.981 -0.0331,3.962 -0.0503,5.943 -0.0259,3.0097 -0.0494,6.0194 -0.0734,9.0291 -4.27831,0 -8.55662,0 -12.96458,0 0,-15.4543 0,-30.9086 0,-46.8312 4.01637,0 8.03275,0 12.17083,0 0.0873,2.4447 0.17462,4.8895 0.26458,7.4083 0.61119,-0.8731 1.22238,-1.7462 1.85209,-2.6458 4.96131,-6.6527 15.62836,-7.0871 22.11235,-2.6107 z"
       fill="#0c3c61"
       id="path11"
       style="stroke-width:0.264583" />
    <path
       d="m 640.9842,1521.6816 c 0.96122,0.7263 1.80553,1.5195 2.64583,2.3812 0.20055,0.1921 0.4011,0.3841 0.60772,0.5819 4.64334,4.7154 6.11481,11.5434 6.10609,17.939 -1.5e-4,0.1791 -3e-4,0.3583 -4.3e-4,0.5429 -0.0252,6.85 -1.74743,13.7999 -6.69166,18.8171 -3.92261,3.7412 -9.01652,5.171 -14.32057,5.0643 -4.19089,-0.1909 -7.75017,-2.3811 -10.57198,-5.3743 -0.65484,-0.9168 -0.65484,-0.9168 -1.32292,-1.8521 -0.0873,7.8581 -0.17462,15.7162 -0.26458,23.8125 -4.191,0 -8.382,0 -12.7,0 0,-21.1296 0,-42.2593 0,-64.0292 4.191,0 8.382,0 12.7,0 0,2.0955 0,4.191 0,6.35 -0.0873,0 -0.17462,0 -0.26458,0 0,-2.0082 0,-4.0163 0,-6.0854 -4.01638,0 -8.03275,0 -12.17084,0 0.0873,8.2074 0.17463,16.4148 0.26459,24.8708 0.52387,-0.2619 0.52387,-0.2619 1.05833,-0.5291 0,0.1746 0,0.3492 0,0.5291 0.26194,0 0.52388,0 0.79375,0 0,-0.2619 0,-0.5238 0,-0.7937 0.25375,-0.1064 0.25375,-0.1064 0.51263,-0.215 0.63337,-0.2842 0.63337,-0.2842 0.81029,-1.1079 0.78581,-0.131 0.78581,-0.131 1.5875,-0.2646 0,0.2619 0,0.5239 0,0.7937 0.21282,0.06 0.42565,0.1201 0.64492,0.182 0.22374,0.1145 0.44748,0.2291 0.67799,0.3472 0.21498,0.6945 0.21498,0.6945 0.26459,1.3229 0.17462,0 0.34925,0 0.52916,0 0,0.4366 0,0.8732 0,1.3229 -0.17462,-0.087 -0.34925,-0.1746 -0.52916,-0.2645 0,-0.1747 0,-0.3493 0,-0.5292 -0.26194,0 -0.52388,0 -0.79375,0 -0.0873,0.2619 -0.17463,0.5239 -0.26459,0.7937 -0.26193,0 -0.52387,0 -0.79375,0 0.0873,0.262 0.17463,0.5239 0.26459,0.7938 0.17462,0.087 0.34925,0.1746 0.52916,0.2646 0,0.3492 0,0.6985 0,1.0583 -0.13097,0.1201 -0.26193,0.2401 -0.39687,0.3638 -0.48665,0.4361 -0.48665,0.4361 -0.44649,1.2733 0.0164,0.2456 0.0328,0.4912 0.0496,0.7442 0.26194,0 0.52388,0 0.79375,0 0,-0.1747 0,-0.3493 0,-0.5292 0.17463,0 0.34925,0 0.52917,0 0,0.3492 0,0.6985 0,1.0583 0.17463,0 0.34925,0 0.52917,0 0.0709,-0.1637 0.14188,-0.3274 0.21497,-0.4961 0.31419,-0.5622 0.31419,-0.5622 1.10794,-1.0914 0.34925,0 0.6985,0 1.05834,0 0,-0.2619 0,-0.5238 0,-0.7937 -0.26194,-0.087 -0.52388,-0.1746 -0.79375,-0.2646 0.17462,-0.1746 0.34925,-0.3493 0.52916,-0.5292 0,0.1747 0,0.3493 0,0.5292 0.18554,-0.1146 0.37108,-0.2292 0.56224,-0.3473 0.76745,-0.4504 1.5488,-0.8498 2.34818,-1.2402 0,-0.3493 0,-0.6985 0,-1.0583 0.92911,0.3716 1.19722,0.6789 1.5875,1.5875 0.1595,0.4944 0.31337,0.9907 0.46302,1.4882 0.92594,2.7915 2.15636,4.7954 4.79971,6.1826 2.31231,1.0556 4.96129,1.1678 7.37112,0.3824 2.40527,-1.0002 3.61434,-2.4431 4.74287,-4.7583 0.96245,-2.5098 1.27208,-4.8035 1.2476,-7.4866 -0.004,-0.5527 -3e-5,-1.1049 0.005,-1.6576 0.006,-3.5053 -0.52376,-7.0121 -2.93005,-9.7291 -1.8268,-1.6642 -3.74562,-2.3004 -6.1743,-2.4794 -0.23022,-0.02 -0.46044,-0.041 -0.69763,-0.062 -0.56088,-0.049 -1.12222,-0.093 -1.68362,-0.1364 0.17463,-0.9604 0.34925,-1.9209 0.52917,-2.9104 -0.34925,-0.087 -0.6985,-0.1746 -1.05834,-0.2646 -0.0144,-0.4188 -0.0246,-0.8378 -0.0331,-1.2568 -0.006,-0.2332 -0.0123,-0.4665 -0.0186,-0.7069 0.0539,-0.7122 0.21955,-1.1317 0.58084,-1.7405 -0.17462,0 -0.34925,0 -0.52917,0 0,-0.1746 0,-0.3492 0,-0.5291 -0.76421,-0.2939 -1.05479,-0.2658 -1.85208,0 -0.82907,0.2763 -1.0556,0.2472 -1.85208,0 2.02303,-1.4433 3.94545,-2.2969 6.35,-2.9104 0.16823,-0.046 0.33646,-0.093 0.50978,-0.1404 4.51639,-1.0227 9.41715,0.4334 13.24855,2.7862 z"
       fill="#093960"
       id="path12"
       style="stroke-width:0.264583" />
    <path
       d="m 502.34253,1519.3004 c 12.573,0 25.146,0 38.1,0 0,8.3849 0,8.3849 -3.80339,13.1961 -0.24736,0.3135 -0.49472,0.627 -0.74207,0.9405 -0.12338,0.1561 -0.24676,0.3122 -0.37388,0.4731 -0.61065,0.7734 -1.21899,1.5486 -1.82754,2.3236 -0.24252,0.3087 -0.48505,0.6174 -0.7276,0.9261 -0.12005,0.1528 -0.24011,0.3056 -0.3638,0.463 -1.09141,1.3891 -1.09141,1.3891 -1.45502,1.8518 -0.24319,0.3096 -0.48637,0.6191 -0.72954,0.9286 -0.5961,0.7589 -1.19244,1.5175 -1.78936,2.2756 -1.51866,1.9296 -3.02876,3.8657 -4.53532,5.8048 -0.99689,1.2825 -1.99648,2.5629 -3.00014,3.8401 -0.11562,0.1472 -0.23124,0.2943 -0.35036,0.446 -0.6619,0.8414 -1.32903,1.6781 -1.99781,2.514 11.00137,0.131 11.00137,0.131 22.225,0.2646 0,3.4925 0,6.985 0,10.5833 -12.83494,0 -25.66988,0 -38.89375,0 0,-8.202 0,-8.202 1.55442,-10.6164 0.95705,-0.9529 0.95705,-0.9529 1.43738,-1.3913 0.68129,-0.6507 1.2177,-1.388 1.7707,-2.1475 1.13273,-1.4858 2.30542,-2.9349 3.48816,-4.3811 0.88436,-1.0841 1.74901,-2.1791 2.59725,-3.2918 1.12768,-1.4786 2.29299,-2.9226 3.46956,-4.3625 1.04788,-1.284 2.07648,-2.5815 3.09574,-3.8883 1.12856,-1.4428 2.28583,-2.8617 3.44908,-4.2766 0.13932,-0.1702 0.27865,-0.3404 0.4222,-0.5157 0.12419,-0.151 0.24838,-0.302 0.37633,-0.4576 0.32302,-0.3948 0.32302,-0.3948 0.56418,-0.9191 -7.24694,0 -14.49388,0 -21.96042,0 0,-3.4925 0,-6.985 0,-10.5833 z"
       fill="#0b3b61"
       id="path13"
       style="stroke-width:0.264583" />
    <path
       d="m 604.20712,1519.3004 c 4.36562,0 8.73125,0 13.22916,0 0.13097,3.0123 0.13097,3.0123 0.26459,6.0854 0.57298,-0.6385 0.57298,-0.6385 1.15755,-1.2898 1.74366,-1.943 1.74366,-1.943 3.30729,-2.3482 0.27763,-0.075 0.55525,-0.1501 0.8413,-0.2274 0.8388,-0.1112 1.14585,-0.035 1.83761,0.4258 -0.0873,0.1746 -0.17463,0.3493 -0.26459,0.5292 0.17463,0 0.34925,0 0.52917,0 0,0.1746 0,0.3492 0,0.5291 0.26194,0.131 0.26194,0.131 0.52917,0.2646 -0.26194,0.087 -0.52388,0.1747 -0.79375,0.2646 -0.0873,0.8731 -0.17463,1.7463 -0.26459,2.6458 0.52388,0.131 0.52388,0.131 1.05834,0.2646 0.0442,1.149 0.0344,1.9076 -0.52917,2.9104 0.22373,-0.01 0.44749,-0.012 0.67799,-0.018 3.19998,-0.051 5.51286,0.3826 7.99849,2.5487 2.80617,3.001 3.08218,6.9586 3.08094,10.8479 0,0.2828 0,0.2828 0,0.5712 -0.009,4.1343 -0.57959,7.6615 -3.43733,10.8504 -1.63121,1.5767 -3.71835,2.2375 -5.95622,2.3037 -2.72407,-0.1091 -5.15753,-0.9763 -7.0621,-2.9869 -1.45058,-1.8251 -2.20099,-3.859 -2.73574,-6.1071 -0.19849,-0.5939 -0.19849,-0.5939 -0.79375,-0.8868 -0.16645,-0.062 -0.3329,-0.1248 -0.50438,-0.1891 -0.0873,0.1746 -0.17462,0.3492 -0.26458,0.5291 0.26194,0.131 0.26194,0.131 0.52917,0.2646 -0.26194,0.087 -0.52388,0.1746 -0.79375,0.2646 -0.0873,0.1746 -0.17463,0.3492 -0.26459,0.5292 -0.76692,0.4656 -1.50093,0.647 -2.38125,0.7937 0.26194,0.131 0.26194,0.131 0.52917,0.2646 0,0.2619 0,0.5239 0,0.7937 -0.52917,0.5292 -0.52917,0.5292 -1.2237,0.5623 -0.20735,-0.011 -0.41473,-0.022 -0.62838,-0.033 -0.0873,0.4366 -0.17463,0.8731 -0.26459,1.3229 -0.3929,-0.1309 -0.3929,-0.1309 -0.79375,-0.2646 0,-0.3492 0,-0.6985 0,-1.0583 -0.17462,0 -0.34925,0 -0.52916,0 0,0.1746 0,0.3493 0,0.5292 -0.39291,0.1309 -0.39291,0.1309 -0.79375,0.2646 -0.32756,-0.9463 -0.19826,-1.6767 0,-2.6459 0.26193,0 0.52387,0 0.79375,0 0,-0.3492 0,-0.6985 0,-1.0583 -0.39291,-0.131 -0.39291,-0.131 -0.79375,-0.2646 0,-0.2619 0,-0.5239 0,-0.7937 0.17462,0 0.34925,0 0.52916,0 0.0873,-0.1747 0.17463,-0.3493 0.26459,-0.5292 0.5457,-0.1654 0.5457,-0.1654 1.05833,-0.2646 0.13097,0.2619 0.13097,0.2619 0.26458,0.5292 0.0873,-0.3493 0.17463,-0.6985 0.26459,-1.0584 -0.17463,0 -0.34925,0 -0.52917,0 -0.0655,-0.1582 -0.13097,-0.3165 -0.19844,-0.4795 -0.29892,-0.614 -0.29892,-0.614 -0.89297,-0.9922 -0.16369,-0.1255 -0.32742,-0.251 -0.49609,-0.3803 0,-0.262 0,-0.5239 0,-0.7938 -0.78581,0.131 -0.78581,0.131 -1.5875,0.2646 -0.0873,0.3492 -0.17463,0.6985 -0.26458,1.0583 -0.52388,0.131 -0.52388,0.131 -1.05834,0.2646 0,0.2619 0,0.5239 0,0.7938 -0.23738,-0.074 -0.23738,-0.074 -0.47955,-0.1489 -0.6222,-0.1742 -0.6222,-0.1742 -1.37253,0.1489 0,0.8731 0,1.7462 0,2.6458 -0.0873,0 -0.17463,0 -0.26458,0 0,-9.0805 0,-18.161 0,-27.5167 4.01637,0 8.03275,0 12.17083,0 0.0873,-0.087 0.17462,-0.1746 0.26458,-0.2646 -4.191,0 -8.382,0 -12.7,0 0,21.1297 0,42.2593 0,64.0292 -0.0873,0 -0.17462,0 -0.26458,0 0,-21.2169 0,-42.4339 0,-64.2937 z"
       fill="#0d3c63"
       id="path14"
       style="stroke-width:0.264583" />
    <path
       d="m 658.18212,1519.3004 c 4.191,0 8.382,0 12.7,0 0,15.4543 0,30.9086 0,46.8312 -4.191,0 -8.382,0 -12.7,0 0,-15.4543 0,-30.9086 0,-46.8312 z"
       fill="#0b3a60"
       id="path17"
       style="stroke-width:0.264583" />
    <path
       d="m 480.11753,1519.3004 c 4.191,0 8.382,0 12.7,0 0,15.4543 0,30.9086 0,46.8312 -4.191,0 -8.382,0 -12.7,0 0,-15.4543 0,-30.9086 0,-46.8312 z"
       fill="#0c3c62"
       id="path18"
       style="stroke-width:0.264583" />
    <path
       d="m 632.69634,1531.0247 c 2.25075,1.6342 3.3908,4.1799 3.9495,6.8559 0.22991,1.6074 0.2213,3.2312 0.22079,4.8519 4.2e-4,0.2827 4.2e-4,0.2827 8.4e-4,0.5712 -0.009,4.1343 -0.57958,7.6615 -3.43732,10.8503 -1.63122,1.5767 -3.71836,2.2376 -5.95623,2.3038 -2.72407,-0.1091 -5.15753,-0.9763 -7.0621,-2.9869 -2.33063,-2.9323 -3.12435,-6.4995 -3.07475,-10.1761 0.003,-0.2907 0.006,-0.5814 0.009,-0.8809 0.0789,-4.0276 0.83727,-8.1821 3.86081,-11.1081 3.47825,-2.7426 7.86832,-2.5882 11.48974,-0.2811 z"
       fill="#fbfcfc"
       id="path19"
       style="stroke-width:0.264583" />
    <path
       d="m 743.37795,1548.9337 c 0.85435,1.0572 1.37912,2.2246 1.95854,3.4468 1.18227,2.1998 3.02102,3.3548 5.33404,4.193 3.24348,0.8531 6.79206,0.535 9.72033,-1.1007 1.06321,-0.7188 1.63149,-1.4174 2.25206,-2.5373 0.36335,-0.5811 0.36335,-0.5811 0.84336,-1.0914 0.601,-0.1199 0.601,-0.1199 1.29812,-0.092 0.25863,0.01 0.51726,0.02 0.78373,0.03 1.40145,0.1049 2.79202,0.2609 4.18547,0.4424 0.28462,0.036 0.56924,0.071 0.86248,0.108 0.79861,0.1002 1.59691,0.2026 2.3952,0.3054 0.70549,0.089 1.41107,0.1767 2.11667,0.2645 -0.7064,4.2385 -3.2108,7.6622 -6.55567,10.2826 -2.40089,1.5919 -5.18601,2.8335 -7.99641,3.4758 -0.1985,0.054 -0.397,0.1071 -0.60152,0.1622 -6.45562,1.4969 -13.92487,0.1045 -19.50682,-3.3372 -1.06081,-0.7233 -1.84287,-1.613 -2.66753,-2.5869 -0.35818,-0.4151 -0.72811,-0.8202 -1.10588,-1.2175 -0.19543,-0.2071 -0.39086,-0.4141 -0.59221,-0.6274 -0.18281,-0.1896 -0.36562,-0.3793 -0.55397,-0.5746 -0.37207,-0.5499 -0.37207,-0.5499 -0.3452,-1.1359 0.0784,-0.1558 0.15689,-0.3117 0.23771,-0.4723 0.25102,-0.071 0.50205,-0.1419 0.76068,-0.215 0.91644,-0.2414 0.91644,-0.2414 1.2733,-1.2071 0.1719,-0.4748 0.1719,-0.4748 0.34727,-0.9592 0.1528,-0.18 0.30559,-0.3601 0.46302,-0.5457 0.41852,-0.5324 0.41852,-0.5324 0.24805,-1.3725 -0.09,-0.3601 -0.09,-0.3601 -0.1819,-0.7276 0.17462,-0.087 0.34925,-0.1746 0.52916,-0.2646 0.52917,0.7938 0.52917,0.7938 0.79375,1.3229 0.8847,-0.1474 1.59627,-0.3576 2.38125,-0.7937 0,-0.2619 0,-0.5239 0,-0.7938 0.34925,-0.087 0.6985,-0.1746 1.05834,-0.2645 0.0873,-0.6985 0.17462,-1.397 0.26458,-2.1167 z"
       fill="#0a3a5f"
       id="path20"
       style="stroke-width:0.264583" />
    <path
       d="m 437.51962,1538.8795 c 1.98636,-0.011 3.97272,-0.022 6.01927,-0.033 0.62031,0 1.24062,-0.01 1.87973,-0.015 8.13298,-0.038 8.13298,-0.038 11.18717,2.6646 1.87713,1.9991 2.20628,3.8983 2.19334,6.5646 -0.0492,1.5349 -0.32169,2.7453 -1.17118,4.0477 -0.14734,0.2401 -0.29468,0.4802 -0.44648,0.7276 -2.28861,2.2267 -5.50732,2.8029 -8.59625,2.8018 -0.27511,0 -0.55022,-0.01 -0.83367,-0.012 -0.26206,-8e-4 -0.52413,0 -0.79413,0 -0.96315,0 -1.92626,-0.015 -2.88936,-0.025 -2.16099,-0.016 -4.32197,-0.033 -6.54844,-0.05 0,-5.5006 0,-11.0013 0,-16.6687 z"
       fill="#fdfdfd"
       id="path21"
       style="stroke-width:0.264583" />
    <path
       d="m 437.7842,1514.5379 c 2.07367,-0.027 4.14734,-0.055 6.28385,-0.083 0.64794,-0.012 1.29588,-0.024 1.96345,-0.036 3.42187,-0.037 6.24556,-0.048 8.95062,2.302 1.52091,1.7292 2.03905,3.4643 1.9544,5.7557 -0.25196,1.9521 -1.03864,3.6754 -2.48357,5.0261 -2.438,1.5116 -4.75303,1.9348 -7.5737,1.9037 -0.23192,-5e-4 -0.46385,0 -0.7028,0 -0.85715,0 -1.71429,-0.01 -2.57142,-0.017 -1.92087,-0.011 -3.84175,-0.022 -5.82083,-0.033 0,-4.8895 0,-9.779 0,-14.8167 z"
       fill="#fcfdfd"
       id="path22"
       style="stroke-width:0.264583" />
    <path
       d="m 490.70087,1501.3087 c 1.46097,0.8893 2.37533,2.3635 2.91042,3.9687 0.16923,2.028 0.24483,3.9 -1.05834,5.5563 -1.34028,1.4116 -2.72555,2.5343 -4.71082,2.7606 -0.35893,0.01 -0.718,0.01 -1.07694,0 -0.18737,0 -0.37474,0 -0.56779,-0.01 -1.47731,-0.045 -2.51861,-0.2908 -3.69861,-1.1686 -0.28377,-0.1965 -0.56753,-0.3929 -0.8599,-0.5953 -1.30766,-1.3077 -2.07223,-2.9879 -2.14974,-4.8452 0.0235,-1.7856 0.67465,-3.2202 1.83865,-4.5661 2.84325,-2.6378 5.96831,-2.6952 9.37307,-1.1059 z"
       fill="#0c3a60"
       id="path29"
       style="stroke-width:0.264583" />
    <path
       d="m 664.63133,1500.3992 c 0.29999,0 0.29999,0 0.60604,0.01 1.81736,0.057 2.97092,0.3803 4.30012,1.6526 1.61856,1.7421 2.31549,3.1688 2.24689,5.5728 -0.23183,1.7532 -1.01941,3.1732 -2.30787,4.376 -2.07452,1.5648 -4.23558,1.7684 -6.79648,1.4717 -2.10737,-0.5919 -3.37371,-1.8687 -4.49792,-3.7041 -0.75496,-1.5428 -0.83421,-3.3073 -0.29765,-4.9362 1.31609,-2.8746 3.5659,-4.485 6.74687,-4.44 z"
       fill="#0b3a5f"
       id="path30"
       style="stroke-width:0.264583" />
    <path
       d="m 758.16154,1529.5034 c 2.49796,1.5244 3.87191,3.4302 4.79557,6.2012 0,0.6985 0,1.397 0,2.1166 -6.2865,0 -12.573,0 -19.05,0 0.34773,-3.1295 1.32172,-5.3026 3.70417,-7.4083 2.84272,-2.2024 7.31649,-2.4205 10.55026,-0.9095 z"
       fill="#f8fbfc"
       id="path31"
       style="stroke-width:0.264583" />
  </g>
</svg>
