<?xml version="1.0" encoding="UTF-8" standalone="no"?>
<svg
   version="1.1"
   width="2048"
   height="2048"
   id="svg77"
   sodipodi:docname="BizSpine_Logo_2000x2000.svg"
   inkscape:export-filename="BizSpine_Logo_64x64.png"
   inkscape:export-xdpi="3"
   inkscape:export-ydpi="3"
   xmlns:inkscape="http://www.inkscape.org/namespaces/inkscape"
   xmlns:sodipodi="http://sodipodi.sourceforge.net/DTD/sodipodi-0.dtd"
   xmlns="http://www.w3.org/2000/svg"
   xmlns:svg="http://www.w3.org/2000/svg">
  <defs
     id="defs77" />
  <sodipodi:namedview
     id="namedview77"
     pagecolor="#ffffff"
     bordercolor="#000000"
     borderopacity="0.25"
     inkscape:showpageshadow="2"
     inkscape:pageopacity="0.0"
     inkscape:pagecheckerboard="0"
     inkscape:deskcolor="#d1d1d1" />
  <path
     d="m 0,0 c 675.84,0 1351.68,0 2048,0 0,675.84 0,1351.68 0,2048 -675.84,0 -1351.68,0 -2048,0 C 0,1372.16 0,696.32 0,0 Z"
     fill="#fefefd"
     id="path1" />
  <path
     d="m 1239,397 c 1.6681,12.31324 2.8024,24.63287 3.8047,37.01562 0.1666,2.0241 0.3335,4.04817 0.5008,6.07221 0.4385,5.31579 0.8734,10.63187 1.3072,15.94806 0.768,9.41026 1.541,18.82012 2.317,28.22973 0.1268,1.54044 0.1268,1.54044 0.2563,3.11199 1.4083,17.07175 2.9157,34.13326 4.4917,51.19032 3.4944,37.82315 3.4944,37.82315 3.3223,52.43207 -8.2185,-3.92012 -16.0507,-8.30669 -23.7904,-13.09207 -3.0386,-1.87835 -6.0872,-3.7405 -9.1354,-5.60324 -0.6021,-0.36834 -1.2042,-0.73667 -1.8245,-1.11617 C 1212.2544,566.30805 1204.1368,561.63958 1196,557 c -3.1812,3.84236 -5.9822,7.87037 -8.7109,12.03906 -0.9173,1.39047 -1.8349,2.78077 -2.7527,4.1709 -0.4755,0.72151 -0.9509,1.44303 -1.4408,2.1864 -11.1067,16.83159 -22.3425,33.45207 -35.5878,48.69739 -2.3786,2.75647 -4.6681,5.56588 -6.9453,8.40625 -6.8415,8.40143 -14.2626,16.31796 -21.9961,23.90234 -1.7278,1.76232 -3.3332,3.60069 -4.9414,5.47266 -5.7067,6.60035 -11.9194,12.64259 -18.5391,18.32031 -2.3362,2.0212 -4.6155,4.09848 -6.8984,6.17969 -4.3453,3.92072 -8.8149,7.65082 -13.3672,11.32812 -2.8096,2.28815 -5.5627,4.63393 -8.3203,6.98438 -7.4363,6.20656 -15.2577,11.87632 -23.0947,17.56299 -2.2334,1.62449 -4.4574,3.26095 -6.6787,4.90185 C 1015.1428,743.02043 992.43694,757.38194 970,772 c -1.97797,1.2902 -3.95584,2.58057 -5.93359,3.87109 -3.795,2.47614 -7.59058,4.95139 -11.38672,7.42578 -3.91255,2.55043 -7.82387,5.10271 -11.73438,7.65625 -4.79907,3.13369 -9.60092,6.26307 -14.40429,9.39014 -2.34452,1.52862 -4.68536,3.06269 -7.02539,4.59815 -1.2759,0.83225 -2.55193,1.6643 -3.82813,2.49609 -1.06863,0.69996 -2.13727,1.39992 -3.23828,2.12109 C 910,811 910,811 908,811 c 2.45751,2.75717 5.12261,4.3237 8.35547,6.08203 1.62736,0.89248 1.62736,0.89248 3.2876,1.80298 0.57695,0.31365 1.15391,0.62731 1.74835,0.95047 3.07541,1.67294 6.14095,3.36374 9.20624,5.05514 0.62501,0.34463 1.25002,0.68926 1.89398,1.04433 5.93345,3.28135 11.79038,6.68788 17.63336,10.12755 8.23072,4.84365 16.52402,9.55437 24.875,14.1875 9.52997,5.2923 18.84736,10.83011 28,16.75 -2.8888,2.28066 -5.92737,4.20572 -9.07544,6.10767 -18.05066,10.94483 -34.686,23.97796 -50.1394,38.32592 -2.31163,2.13007 -4.65129,4.20593 -7.03516,6.25391 -7.26381,5.9295 -7.26381,5.9295 -12.75,13.3125 -5.58833,-1.55431 -10.17179,-4.26433 -15.125,-7.1875 -8.51309,-4.94578 -17.12248,-9.68656 -25.8125,-14.3125 -9.51149,-5.06629 -19.00166,-10.16693 -28.44653,-15.35669 -4.08609,-2.2401 -8.18056,-4.44987 -12.33081,-6.56909 -22.66511,-11.59025 -39.1998,-27.27476 -47.66016,-51.88672 -5.26224,-19.79394 -1.50972,-39.34432 8.30322,-56.88086 2.57792,-4.34546 5.66047,-8.09787 9.07178,-11.80664 0.72574,-0.81727 1.45148,-1.63453 2.19922,-2.47656 6.18897,-6.6084 13.07739,-11.36564 20.66992,-16.1709 2.96374,-1.8812 5.90222,-3.80036 8.84277,-5.71753 2.51035,-1.63589 5.02409,-3.26646 7.53809,-4.89673 6.63769,-4.31005 13.25643,-8.64896 19.875,-12.98828 2.49477,-1.63545 4.98957,-3.27085 7.48438,-4.90625 0.6184,-0.4054 1.23681,-0.81079 1.87396,-1.22847 6.29449,-4.12593 12.59247,-8.24652 18.89166,-12.36528 1.06017,-0.69327 2.12035,-1.38655 3.21265,-2.10083 6.2096,-4.05933 12.42381,-8.11151 18.64087,-12.15942 8.88777,-5.78879 17.77227,-11.58033 26.56933,-17.50635 1.652,-1.11281 3.3052,-2.22384 4.95899,-3.33399 38.59861,-25.9344 80.10886,-54.40487 109.09476,-91.44238 2.0382,-2.56819 4.1591,-5.02512 6.3249,-7.48462 12.0307,-13.71404 22.4001,-28.70478 32.3504,-43.96997 1.5429,-2.35914 3.1027,-4.70652 4.6645,-7.05322 1.0201,-1.54522 2.0396,-3.09078 3.0586,-4.63672 0.4785,-0.71624 0.957,-1.43247 1.45,-2.17041 2.6244,-3.86747 2.6244,-3.86747 3.3,-8.39209 -2.0108,-1.67636 -2.0108,-1.67636 -4.6875,-3.22266 -1.001,-0.61593 -2.0021,-1.23186 -3.0335,-1.86645 -1.6231,-0.97683 -1.6231,-0.97683 -3.279,-1.97339 -1.6454,-1.00873 -1.6454,-1.00873 -3.324,-2.03784 -2.207,-1.35289 -4.4165,-2.70165 -6.6286,-4.04614 -3.8859,-2.36351 -7.7524,-4.75667 -11.6099,-7.16602 -0.6202,-0.38607 -1.2404,-0.77215 -1.8794,-1.16992 -5.3602,-3.35385 -10.6243,-6.84677 -15.865,-10.38404 -3.2584,-2.21408 -3.2584,-2.21408 -6.6931,-4.13354 0,-0.66 0,-1.32 0,-2 1.1945,-0.46672 2.389,-0.93344 3.6196,-1.41431 25.9864,-10.15509 51.959,-20.34378 77.9032,-30.60589 7.1756,-2.83814 14.3515,-5.67519 21.5274,-8.51252 2.7414,-1.08403 5.4828,-2.16823 8.2242,-3.25244 8.357,-3.30475 16.715,-6.60684 25.0772,-9.89843 0.7306,-0.28765 1.4613,-0.5753 2.2142,-0.87166 3.4717,-1.3665 6.9438,-2.73209 10.4164,-4.09636 5.8069,-2.28298 11.6079,-4.57857 17.3889,-6.92652 0.9443,-0.38277 1.8886,-0.76554 2.8616,-1.15991 1.6938,-0.68877 3.3859,-1.3819 5.0756,-2.08056 C 1233.356,397.94154 1235.676,397 1239,397 Z"
     fill="#21748b"
     id="path2" />
  <path
     d="m 361,1269 c 137.00692,0 137.00692,0 156.71094,18.6406 11.11023,11.4515 17.17572,25.3249 17.78906,41.3594 -0.46799,11.4502 -3.58913,22.7801 -10.5,32 -0.55172,0.767 -1.10344,1.534 -1.67188,2.3242 -5.77419,7.2671 -14.5724,13.4696 -23.75781,15.3946 -0.8482,0.093 -1.6964,0.1856 -2.57031,0.2812 0,0.66 0,1.32 0,2 1.36125,0.093 1.36125,0.093 2.75,0.1875 12.55299,1.8728 24.64635,9.6907 32.62109,19.4141 10.79303,15.8919 13.44135,34.1397 9.90625,52.9492 -3.15067,12.4879 -8.21844,21.3427 -17.27734,30.4492 -0.51949,0.5543 -1.03898,1.1086 -1.57422,1.6797 C 487.09253,1520.964 379.94814,1504 361,1504 c 0,-77.55 0,-155.1 0,-235 z"
     fill="#083960"
     id="path3" />
  <path
     d="m 1125,687 c 3.5443,1.34456 6.808,2.91228 10.1133,4.76562 1.4821,0.82952 1.4821,0.82952 2.9941,1.67579 1.5865,0.89525 1.5865,0.89525 3.2051,1.80859 1.1079,0.62262 2.2159,1.24523 3.3574,1.88672 8.4824,4.78249 16.9,9.67159 25.2949,14.60596 6.1725,3.61846 12.389,7.1435 18.648,10.6101 27.8214,15.40941 54.6732,30.51272 65.6958,62.14722 4.793,17.33073 1.9979,36.54946 -6.0586,52.4375 -11.2679,18.799 -28.0002,31.0767 -46.2458,42.33228 -4.2853,2.6438 -8.5137,5.35672 -12.6917,8.16772 -6.3739,4.28377 -12.7873,8.50444 -19.2147,12.70743 C 1127.7783,927.66891 1127.7783,927.66891 1086,956 c -1.0944,0.7599 -1.0944,0.7599 -2.2109,1.53516 C 1068.8848,967.90452 1054.0144,978.44593 1040,990 c -0.9449,0.77215 -1.8898,1.5443 -2.8633,2.33984 -1.8663,1.52521 -3.7311,3.05231 -5.5937,4.58203 -1.2588,1.02868 -1.2588,1.02868 -2.543,2.07813 -0.9114,0.74766 -1.8227,1.4953 -2.7617,2.2656 C 1024,1003 1024,1003 1023,1003 c -0.6104,-15.08867 -1.0673,-30.17678 -1.3471,-45.27506 -0.1335,-7.01339 -0.3157,-14.01898 -0.6143,-21.02743 -2.0222,-48.42949 -2.0222,-48.42949 5.7381,-57.41515 5.3985,-5.07894 12.0145,-7.76272 18.9684,-10.10374 4.6331,-1.67769 8.3179,-4.2374 12.2901,-7.09659 1.3353,-0.88548 2.6748,-1.76459 4.0188,-2.63696 1.3362,-0.87747 2.6724,-1.75499 4.0085,-2.63257 1.0768,-0.70696 1.0768,-0.70696 2.1754,-1.42819 11.7549,-7.71972 23.4604,-15.51124 35.1469,-23.33399 9.6814,-6.47729 19.4213,-12.84009 29.2981,-19.01736 1.2224,-0.76655 1.2224,-0.76655 2.4694,-1.54858 0.7012,-0.43603 1.4024,-0.87206 2.1248,-1.32129 1.8686,-1.18187 1.8686,-1.18187 3.7229,-3.16309 -0.7068,-0.4009 -1.4136,-0.8018 -2.1418,-1.21484 -14.3494,-8.14752 -28.6334,-16.38462 -42.8103,-24.82959 -9.0529,-5.38584 -18.1609,-10.66841 -27.2984,-15.90894 -2.92,-1.67615 -5.8351,-3.36069 -8.7495,-5.04663 -0.9782,-0.55784 -1.9565,-1.11568 -2.9644,-1.69043 -0.9179,-0.5327 -1.8359,-1.06541 -2.7817,-1.61426 -1.2306,-0.70745 -1.2306,-0.70745 -2.4861,-1.4292 -0.875,-0.62672 -0.875,-0.62672 -1.7678,-1.26611 0,-0.66 0,-1.32 0,-2 2.3023,-1.68082 4.6153,-3.25598 7,-4.8125 8.1477,-5.45249 15.7071,-11.45111 23.2324,-17.72412 2.4166,-2.00065 4.8772,-3.94509 7.3301,-5.90088 C 1100.8952,712.63211 1114.1052,700.37273 1125,687 Z"
     fill="#268793"
     id="path4" />
  <path
     d="m 1238,890 c 6.3878,2.80917 8.44,9.85274 11,16 9.5772,24.98433 9.5895,50.44069 -1.0771,75.04492 -10.1761,21.55808 -27.7977,35.21238 -47.2979,47.83008 -1.5522,1.0111 -3.1039,2.0228 -4.6553,3.0352 -3.1445,2.0508 -6.2911,4.0985 -9.4394,6.1435 -4.1602,2.7035 -8.3122,5.4192 -12.46,8.1416 -0.6174,0.4052 -1.2348,0.8104 -1.8709,1.2279 -1.2176,0.7993 -2.4353,1.5986 -3.6529,2.398 -9.9962,6.5594 -20.0082,13.0945 -30.0248,19.6227 -10.4241,6.794 -20.8367,13.6055 -31.2497,20.4165 -3.1905,2.0863 -6.3815,4.1717 -9.5728,6.2568 -10.995,7.1845 -21.9848,14.3768 -32.9661,21.5821 -1.98,1.2987 -3.9607,2.5965 -5.9413,3.8942 -6.8507,4.491 -13.6902,8.998 -20.5115,13.5335 -3.5041,2.3292 -7.0116,4.6533 -10.5192,6.9773 -1.7097,1.1348 -3.4178,2.2722 -5.1243,3.4121 -2.3814,1.5905 -4.7682,3.1727 -7.1563,4.7531 -0.7141,0.4802 -1.4282,0.9604 -2.164,1.4551 -4.975,3.2754 -4.975,3.2754 -8.3165,3.2754 -0.4388,-19.686 -0.7134,-38.7365 4,-58 0.1766,-0.753 0.3532,-1.5059 0.5352,-2.2817 8.8806,-36.8959 32.8494,-70.5391 62.4648,-93.7183 0.6297,-0.4955 1.2594,-0.991 1.9082,-1.50146 9.7432,-7.64238 19.6915,-14.78313 30.0918,-21.49854 1.2789,-0.83291 2.5576,-1.66625 3.8359,-2.5 9.5122,-6.18987 19.0791,-12.29519 28.6441,-18.40283 15.9633,-10.19975 31.8268,-20.54885 47.645,-30.97217 0.9494,-0.62531 1.8987,-1.25061 2.8768,-1.89487 C 1204.0995,912.96364 1221.0946,901.55279 1238,890 Z"
     fill="#0e3e63"
     id="path5" />
  <path
     d="m 984.33594,1283.6797 c 13.00189,11.326 22.51696,25.8985 24.66406,43.3203 0,3.3 0,6.6 0,10 -15.51,0 -31.02,0 -47,0 -0.99,-3.3 -1.98,-6.6 -3,-10 -4.73749,-9.5294 -11.32442,-14.8228 -21.2539,-18.2383 -12.17287,-3.3765 -26.29043,-3.3772 -37.7461,2.2383 -5.76198,3.4648 -10.37538,7.5071 -13.25,13.6875 -1.56939,6.9315 -1.69115,13.2269 1.9336,19.5039 9.76979,13.4226 29.07463,16.6517 44.3789,19.6211 17.47254,3.4644 34.43565,9.3927 49.9375,18.1875 0.86496,0.4899 1.72992,0.9797 2.6211,1.4844 13.43515,8.2893 22.3125,20.837 26.8789,35.7656 4.1721,18.0728 1.0885,35.6133 -7.6523,51.9102 C 992.08067,1490.783 971.17488,1500.8413 949,1506 c -18.11415,3.8093 -38.05091,3.5218 -56,-1 -0.99604,-0.2494 -0.99604,-0.2494 -2.01221,-0.5039 -21.31048,-5.5552 -42.39377,-16.4552 -53.95263,-35.7812 C 830.08546,1455.6823 828,1444.8378 828,1430 c 15.51,0 31.02,0 47,0 1.98,5.28 3.96,10.56 6,16 6.20706,9.98 14.98193,14.511 26,18 14.26024,2.4451 30.30569,2.2553 42.9961,-5.4805 5.07877,-3.8511 9.05777,-8.4005 11.0039,-14.5195 0.85958,-6.3807 1.0026,-12.3247 -2.4375,-17.9375 -12.34124,-15.6189 -36.89491,-18.4138 -55.1499,-23.1723 C 886.22653,1398.4074 869.06928,1393.3096 855,1382 c -0.62906,-0.4563 -1.25812,-0.9126 -1.90625,-1.3828 C 844.90927,1374.3353 840.18915,1364.6128 837,1355 c -0.5356,-1.5063 -0.5356,-1.5063 -1.08203,-3.043 -4.378,-15.7151 -1.34562,-34.3974 5.76953,-48.707 10.58603,-18.0679 28.83495,-29.4248 48.52735,-35.1914 30.46708,-7.9529 69.15611,-5.097 94.12109,15.6211 z"
     fill="#0a3a60"
     id="path6" />
  <path
     d="m 1023,886 c 0.3283,15.14263 0.5745,30.2851 0.7254,45.4305 0.072,7.03398 0.1698,14.06575 0.3308,21.09831 0.1554,6.79535 0.2359,13.58841 0.2721,20.38543 0.026,2.58451 0.076,5.1689 0.1519,7.75242 0.6307,22.36304 0.6307,22.36304 -6.3406,29.93574 -2.3716,2.212 -4.8269,4.2124 -7.4475,6.1211 -2.4688,1.8624 -4.5561,4.0479 -6.6921,6.2765 -0.923,0.8998 -1.8459,1.7995 -2.7969,2.7266 -6.56096,6.4152 -12.54174,13.0369 -18.2031,20.2734 -1.05792,1.3183 -2.11657,2.6359 -3.17578,3.9531 -12.29653,15.4111 -23.44789,31.6185 -32.73682,49.0249 -1.14605,2.1311 -2.32434,4.2422 -3.50537,6.354 -8.33224,15.1096 -15.34534,31.161 -19.98852,47.8025 C 923,1155 923,1155 922,1156 c -2.89143,0.095 -5.75892,0.1255 -8.65063,0.1135 -1.36085,2e-4 -1.36085,2e-4 -2.74918,5e-4 -3.01389,-7e-4 -6.02772,-0.01 -9.0416,-0.016 -2.08365,-0 -4.1673,-0 -6.25096,-0 -5.49586,-0 -10.99171,-0.014 -16.48756,-0.025 -5.60343,-0.01 -11.20687,-0.015 -16.8103,-0.02 -11.00327,-0.011 -22.00652,-0.028 -33.00977,-0.049 0.29946,-2.3684 0.60333,-4.7361 0.90967,-7.1035 0.0833,-0.6623 0.16656,-1.3246 0.25236,-2.0069 0.81954,-6.2853 2.25964,-12.2938 3.96297,-18.3896 0.30712,-1.1117 0.61424,-2.2233 0.93066,-3.3687 18.87668,-67.0208 58.58627,-126.10602 107.58863,-174.90599 1.5566,-1.55119 3.10771,-3.10773 4.65844,-4.66479 C 952.69541,940.16391 958.16732,934.92405 964,930 c 1.04451,-0.90076 2.0888,-1.80179 3.13281,-2.70313 C 974.93313,920.65744 982.87823,914.24193 991,908 c 0.63841,-0.49145 1.27682,-0.98291 1.93457,-1.48926 C 1019.6711,886 1019.6711,886 1023,886 Z"
     fill="#6bb0e9"
     id="path7" />
  <path
     d="m 1027,479 c 4.1133,41.72103 -3.2439,85.82082 -29,120 -2.87327,3.46408 -5.88833,6.74991 -9,10 -0.6007,0.66387 -1.20141,1.32773 -1.82031,2.01172 -3.88471,4.14537 -8.1701,7.60192 -12.75,10.94531 -0.65096,0.47581 -1.30191,0.95161 -1.9726,1.44183 -8.38044,6.0653 -17.04752,11.69593 -25.70709,17.35114 -1.81821,1.19182 -3.63616,2.38405 -5.45386,3.57666 -3.68186,2.41495 -7.36507,4.82783 -11.04956,7.23877 -6.8301,4.46982 -13.6512,8.95331 -20.47183,13.43756 -2.09868,1.37952 -4.19777,2.75842 -6.29697,4.13715 -8.17976,5.37297 -16.35432,10.7538 -24.52465,16.14111 -0.94665,0.62419 -1.89329,1.24838 -2.86861,1.89148 -3.83286,2.52743 -7.66565,5.05496 -11.49819,7.58289 -17.99846,11.87104 -17.99846,11.87104 -26.80899,17.61938 -0.60733,0.39632 -1.21467,0.79263 -1.8404,1.20096 -2.6823,1.74951 -5.36618,3.4965 -8.05242,5.23996 -5.3721,3.49672 -10.62356,7.10261 -15.78638,10.90332 C 810,731 810,731 807,731 c -12.41012,-24.00695 -19.10274,-49.13008 -11.31641,-76.01563 10.80889,-33.81199 37.28838,-51.96589 66.2417,-69.90649 0.97341,-0.6032 1.94681,-1.2064 2.94971,-1.82788 1.00176,-0.6206 2.00353,-1.24121 3.03564,-1.88062 8.96417,-5.59038 17.7534,-11.42337 26.52686,-17.30688 12.86986,-8.63003 25.83641,-17.07316 38.91894,-25.37842 3.85429,-2.45538 7.68718,-4.94318 11.51856,-7.43408 4.86997,-3.16473 9.76435,-6.28482 14.68823,-9.36499 8.59601,-5.38238 17.07085,-10.93222 25.49927,-16.57251 8.90448,-5.956 17.8111,-11.90808 26.7624,-17.79361 1.1533,-0.7592 2.3054,-1.52007 3.4564,-2.28265 1.5921,-1.05447 3.1885,-2.10255 4.7851,-3.1503 0.9069,-0.59764 1.8139,-1.19529 2.7483,-1.81104 C 1025,479 1025,479 1027,479 Z"
     fill="#6ab0e8"
     id="path8" />
  <path
     d="m 1604.875,1324.75 c 1.5836,0.012 1.5836,0.012 3.1992,0.025 22.726,0.3258 41.5817,7.1576 57.9258,23.2251 0.9417,0.9223 0.9417,0.9223 1.9023,1.8633 9.2806,9.8277 14.6017,22.2518 18.0977,35.1367 0.3197,1.1614 0.6394,2.3229 0.9688,3.5195 3.1677,13.7708 2.0312,25.7042 2.0312,40.4805 -40.26,0 -80.52,0 -122,0 1.5746,10.4897 1.5746,10.4897 5.375,19.4375 0.8779,1.6996 0.8779,1.6996 1.7734,3.4336 5.2318,8.8409 12.9599,14.0435 22.8946,16.6562 12.6924,2.0288 25.4283,1.157 36.332,-6.2148 3.0087,-2.3935 4.5838,-4.8425 6.4375,-8.1875 1.3733,-2.1963 1.3733,-2.1963 3.1875,-4.125 2.2715,-0.4534 2.2715,-0.4534 4.9063,-0.3477 0.9775,0.037 1.955,0.075 2.9621,0.1133 5.2968,0.3965 10.5525,0.9861 15.8191,1.6719 1.6136,0.2021 1.6136,0.2021 3.2598,0.4082 3.0183,0.3789 6.0355,0.766 9.0527,1.1543 2.6664,0.3355 5.3332,0.6679 8,1 -2.6699,16.0192 -12.1353,28.9595 -24.7773,38.8633 -9.0743,6.0165 -19.6007,10.7093 -30.2227,13.1367 -0.7502,0.2024 -1.5005,0.4048 -2.2734,0.6133 -23.2972,5.4017 -50.6678,0.806 -71.211,-11.0274 -19.4359,-12.2531 -31.7184,-30.4856 -37.5156,-52.5859 -3.9904,-18.8703 -3.8793,-39.5515 2,-58 0.3738,-1.1743 0.7477,-2.3487 1.1328,-3.5586 7.4429,-20.9238 21.9122,-38.4265 41.8672,-48.4414 2.6748,-1.2197 5.3799,-2.3239 8.125,-3.375 0.6202,-0.2387 1.2404,-0.4774 1.8794,-0.7234 9.4286,-3.3883 18.9113,-4.2461 28.8706,-4.1516 z"
     fill="#0b3b61"
     id="path9" />
  <path
     d="m 361,1269 c 137.00692,0 137.00692,0 156.71094,18.6406 11.11023,11.4515 17.17572,25.3249 17.78906,41.3594 -0.46799,11.4502 -3.58913,22.7801 -10.5,32 -0.55172,0.767 -1.10344,1.534 -1.67188,2.3242 -6.54024,8.2312 -15.94292,14.0733 -26.32812,15.6758 -0.33,0.66 -0.66,1.32 -1,2 0,-2.31 0,-4.62 0,-7 -0.66,0 -1.32,0 -2,0 0,2.64 0,5.28 0,8 1.32,0.33 2.64,0.66 4,1 0,0.99 0,1.98 0,3 1.32,0 2.64,0 4,0 0.99,2.97 1.98,5.94 3,9 -0.99,0.33 -1.98,0.66 -3,1 0,1.98 0,3.96 0,6 0.99,0.33 1.98,0.66 3,1 0,0.99 0,1.98 0,3 -0.66,0.66 -1.32,1.32 -2,2 -0.64252,2.0687 -0.64252,2.0687 -1,4 -0.66,0 -1.32,0 -2,0 -0.33,0.66 -0.66,1.32 -1,2 -0.66,-0.99 -1.32,-1.98 -2,-3 -4.455,0.99 -4.455,0.99 -9,2 0,0.99 0,1.98 0,3 1.65,0.33 3.3,0.66 5,1 -0.99,0.33 -1.98,0.66 -3,1 0.15855,0.9823 0.31711,1.9645 0.48047,2.9766 1.42798,10.0897 2.28106,21.1904 -3.48047,30.0234 -0.55688,0.9075 -1.11375,1.815 -1.6875,2.75 -8.64988,8.4161 -20.81506,10.5936 -32.48975,10.5895 -1.03979,-0.015 -2.07958,-0.031 -3.15088,-0.047 -0.99048,-0 -1.98096,-0.01 -3.00146,-0.01 -3.64025,-0.016 -7.28034,-0.057 -10.92041,-0.096 -8.1675,-0.062 -16.335,-0.1239 -24.75,-0.1877 0,-20.79 0,-41.58 0,-63 21.75,-0.3125 21.75,-0.3125 28.60059,-0.3879 1.79461,-0.032 3.58921,-0.066 5.38378,-0.1004 1.39437,-0.01 1.39437,-0.01 2.8169,-0.019 0.89284,-0.02 1.78567,-0.04 2.70557,-0.06 0.77277,-0.011 1.54554,-0.022 2.34173,-0.034 2.6751,-0.4958 4.10791,-1.6479 6.15143,-3.3988 -0.33,-0.99 -0.66,-1.98 -1,-3 0.99,-0.66 1.98,-1.32 3,-2 -0.66,-1.65 -1.32,-3.3 -2,-5 -0.99,0 -1.98,0 -3,0 0.66,-1.65 1.32,-3.3 2,-5 0.66,0 1.32,0 2,0 -0.66,-0.99 -1.32,-1.98 -2,-3 0,-0.99 0,-1.98 0,-3 -0.66,0 -1.32,0 -2,0 0,-0.66 0,-1.32 0,-2 0.99,-0.33 1.98,-0.66 3,-1 1.2187,-2.5045 1.2187,-2.5045 2,-5 0.66,0 1.32,0 2,0 0.495,-1.485 0.495,-1.485 1,-3 -0.85151,0.072 -1.70301,0.1429 -2.58032,0.2166 -10.79951,0.8217 -21.53036,0.8993 -32.35718,0.8459 -5.96063,-0.021 -11.92125,-0.041 -18.0625,-0.062 0,-19.14 0,-38.28 0,-58 -0.66,0 -1.32,0 -2,0 0.0206,1.1344 0.0412,2.2688 0.0625,3.4375 C 409,1315 409,1315 408,1316 c -1.66617,0.041 -3.33388,0.043 -5,0 -0.495,-1.98 -0.495,-1.98 -1,-4 -1.65,-0.33 -3.3,-0.66 -5,-1 -0.33,1.32 -0.66,2.64 -1,4 -3.43515,0.6246 -6.49065,1 -10,1 0,-0.66 0,-1.32 0,-2 1.32,0 2.64,0 4,0 0,-1.32 0,-2.64 0,-4 -1.92023,-1.7741 -1.92023,-1.7741 -4,-3 0.33,-1.65 0.66,-3.3 1,-5 -0.99,0 -1.98,0 -3,0 -0.66,-0.66 -1.32,-1.32 -2,-2 -0.99,-0.66 -1.98,-1.32 -3,-2 0,-1.32 0,-2.64 0,-4 -0.99,0 -1.98,0 -3,0 0,-0.66 0,-1.32 0,-2 -0.61875,0.2063 -1.2375,0.4125 -1.875,0.625 -0.70125,0.1238 -1.4025,0.2475 -2.125,0.375 -0.66,-0.66 -1.32,-1.32 -2,-2 1.3125,-2 1.3125,-2 3,-4 0.99,0 1.98,0 3,0 0,-0.66 0,-1.32 0,-2 0.7425,-0.1237 1.485,-0.2475 2.25,-0.375 2.55142,-0.5799 4.47676,-1.3621 6.75,-2.625 0,-0.66 0,-1.32 0,-2 2.475,0.495 2.475,0.495 5,1 0,0.99 0,1.98 0,3 0.99,-0.33 1.98,-0.66 3,-1 0,-1.32 0,-2.64 0,-4 -0.99,-0.33 -1.98,-0.66 -3,-1 0.33,-0.66 0.66,-1.32 1,-2 0.99,0 1.98,0 3,0 -0.495,-1.98 -0.495,-1.98 -1,-4 -14.85,-0.495 -14.85,-0.495 -30,-1 0,76.23 0,152.46 0,231 37.95,0 75.9,0 115,0 -0.33,0.66 -0.66,1.32 -1,2 -38.28,0 -76.56,0 -116,0 0,-77.55 0,-155.1 0,-235 z m 30,3 c 0.99,0.495 0.99,0.495 2,1 -0.99,0.495 -0.99,0.495 -2,1 0,-0.66 0,-1.32 0,-2 z"
     fill="#0a3a60"
     id="path10" />
  <path
     d="m 1466.5742,1335.1328 c 15.0027,11.548 21.2698,28.1315 24.0019,46.3526 0.6412,5.3168 0.687,10.5649 0.6509,15.9142 3e-4,1.1626 6e-4,2.3252 9e-4,3.523 -0,3.7928 -0.017,7.5854 -0.033,11.3782 -0,2.6494 -0.01,5.2988 -0.01,7.9483 -0.01,6.2292 -0.023,12.4584 -0.043,18.6877 -0.023,7.1005 -0.033,14.201 -0.043,21.3016 -0.021,14.5872 -0.057,29.1744 -0.1006,43.7616 -16.17,0 -32.34,0 -49,0 -0.026,-7.9574 -0.052,-15.9148 -0.078,-24.1133 -0.025,-5.0541 -0.052,-10.1081 -0.082,-15.1621 -0.048,-8.0144 -0.092,-16.0287 -0.1108,-24.0432 -0.015,-6.4646 -0.05,-12.9289 -0.097,-19.3934 -0.015,-2.461 -0.023,-4.922 -0.024,-7.383 -0,-3.4587 -0.03,-6.9165 -0.062,-10.375 0,-1.0077 0.01,-2.0155 0.015,-3.0537 -0.157,-10.8061 -3.5241,-20.4393 -11.2487,-28.1638 -7.9293,-6.0844 -17.6709,-6.4112 -27.3125,-5.3125 -8.6675,2.7318 -14.2501,8.1465 -18.8671,15.8125 -1.8544,3.5807 -3.0545,7.3114 -4.1329,11.1875 -0.1736,0.6099 -0.3473,1.2199 -0.5262,1.8483 -0.5022,2.2809 -0.6126,4.3226 -0.632,6.6569 -0.01,0.8974 -0.019,1.7948 -0.03,2.7194 -0.01,0.9768 -0.012,1.9536 -0.018,2.96 -0.01,1.0344 -0.02,2.0689 -0.03,3.1347 -0.032,3.4196 -0.056,6.8392 -0.081,10.2588 -0.021,2.3708 -0.042,4.7417 -0.063,7.1125 -0.055,6.2405 -0.1046,12.4811 -0.1529,18.7216 -0.059,7.4874 -0.1253,14.9747 -0.1903,22.4621 -0.098,11.3752 -0.1868,22.7504 -0.2775,34.1257 -16.17,0 -32.34,0 -49,0 0,-58.41 0,-116.82 0,-177 15.18,0 30.36,0 46,0 0.33,9.24 0.66,18.48 1,28 2.31,-3.3 4.62,-6.6 7,-10 18.7515,-25.1439 59.0679,-26.7857 83.5743,-9.8672 z"
     fill="#0c3c61"
     id="path11" />
  <path
     d="m 1180,1336 c 3.633,2.7451 6.8241,5.743 10,9 0.758,0.7257 1.5159,1.4515 2.2969,2.1992 17.5496,17.822 23.1111,43.6286 23.0781,67.8008 -5e-4,0.6771 -0,1.3542 -0,2.0518 -0.095,25.8898 -6.6045,52.1571 -25.2913,71.1201 -14.8257,14.1397 -34.0782,19.5437 -54.125,19.1406 -15.8396,-0.7218 -29.292,-8.9995 -39.9571,-20.3125 -2.475,-3.465 -2.475,-3.465 -5,-7 -0.33,29.7 -0.66,59.4 -1,90 -15.84,0 -31.68,0 -48,0 0,-79.86 0,-159.72 0,-242 15.84,0 31.68,0 48,0 0,7.92 0,15.84 0,24 -0.33,0 -0.66,0 -1,0 0,-7.59 0,-15.18 0,-23 -15.18,0 -30.36,0 -46,0 0.33,31.02 0.66,62.04 1,94 1.98,-0.99 1.98,-0.99 4,-2 0,0.66 0,1.32 0,2 0.99,0 1.98,0 3,0 0,-0.99 0,-1.98 0,-3 0.9591,-0.4022 0.9591,-0.4022 1.9375,-0.8125 2.3938,-1.0742 2.3938,-1.0742 3.0625,-4.1875 2.97,-0.495 2.97,-0.495 6,-1 0,0.99 0,1.98 0,3 0.8044,0.2269 1.6088,0.4538 2.4375,0.6875 0.8456,0.4331 1.6913,0.8663 2.5625,1.3125 0.8125,2.625 0.8125,2.625 1,5 0.66,0 1.32,0 2,0 0,1.65 0,3.3 0,5 -0.66,-0.33 -1.32,-0.66 -2,-1 0,-0.66 0,-1.32 0,-2 -0.99,0 -1.98,0 -3,0 -0.33,0.99 -0.66,1.98 -1,3 -0.99,0 -1.98,0 -3,0 0.33,0.99 0.66,1.98 1,3 0.66,0.33 1.32,0.66 2,1 0,1.32 0,2.64 0,4 -0.495,0.4538 -0.99,0.9075 -1.5,1.375 -1.8393,1.6481 -1.8393,1.6481 -1.6875,4.8125 0.062,0.9281 0.1238,1.8563 0.1875,2.8125 0.99,0 1.98,0 3,0 0,-0.66 0,-1.32 0,-2 0.66,0 1.32,0 2,0 0,1.32 0,2.64 0,4 0.66,0 1.32,0 2,0 0.2681,-0.6187 0.5363,-1.2375 0.8125,-1.875 C 1070,1444 1070,1444 1073,1442 c 1.32,0 2.64,0 4,0 0,-0.99 0,-1.98 0,-3 -0.99,-0.33 -1.98,-0.66 -3,-1 0.66,-0.66 1.32,-1.32 2,-2 0,0.66 0,1.32 0,2 0.7013,-0.4331 1.4025,-0.8662 2.125,-1.3125 2.9006,-1.7025 5.8537,-3.212 8.875,-4.6875 0,-1.32 0,-2.64 0,-4 3.5116,1.4046 4.5249,2.5661 6,6 0.6028,1.8688 1.1844,3.7446 1.75,5.625 3.4996,10.5503 8.15,18.1242 18.1406,23.3672 8.7395,3.9897 18.7514,4.4137 27.8594,1.4453 9.0908,-3.7802 13.6605,-9.2338 17.9258,-17.9844 3.6376,-9.4857 4.8079,-18.1548 4.7153,-28.2956 -0.016,-2.089 -10e-5,-4.176 0.019,-6.2649 0.022,-13.2484 -1.9796,-26.5027 -11.0743,-36.7715 -6.9044,-6.2897 -14.1566,-8.6943 -23.3359,-9.3711 -0.8701,-0.077 -1.7402,-0.1547 -2.6367,-0.2344 -2.1199,-0.1863 -4.2415,-0.353 -6.3633,-0.5156 0.66,-3.63 1.32,-7.26 2,-11 -1.32,-0.33 -2.64,-0.66 -4,-1 -0.054,-1.5829 -0.093,-3.1664 -0.125,-4.75 -0.023,-0.8817 -0.046,-1.7634 -0.07,-2.6719 0.2039,-2.6917 0.8298,-4.2771 2.1953,-6.5781 -0.66,0 -1.32,0 -2,0 0,-0.66 0,-1.32 0,-2 -2.8884,-1.1109 -3.9866,-1.0045 -7,0 -3.1335,1.0445 -3.9897,0.9342 -7,0 7.6461,-5.4549 14.912,-8.6812 24,-11 0.6358,-0.1751 1.2717,-0.3501 1.9268,-0.5305 17.0698,-3.8655 35.5923,1.6381 50.0732,10.5305 z"
     fill="#093960"
     id="path12" />
  <path
     d="m 656,1327 c 47.52,0 95.04,0 144,0 0,31.6909 0,31.6909 -14.375,49.875 -0.93493,1.1849 -1.86983,2.3698 -2.80469,3.5547 -0.46632,0.5901 -0.93263,1.1801 -1.41308,1.7881 -2.30799,2.923 -4.60722,5.8529 -6.90723,8.7822 -0.91662,1.1667 -1.83329,2.3334 -2.75,3.5 -0.45375,0.5775 -0.9075,1.155 -1.375,1.75 -4.125,5.25 -4.125,5.25 -5.49927,6.999 -0.91916,1.1699 -1.83827,2.3398 -2.75732,3.5098 -2.25297,2.8679 -4.50685,5.7351 -6.76294,8.6006 -5.73983,7.2929 -11.44728,14.6104 -17.14136,21.9392 -3.76777,4.8474 -7.54577,9.6865 -11.33911,14.5139 -0.43699,0.5562 -0.87398,1.1125 -1.32422,1.6856 -2.50165,3.18 -5.02311,6.3423 -7.55078,9.5019 41.58,0.495 41.58,0.495 84,1 0,13.2 0,26.4 0,40 -48.51,0 -97.02,0 -147,0 0,-31 0,-31 5.875,-40.125 3.61719,-3.6016 3.61719,-3.6016 5.43262,-5.2588 2.57492,-2.459 4.6023,-5.2459 6.69238,-8.1162 4.2812,-5.6156 8.71343,-11.0927 13.18359,-16.5586 3.34248,-4.0975 6.61046,-8.2362 9.81641,-12.4414 4.26208,-5.5884 8.66639,-11.0463 13.11328,-16.4883 3.96049,-4.853 7.84812,-9.7569 11.70044,-14.696 4.26541,-5.4529 8.63936,-10.8158 13.03589,-16.1634 0.52658,-0.6432 1.05316,-1.2864 1.5957,-1.9492 0.46938,-0.5707 0.93876,-1.1414 1.42237,-1.7295 1.22087,-1.4921 1.22087,-1.4921 2.13232,-3.4736 -27.39,0 -54.78,0 -83,0 0,-13.2 0,-26.4 0,-40 z"
     fill="#0b3b61"
     id="path13" />
  <path
     d="m 1041,1327 c 16.5,0 33,0 50,0 0.495,11.385 0.495,11.385 1,23 2.1656,-2.4131 2.1656,-2.4131 4.375,-4.875 6.5902,-7.3434 6.5902,-7.3434 12.5,-8.875 1.0493,-0.2836 2.0986,-0.5672 3.1797,-0.8594 3.1703,-0.4204 4.3308,-0.1336 6.9453,1.6094 -0.33,0.66 -0.66,1.32 -1,2 0.66,0 1.32,0 2,0 0,0.66 0,1.32 0,2 0.99,0.495 0.99,0.495 2,1 -0.99,0.33 -1.98,0.66 -3,1 -0.33,3.3 -0.66,6.6 -1,10 1.98,0.495 1.98,0.495 4,1 0.167,4.3426 0.13,7.2096 -2,11 0.8456,-0.023 1.6913,-0.046 2.5625,-0.07 12.0944,-0.1924 20.836,1.4459 30.2305,9.6328 10.606,11.3422 11.6492,26.3003 11.6445,41 0,1.0686 0,1.0686 0,2.1587 -0.034,15.6259 -2.1906,28.9569 -12.9915,41.0093 -6.1652,5.9592 -14.0536,8.457 -22.5117,8.707 -10.2957,-0.4124 -19.4931,-3.6899 -26.6914,-11.2891 -5.4826,-6.8978 -8.3187,-14.585 -10.3399,-23.082 -0.7502,-2.2446 -0.7502,-2.2446 -3,-3.3516 -0.6288,-0.2358 -1.2579,-0.4717 -1.906,-0.7148 -0.33,0.66 -0.66,1.32 -1,2 0.99,0.495 0.99,0.495 2,1 -0.99,0.33 -1.98,0.66 -3,1 -0.33,0.66 -0.66,1.32 -1,2 -2.8986,1.7599 -5.6728,2.4455 -9,3 0.99,0.495 0.99,0.495 2,1 0,0.99 0,1.98 0,3 -2,2 -2,2 -4.625,2.125 -0.7837,-0.041 -1.5675,-0.082 -2.375,-0.125 -0.33,1.65 -0.66,3.3 -1,5 -1.485,-0.495 -1.485,-0.495 -3,-1 0,-1.32 0,-2.64 0,-4 -0.66,0 -1.32,0 -2,0 0,0.66 0,1.32 0,2 -1.485,0.495 -1.485,0.495 -3,1 -1.238,-3.5764 -0.7493,-6.3369 0,-10 0.99,0 1.98,0 3,0 0,-1.32 0,-2.64 0,-4 -1.485,-0.495 -1.485,-0.495 -3,-1 0,-0.99 0,-1.98 0,-3 0.66,0 1.32,0 2,0 0.33,-0.66 0.66,-1.32 1,-2 2.0625,-0.625 2.0625,-0.625 4,-1 0.495,0.99 0.495,0.99 1,2 0.33,-1.32 0.66,-2.64 1,-4 -0.66,0 -1.32,0 -2,0 -0.2475,-0.5981 -0.495,-1.1962 -0.75,-1.8125 -1.1298,-2.3204 -1.1298,-2.3204 -3.375,-3.75 -0.6187,-0.4744 -1.2375,-0.9487 -1.875,-1.4375 0,-0.99 0,-1.98 0,-3 -2.97,0.495 -2.97,0.495 -6,1 -0.33,1.32 -0.66,2.64 -1,4 -1.98,0.495 -1.98,0.495 -4,1 0,0.99 0,1.98 0,3 -0.8972,-0.2784 -0.8972,-0.2784 -1.8125,-0.5625 -2.3516,-0.6584 -2.3516,-0.6584 -5.1875,0.5625 0,3.3 0,6.6 0,10 -0.33,0 -0.66,0 -1,0 0,-34.32 0,-68.64 0,-104 15.18,0 30.36,0 46,0 0.33,-0.33 0.66,-0.66 1,-1 -15.84,0 -31.68,0 -48,0 0,79.86 0,159.72 0,242 -0.33,0 -0.66,0 -1,0 0,-80.19 0,-160.38 0,-243 z"
     fill="#0d3c63"
     id="path14" />
  <path
     d="m 911,814 c 2.77881,1.26831 2.77881,1.26831 5.64844,2.88672 1.61286,0.90214 1.61286,0.90214 3.2583,1.82251 1.14453,0.65283 2.28905,1.30566 3.46826,1.97827 1.20914,0.6815 2.41862,1.3624 3.62842,2.04272 8.73849,4.92796 17.40936,9.97251 26.05664,15.0586 7.25586,4.26013 14.58257,8.3793 21.93994,12.46118 9.52997,5.2923 18.84736,10.83011 28,16.75 -2.8888,2.28066 -5.92737,4.20572 -9.07544,6.10767 -18.05066,10.94483 -34.686,23.97796 -50.1394,38.32592 -2.31163,2.13007 -4.65129,4.20593 -7.03516,6.25391 -7.26381,5.9295 -7.26381,5.9295 -12.75,13.3125 -5.58826,-1.55429 -10.17193,-4.26415 -15.125,-7.1875 -8.03813,-4.673 -16.15984,-9.16269 -24.36707,-13.52954 -1.81647,-0.96835 -3.62989,-1.94218 -5.4425,-2.91773 -5.03097,-2.70414 -10.06225,-5.38787 -15.19434,-7.89648 -7.40333,-3.6931 -12.92101,-7.08832 -16.07031,-15.17188 -2.60417,-10.72158 -1.44602,-19.33804 3.96094,-28.94921 10.37498,-16.13316 26.98698,-26.21335 43.02978,-35.96729 1.47507,-0.92196 2.92617,-1.88341 4.35059,-2.88183 0.67885,-0.46745 1.3577,-0.9349 2.05713,-1.41651 0.58999,-0.42434 1.17997,-0.84869 1.78784,-1.28589 2.98407,-1.18023 4.94006,-0.5956 8.01294,0.20386 z"
     fill="#0e3d62"
     id="path15" />
  <path
     d="m 1125,687 c 3.5443,1.34456 6.808,2.91228 10.1133,4.76562 0.9891,0.55358 1.9782,1.10715 2.9973,1.6775 1.0566,0.59627 2.1133,1.19254 3.2019,1.80688 1.6478,0.92631 1.6478,0.92631 3.3289,1.87134 10.5733,5.96309 21.0744,12.05035 31.5251,18.22583 2.0425,1.19144 4.0987,2.35956 6.1631,3.51269 1.0913,0.61473 2.1827,1.22945 3.3071,1.8628 1.0012,0.55566 2.0024,1.11133 3.034,1.68383 C 1191,724 1191,724 1192,727 c 0.99,0.33 1.98,0.66 3,1 1.5703,2.17969 1.5703,2.17969 3.125,4.875 0.5182,0.8843 1.0364,1.76859 1.5703,2.67969 3.0219,5.6637 3.044,11.17204 1.6563,17.3164 -6.1668,20.26605 -20.6594,30.50787 -37.7041,41.42627 -2.4675,1.58688 -4.9149,3.20043 -7.3584,4.82373 -1.4081,0.91918 -2.8169,1.83722 -4.2266,2.75391 -0.6311,0.42273 -1.2622,0.84546 -1.9124,1.28101 -3.9641,2.52626 -6.4952,3.25512 -11.1501,2.84399 -2.6394,-1.12305 -2.6394,-1.12305 -5.3242,-2.71875 -1.0145,-0.59426 -2.029,-1.18852 -3.0742,-1.80078 -1.0854,-0.65356 -2.1708,-1.30711 -3.2891,-1.98047 -1.1543,-0.68216 -2.3092,-1.36313 -3.4648,-2.04297 -3.0241,-1.7831 -6.0387,-3.58138 -9.0513,-5.38379 -2.8611,-1.7093 -5.7293,-3.4065 -8.5972,-5.10449 -3.3519,-1.985 -6.7031,-3.97107 -10.0513,-5.9624 -9.087,-5.40054 -18.2284,-10.70048 -27.3979,-15.95948 -2.9202,-1.67621 -5.8354,-3.36084 -8.75,-5.04687 -0.9782,-0.55784 -1.9565,-1.11568 -2.9644,-1.69043 -0.9179,-0.5327 -1.8359,-1.06541 -2.7817,-1.61426 -1.2306,-0.70745 -1.2306,-0.70745 -2.4861,-1.4292 -0.875,-0.62672 -0.875,-0.62672 -1.7678,-1.26611 0,-0.66 0,-1.32 0,-2 2.3023,-1.68082 4.6153,-3.25598 7,-4.8125 8.1477,-5.45249 15.7071,-11.45111 23.2324,-17.72412 2.4166,-2.00065 4.8772,-3.94509 7.3301,-5.90088 C 1100.8952,712.63211 1114.1052,700.37273 1125,687 Z"
     fill="#0d3d62"
     id="path16" />
  <path
     d="m 1245,1327 c 15.84,0 31.68,0 48,0 0,58.41 0,116.82 0,177 -15.84,0 -31.68,0 -48,0 0,-58.41 0,-116.82 0,-177 z"
     fill="#0b3a60"
     id="path17" />
  <path
     d="m 572,1327 c 15.84,0 31.68,0 48,0 0,58.41 0,116.82 0,177 -15.84,0 -31.68,0 -48,0 0,-58.41 0,-116.82 0,-177 z"
     fill="#0c3c62"
     id="path18" />
  <path
     d="m 1148.6758,1371.3125 c 8.5068,6.1763 12.8156,15.7981 14.9272,25.9121 0.869,6.0752 0.8365,12.2122 0.8345,18.3379 0,1.0686 0,1.0686 0,2.1587 -0.034,15.6259 -2.1905,28.9569 -12.9915,41.0093 -6.1652,5.9592 -14.0536,8.457 -22.5117,8.707 -10.2957,-0.4124 -19.493,-3.6899 -26.6914,-11.2891 -8.8087,-11.0825 -11.8085,-24.5649 -11.6211,-38.4609 0.011,-1.0987 0.022,-2.1974 0.033,-3.3293 0.2981,-15.2223 3.1645,-30.9243 14.592,-41.9832 13.1462,-10.3657 29.7385,-9.7821 43.4258,-1.0625 z"
     fill="#fbfcfc"
     id="path19" />
  <path
     d="m 1567,1439 c 3.229,3.9956 5.2124,8.408 7.4023,13.0273 4.4685,8.3142 11.4181,12.6796 20.1602,15.8477 12.2588,3.224 25.6708,2.0219 36.7383,-4.1602 4.0184,-2.7167 6.1662,-5.3573 8.5117,-9.5898 1.3733,-2.1963 1.3733,-2.1963 3.1875,-4.125 2.2715,-0.4534 2.2715,-0.4534 4.9063,-0.3477 0.9775,0.037 1.955,0.075 2.9621,0.1133 5.2968,0.3965 10.5525,0.9861 15.8191,1.6719 1.0757,0.1347 2.1515,0.2694 3.2598,0.4082 3.0183,0.3789 6.0355,0.766 9.0527,1.1543 2.6664,0.3355 5.3332,0.6679 8,1 -2.6699,16.0192 -12.1353,28.9595 -24.7773,38.8633 -9.0743,6.0165 -19.6007,10.7093 -30.2227,13.1367 -0.7502,0.2024 -1.5005,0.4048 -2.2734,0.6133 -24.3993,5.6572 -52.6295,0.3948 -73.7266,-12.6133 -4.0094,-2.7337 -6.9652,-6.0963 -10.082,-9.7773 -1.3538,-1.5689 -2.7519,-3.0999 -4.1797,-4.6016 -0.7387,-0.7825 -1.4773,-1.5649 -2.2383,-2.3711 -0.6909,-0.7167 -1.3819,-1.4334 -2.0937,-2.1719 C 1536,1473 1536,1473 1536.1016,1470.7852 c 0.2964,-0.5891 0.5929,-1.1782 0.8984,-1.7852 0.9488,-0.2681 1.8975,-0.5363 2.875,-0.8125 3.4637,-0.9125 3.4637,-0.9125 4.8125,-4.5625 0.6497,-1.7944 0.6497,-1.7944 1.3125,-3.625 0.5775,-0.6806 1.155,-1.3612 1.75,-2.0625 1.5818,-2.0122 1.5818,-2.0122 0.9375,-5.1875 -0.3403,-1.3612 -0.3403,-1.3612 -0.6875,-2.75 0.66,-0.33 1.32,-0.66 2,-1 2,3 2,3 3,5 3.3437,-0.5573 6.0331,-1.3517 9,-3 0,-0.99 0,-1.98 0,-3 1.32,-0.33 2.64,-0.66 4,-1 0.33,-2.64 0.66,-5.28 1,-8 z"
     fill="#0a3a5f"
     id="path20" />
  <path
     d="m 411,1401 c 7.5075,-0.041 15.015,-0.082 22.75,-0.125 2.34448,-0.018 4.68896,-0.036 7.10449,-0.055 30.73881,-0.1431 30.73881,-0.1431 42.28223,10.0708 7.09464,7.5557 8.33869,14.7339 8.28979,24.8113 -0.18598,5.8012 -1.21585,10.3758 -4.42651,15.2981 -0.55688,0.9075 -1.11375,1.815 -1.6875,2.75 -8.64988,8.4161 -20.81506,10.5936 -32.48975,10.5895 -1.03979,-0.015 -2.07958,-0.031 -3.15088,-0.047 -0.99048,-0 -1.98096,-0.01 -3.00146,-0.01 -3.64025,-0.015 -7.28034,-0.057 -10.92041,-0.096 -8.1675,-0.062 -16.335,-0.1237 -24.75,-0.1875 0,-20.79 0,-41.58 0,-63 z"
     fill="#fdfdfd"
     id="path21" />
  <path
     d="m 412,1309 c 7.8375,-0.1031 15.675,-0.2062 23.75,-0.3125 2.4489,-0.045 4.89779,-0.091 7.4209,-0.1379 12.93306,-0.1408 23.60525,-0.1828 33.8291,8.7004 5.74835,6.5354 7.70666,13.0934 7.38672,21.7539 -0.95228,7.3777 -3.92556,13.8911 -9.38672,18.9961 -9.21448,5.7133 -17.96419,7.3125 -28.625,7.1953 -0.87656,-0 -1.75313,-0 -2.65625,-0.01 -3.23964,-0.01 -6.4792,-0.038 -9.71875,-0.064 -7.26,-0.041 -14.52,-0.082 -22,-0.125 0,-18.48 0,-36.96 0,-56 z"
     fill="#fcfdfd"
     id="path22" />
  <path
     d="m 793,1605 c 37.79167,0 37.79167,0 46.125,8 3.15434,5.1076 2.68195,11.2551 1.875,17 -2.01264,4.0972 -4.66967,6.9076 -8,10 0.9075,0.5569 1.815,1.1138 2.75,1.6875 4.08777,2.9086 6.65501,5.5275 8.25,10.3125 0.68503,8.273 0.0213,13.9402 -5,20.6875 -13.53485,10.4331 -29.59778,6.3125 -46,6.3125 0,-24.42 0,-48.84 0,-74 z"
     fill="#123d5d"
     id="path23" />
  <path
     d="m 364,1605 c 33,0 33,0 43,5 4.95085,5.0716 5.29573,9.4559 5.21484,16.2773 -0.48988,6.2082 -3.78491,9.652 -8.21484,13.7227 0.54269,0.3635 1.08539,0.727 1.64453,1.1016 4.45965,3.1338 7.72522,5.4982 9.35547,10.8984 0.69643,6.5664 0.50439,12.2347 -3,18 -4.84942,5.5591 -8.50763,6.5025 -16,9 -10.56,0 -21.12,0 -32,0 0,-24.42 0,-48.84 0,-74 z"
     fill="#184261"
     id="path24" />
  <path
     d="m 1236,1605 c 32,0 32,0 41,4 4.7379,4.7379 7.0303,8.7876 7.375,15.4375 -0.1501,6.0352 -3.0563,9.1839 -7.125,13.4375 -0.7425,0.7013 -1.485,1.4025 -2.25,2.125 0.9075,0.5569 1.815,1.1138 2.75,1.6875 3.674,2.6142 6.2292,5.271 8.25,9.3125 0.6272,7.9271 1.1246,14.6289 -4,21 -11.9025,11.5893 -31.3741,6 -46,6 0,-24.09 0,-48.18 0,-73 z"
     fill="#113d60"
     id="path25" />
  <path
     d="m 740,1604 c 2.97,0 5.94,0 9,0 0,24.42 0,48.84 0,74 -2.64,0 -5.28,0 -8,0 -0.495,-3.465 -0.495,-3.465 -1,-7 -0.53625,0.7631 -1.0725,1.5262 -1.625,2.3125 -3.39888,3.8461 -6.66398,5.4314 -11.74219,6.1914 -6.99713,0.1169 -11.79818,-0.019 -17.08984,-4.8711 -0.50918,-0.5388 -1.01836,-1.0776 -1.54297,-1.6328 -1.14469,-1.1447 -1.14469,-1.1447 -2.3125,-2.3125 -5.39318,-8.5891 -5.56981,-17.8334 -4.6875,-27.6875 1.71846,-7.4758 5.55007,-13.8887 11.88281,-18.3164 4.85275,-2.7309 8.59757,-3.2969 14.11719,-2.6836 5.72691,1.8443 7.52749,3.5275 12,8 0.33,-8.58 0.66,-17.16 1,-26 z"
     fill="#0d3959"
     id="path26" />
  <path
     d="m 1463,1605 c 2.64,0 5.28,0 8,0 0.33,8.91 0.66,17.82 1,27 0.99,-1.65 1.98,-3.3 3,-5 4.8709,-4.2769 9.6719,-5.2449 16,-5 6.5106,1.2998 11.3275,4.7352 15.4805,9.8086 3.7856,5.9488 4.0114,11.8955 4.082,18.7539 0.022,1.3293 0.022,1.3293 0.044,2.6855 -0.1258,8.1708 -2.6288,15.9399 -8.6069,21.752 -6.3049,4.7561 -13.3568,4.9853 -21,4 -4.5966,-2.1398 -6.7455,-4.4911 -9,-9 -0.33,2.64 -0.66,5.28 -1,8 -2.64,0 -5.28,0 -8,0 0,-24.09 0,-48.18 0,-73 z"
     fill="#0b3757"
     id="path27" />
  <path
     d="m 1557,1625 c 6.1478,3.7331 10.0938,9.0857 12,16 1.4323,10.0241 1.0941,19.7171 -4.1445,28.6016 -3.5099,4.537 -7.4163,7.5853 -12.8555,9.3984 -15.2706,1.268 -15.2706,1.268 -21.4297,-3.5312 -6.4573,-6.0397 -9.887,-12.5852 -10.9219,-21.4961 -0.2581,-9.1168 1.1134,-16.6881 6.9766,-23.8477 8.7557,-9.0604 19.1389,-10.4495 30.375,-5.125 z"
     fill="#0e3859"
     id="path28" />
  <path
     d="m 612,1259 c 5.52176,3.3611 8.97761,8.9328 11,15 0.63961,7.6648 0.92535,14.7401 -4,21 -5.06563,5.3351 -10.30131,9.5785 -17.80469,10.4336 -1.35657,0.023 -2.71369,0.024 -4.07031,0 -0.70818,-0.01 -1.41636,-0.014 -2.146,-0.021 -5.58353,-0.1717 -9.51914,-1.099 -13.979,-4.4167 -1.0725,-0.7425 -2.145,-1.485 -3.25,-2.25 -4.94233,-4.9423 -7.83204,-11.2928 -8.125,-18.3125 0.0887,-6.7489 2.54984,-12.1707 6.94922,-17.2578 C 587.32038,1253.2101 599.13161,1252.9934 612,1259 Z"
     fill="#0c3a60"
     id="path29" />
  <path
     d="m 1269.375,1255.5625 c 1.1338,0.014 1.1338,0.014 2.2905,0.027 6.8688,0.2141 11.2287,1.4373 16.2525,6.2461 6.1174,6.5841 8.7514,11.9764 8.4922,21.0625 -0.8763,6.626 -3.8529,11.9933 -8.7227,16.5391 -7.8407,5.9141 -16.0085,6.6839 -25.6875,5.5625 -7.9648,-2.2371 -12.751,-7.0629 -17,-14 -2.8534,-5.8309 -3.1529,-12.5001 -1.125,-18.6562 4.9742,-10.8648 13.4774,-16.9514 25.5,-16.7813 z"
     fill="#0b3a5f"
     id="path30" />
  <path
     d="m 1622.875,1365.5625 c 9.4411,5.7614 14.634,12.9645 18.125,23.4375 0,2.64 0,5.28 0,8 -23.76,0 -47.52,0 -72,0 1.3142,-11.8281 4.9955,-20.0414 14,-28 10.7441,-8.3241 27.6529,-9.1483 39.875,-3.4375 z"
     fill="#f8fbfc"
     id="path31" />
  <path
     d="m 459.6875,1624.5 c 4.0111,2.6943 6.36538,6.1069 8.3125,10.5 0.62518,3.4206 0.5878,6.7196 0.48828,10.1875 -0.007,0.9431 -0.0141,1.8862 -0.0214,2.8579 -0.0278,2.9857 -0.0905,5.9695 -0.15434,8.9546 -0.0251,2.0351 -0.0479,4.0703 -0.0684,6.1055 -0.0549,4.9655 -0.14102,9.9297 -0.24414,14.8945 -2.97,0 -5.94,0 -9,0 -0.33,-1.65 -0.66,-3.3 -1,-5 -0.94875,0.8044 -1.8975,1.6088 -2.875,2.4375 -4.1685,3.5342 -6.83345,3.7718 -12.375,3.875 -1.30453,0.037 -2.60906,0.075 -3.95313,0.1133 -5.48588,-0.6152 -8.44326,-3.0009 -12.17187,-6.9258 -2.4032,-5.1761 -2.35712,-9.8897 -1.625,-15.5 1.69629,-4.1301 3.7117,-6.124 7.5625,-8.1875 6.49188,-2.6274 13.60739,-3.251 20.5,-4.1992 3.70076,-0.1799 3.70076,-0.1799 4.9375,-1.6133 0.50887,-5.0526 0.50887,-5.0526 -1.8125,-9.375 -3.77788,-2.8064 -7.34079,-3.0141 -11.89453,-2.9844 -3.89053,0.6098 -5.61521,2.5477 -8.29297,5.3594 -0.33,0.66 -0.66,1.32 -1,2 -4.455,-0.99 -4.455,-0.99 -9,-2 1.34843,-5.5623 5.5669,-8.7344 10,-12 6.73749,-2.2458 17.14956,-2.3541 23.6875,0.5 z"
     fill="#123d5c"
     id="path32" />
  <path
     d="m 1068.5,1622.625 c 1.2684,-0.01 2.5369,-0.015 3.8438,-0.023 6.4653,0.7045 10.4699,3.5511 14.6562,8.3984 5.2287,7.65 5,12.5006 5,22 -12.87,0 -25.74,0 -39,0 2.632,10.9454 2.632,10.9454 9.8125,17.3125 4.7761,1.5011 9.4193,1.2061 14.0625,-0.5 3.2804,-1.5364 3.2804,-1.5364 4.5625,-4.5 0.2784,-1.1447 0.2784,-1.1447 0.5625,-2.3125 2.97,0.33 5.94,0.66 9,1 -0.2755,4.546 -2.3262,7.0032 -5.1367,10.3516 -4.9984,4.422 -9.8352,5.2036 -16.2383,5.1484 -0.7544,-0.01 -1.5088,-0.01 -2.2861,-0.015 -5.9052,-0.1856 -10.0323,-1.2343 -14.3389,-5.4849 -0.486,-0.4692 -0.972,-0.9384 -1.4727,-1.4219 -6.9126,-7.4971 -7.9104,-16.567 -7.8007,-26.2929 0.6822,-8.1961 5.142,-14.9293 11.2734,-20.2852 4.6033,-2.8428 8.121,-3.4078 13.5,-3.375 z"
     fill="#184160"
     id="path33" />
  <path
     d="m 1318.375,1622.6875 c 0.7425,-0.016 1.485,-0.032 2.25,-0.049 5.5655,-0 9.8024,0.9598 14.0195,4.8965 2.9537,3.8624 4.4828,5.9014 4.469,10.7309 0,0.8808 -10e-5,1.7615 -2e-4,2.669 -0.01,0.9521 -0.01,1.9042 -0.016,2.8852 -0,0.9738 -0,1.9476 -0,2.9509 -0.01,3.118 -0.018,6.2359 -0.031,9.3538 -0.01,2.1107 -0.01,4.2214 -0.014,6.332 -0.011,5.181 -0.028,10.362 -0.049,15.543 -2.64,0 -5.28,0 -8,0 -0.495,-2.97 -0.495,-2.97 -1,-6 -0.7425,0.7838 -1.485,1.5675 -2.25,2.375 -5.4473,5.1997 -9.9512,5.0638 -17.3242,4.9336 -4.757,-0.4285 -6.7816,-1.2189 -10.4258,-4.3086 -3.7386,-4.7931 -4.6485,-8.5727 -4.3906,-14.6328 0.7191,-4.3576 2.927,-7.0945 6.1875,-9.9297 6.6216,-4.3205 16.1246,-4.8588 23.8047,-6.0078 2.402,-0.3138 2.402,-0.3138 4.3984,-1.4297 0.3529,-3.7935 0.2839,-5.5594 -1.8125,-8.8125 -2.962,-2.962 -5.4596,-3.3674 -9.5,-3.5 -4.5948,0.045 -7.1457,1.289 -10.6875,4.3125 -0.99,1.485 -0.99,1.485 -2,3 -2.64,-0.66 -5.28,-1.32 -8,-2 0.083,-2.8083 0.5578,-4.524 2.4844,-6.5977 5.926,-5.1536 9.9269,-6.749 17.8906,-6.7148 z"
     fill="#0f3857"
     id="path34" />
  <path
     d="m 1671.9375,1624 c 6.8163,4.4514 11.0672,10.1363 13.0625,18 0,3.63 0,7.26 0,11 -12.87,0 -25.74,0 -39,0 2.632,10.9454 2.632,10.9454 9.8125,17.3125 4.7652,1.4976 8.849,1.1766 13.4375,-0.5 2.9039,-1.6642 2.9039,-1.6642 4.625,-4.5625 2.125,-2.25 2.125,-2.25 4.1484,-2.3477 2.0091,0.2573 3.997,0.6688 5.9766,1.0977 -0.2755,4.546 -2.3262,7.0032 -5.1367,10.3516 -4.9984,4.422 -9.8352,5.2036 -16.2383,5.1484 -0.7544,-0.01 -1.5088,-0.01 -2.2861,-0.015 -5.9188,-0.186 -10.0105,-1.2467 -14.3389,-5.4849 -0.9075,-0.8662 -1.815,-1.7325 -2.75,-2.625 -5.8115,-7.7224 -7.318,-16.9563 -6.25,-26.375 1.8417,-8.6386 5.981,-14.7357 13,-20 5.8157,-3.7009 15.5633,-3.2557 21.9375,-1 z"
     fill="#163f5d"
     id="path35" />
  <path
     d="m 1408,1604 c 2.97,0 5.94,0 9,0 0,14.19 0,28.38 0,43 6.3493,-5.5556 11.7624,-11.0409 17.0508,-17.5078 5.4869,-6.2179 5.4869,-6.2179 9.9687,-7.0586 2.7205,0 5.2928,0.1595 7.9805,0.5664 -4.0378,4.8661 -8.3082,9.3379 -12.8086,13.7773 -2.9036,2.945 -5.5513,6.041 -8.1914,9.2227 1.2679,3.5132 2.7131,6.1996 5.0469,9.1094 0.5981,0.7554 1.1962,1.5108 1.8125,2.289 0.6239,0.7761 1.2478,1.5521 1.8906,2.3516 4.7259,5.9073 9.1546,11.8856 13.25,18.25 -3.9436,0.6581 -7.0655,0.9587 -11,0 -3.5184,-2.9979 -6.1344,-6.4931 -8.7695,-10.2539 -1.2473,-1.77 -2.5408,-3.4945 -3.8555,-5.2148 -2.155,-2.8221 -4.2738,-5.6688 -6.375,-8.5313 -2.6599,1.3205 -2.6599,1.3205 -5,4 -0.7817,3.4042 -0.7906,6.7676 -0.8125,10.25 -0.025,0.9359 -0.05,1.8717 -0.076,2.8359 -0.059,2.3043 -0.088,4.6092 -0.1113,6.9141 -2.97,0 -5.94,0 -9,0 0,-24.42 0,-48.84 0,-74 z"
     fill="#103a59"
     id="path36" />
  <path
     d="m 537,1604 c 2.97,0 5.94,0 9,0 0.33,13.86 0.66,27.72 1,42 2.8875,-2.8669 5.775,-5.7337 8.75,-8.6875 0.90331,-0.8942 1.80662,-1.7884 2.7373,-2.7097 0.72091,-0.7184 1.44182,-1.4368 2.18457,-2.177 0.73316,-0.7279 1.46631,-1.4559 2.22168,-2.2058 2.19331,-2.2322 2.19331,-2.2322 4.20215,-4.9661 C 569,1623 569,1623 571.79687,1622.5117 c 0.97454,0.058 1.94907,0.116 2.95313,0.1758 0.98484,0.045 1.96969,0.09 2.98437,0.1367 0.74766,0.058 1.49532,0.116 2.26563,0.1758 -1.51376,3.5676 -3.60513,5.8371 -6.35156,8.5469 -0.85078,0.8443 -1.70157,1.6886 -2.57813,2.5586 -0.88945,0.8727 -1.7789,1.7454 -2.69531,2.6445 -0.89719,0.8882 -1.79437,1.7763 -2.71875,2.6914 -2.21432,2.1908 -4.43317,4.3767 -6.65625,6.5586 5.10431,7.9429 10.80449,15.3571 16.60547,22.7988 1.04221,1.3506 1.04221,1.3506 2.10547,2.7285 0.94818,1.2181 0.94818,1.2181 1.91553,2.4607 C 581,1676 581,1676 581,1678 c -4.01506,1.1381 -7.0017,1.2795 -11,0 -4.32417,-3.8906 -7.40371,-8.9977 -10.55713,-13.8398 -2.33481,-3.4955 -4.8861,-6.8252 -7.44287,-10.1602 -2.69055,1.2201 -2.69055,1.2201 -5,3 -0.15686,1.5595 -0.25077,3.1254 -0.31641,4.6914 -0.0419,0.9442 -0.0838,1.8885 -0.12695,2.8613 -0.0393,0.9933 -0.0786,1.9865 -0.11914,3.0098 -0.0432,0.9971 -0.0864,1.9942 -0.13086,3.0215 -0.10644,2.4718 -0.20846,4.9438 -0.30664,7.416 -2.97,0 -5.94,0 -9,0 0,-24.42 0,-48.84 0,-74 z"
     fill="#0f3a58"
     id="path37" />
  <path
     d="m 856,1623 c 2.97,0 5.94,0 9,0 0.0198,1.15 0.0396,2.3 0.0601,3.4849 0.0763,4.2829 0.16498,8.5655 0.25732,12.8481 0.0382,1.8505 0.0731,3.7011 0.1045,5.5518 0.0459,2.6662 0.10382,5.332 0.16406,7.998 0.0115,0.8221 0.0231,1.6442 0.035,2.4913 0.11523,4.5255 0.43242,8.4487 2.37906,12.6259 4.6263,1.5421 9.16882,1.5022 14,1 3.46126,-1.8366 4.59539,-3.0322 6.09522,-6.6196 1.06363,-3.9739 1.25648,-7.757 1.31884,-11.8413 0.0194,-0.7906 0.0387,-1.5812 0.0587,-2.3957 0.0594,-2.506 0.10603,-5.0121 0.15225,-7.5184 0.0382,-1.707 0.0773,-3.4141 0.11719,-5.1211 0.0956,-4.1678 0.17981,-8.3357 0.25781,-12.5039 2.97,0 5.94,0 9,0 0,18.15 0,36.3 0,55 -2.97,0 -5.94,0 -9,0 -0.495,-3.465 -0.495,-3.465 -1,-7 -0.80438,1.1447 -0.80438,1.1447 -1.625,2.3125 -3.29539,3.729 -5.99785,5.397 -10.99609,6.0078 -5.9791,0.2434 -9.76969,-0.1608 -14.37891,-4.3203 -5.7552,-6.2348 -6.28949,-11.5297 -6.19531,-19.6758 0.003,-0.9251 0.006,-1.8503 0.009,-2.8035 0.0112,-2.9445 0.0363,-5.8888 0.0617,-8.8332 0.01,-2.0006 0.0192,-4.0013 0.0273,-6.002 0.022,-4.8953 0.0565,-9.7903 0.0977,-14.6855 z"
     fill="#123c5b"
     id="path38" />
  <path
     d="m 646,1623 c 2.64,0 5.28,0 8,0 0.33,2.64 0.66,5.28 1,8 0.40992,-0.4937 0.81984,-0.9874 1.24219,-1.4961 0.53883,-0.6407 1.07765,-1.2813 1.63281,-1.9414 0.53367,-0.6381 1.06734,-1.2762 1.61719,-1.9336 2.28185,-2.4651 3.35598,-2.6178 6.77343,-2.8672 1.31485,-0.024 2.62969,-0.049 3.98438,-0.074 1.30453,-0.037 2.60906,-0.075 3.95312,-0.1133 4.37582,0.4907 6.41487,1.6646 9.79688,4.4258 3.32237,4.3999 5.1297,7.7728 5.11352,13.2878 -7e-5,0.8607 -1.5e-4,1.7214 -2.2e-4,2.6081 -0.005,0.9251 -0.0103,1.8502 -0.0156,2.8033 -0.001,0.9502 -0.003,1.9004 -0.004,2.8794 -0.006,3.0363 -0.0181,6.0726 -0.0309,9.1089 -0.005,2.0579 -0.01,4.1159 -0.0137,6.1738 -0.011,5.0463 -0.0283,10.0925 -0.0488,15.1387 -2.97,0 -5.94,0 -9,0 -0.0297,-1.8316 -0.0297,-1.8316 -0.0601,-3.7002 -0.0761,-4.5326 -0.16481,-9.0649 -0.25732,-13.5972 -0.0383,-1.9612 -0.0731,-3.9224 -0.1045,-5.8838 -0.0457,-2.82 -0.10368,-5.6396 -0.16406,-8.4594 -0.0115,-0.8762 -0.0231,-1.7524 -0.035,-2.6551 -0.0199,-0.8206 -0.0397,-1.6411 -0.0602,-2.4865 -0.0133,-0.7195 -0.0267,-1.439 -0.0404,-2.1803 -0.32768,-2.3976 -1.00219,-3.9856 -2.27847,-6.0375 -4.38821,-2.8574 -7.80462,-3.6494 -13,-3 -3.99095,2.1084 -6.48485,3.7314 -8,8 -0.33034,2.9712 -0.37261,5.9344 -0.41406,8.9219 -0.0194,0.86 -0.0387,1.7199 -0.0587,2.606 -0.0597,2.7406 -0.10613,5.4812 -0.15225,8.2221 -0.0382,1.8607 -0.0772,3.7214 -0.11719,5.582 -0.0959,4.5559 -0.18,9.1118 -0.25781,13.668 -2.97,0 -5.94,0 -9,0 0,-18.15 0,-36.3 0,-55 z"
     fill="#113b5a"
     id="path39" />
  <path
     d="m 1175.125,1622.5 c 0.6809,-0.01 1.3619,-0.013 2.0635,-0.019 5.3437,0.1339 9.436,1.403 13.456,4.9838 2.2453,2.8311 3.6476,5.0111 4.3555,8.5352 -3.0237,0.6526 -5.9009,1.1448 -9,1 -2.375,-2.375 -2.375,-2.375 -4,-5 -4.0643,-1.3548 -7.751,-1.5283 -12,-1 -3.1485,1.4167 -3.1485,1.4167 -5,4 -0.9167,3 -0.9167,3 0,6 4.2798,3.429 8.1967,4.7927 13.5,6 6.5256,1.4855 11.0009,3.6324 15.875,8.25 2.141,3.6232 2.2719,6.6932 1.625,10.75 -2.0437,5.7904 -5.726,9.3129 -11.168,12.1172 -3.8012,1.1849 -7.3099,1.2509 -11.2695,1.2578 -0.738,0.024 -1.476,0.049 -2.2363,0.074 -6.0825,0.033 -9.4686,-1.8508 -14.0059,-5.9765 -2.1113,-2.4909 -3.2762,-4.0673 -3.6328,-7.3477 0.1031,-0.7012 0.2063,-1.4025 0.3125,-2.125 5.1857,-0.5274 5.1857,-0.5274 8,0 2.1626,1.787 3.3762,3.6599 5,6 3.9704,1.9852 8.6833,1.5403 13,1 2.9149,-1.333 3.8921,-2.4363 6,-5 0.7509,-2.5874 0.7509,-2.5874 0,-5 -2.0906,-2.5557 -3.7579,-3.4536 -6.9492,-4.1758 -1.1437,-0.2775 -1.1437,-0.2775 -2.3106,-0.5605 -0.8011,-0.1902 -1.6023,-0.3803 -2.4277,-0.5762 -7.7413,-1.9952 -14.3412,-3.983 -18.8125,-11.0625 -1.0031,-5.2665 -1.2757,-8.9767 1,-13.8125 5.6123,-6.3138 10.0705,-8.252 18.625,-8.3125 z"
     fill="#0e3959"
     id="path40" />
  <path
     d="m 1582,1623 c 2.64,0 5.28,0 8,0 0.33,2.64 0.66,5.28 1,8 0.4099,-0.4937 0.8198,-0.9874 1.2422,-1.4961 0.5388,-0.6407 1.0776,-1.2813 1.6328,-1.9414 0.5337,-0.6381 1.0673,-1.2762 1.6172,-1.9336 2.2818,-2.4651 3.356,-2.6178 6.7734,-2.8672 1.3149,-0.024 2.6297,-0.049 3.9844,-0.074 1.3045,-0.037 2.6091,-0.075 3.9531,-0.1133 5.4946,0.6162 8.4707,2.9563 12.1094,6.9883 2.2916,3.3102 2.8125,5.7979 2.801,9.7253 0,0.8607 -10e-5,1.7214 -2e-4,2.6081 -0.01,0.9251 -0.01,1.8502 -0.016,2.8033 -0,0.9502 -0,1.9004 -0,2.8794 -0.01,3.0363 -0.018,6.0726 -0.031,9.1089 -0.01,2.0579 -0.01,4.1159 -0.014,6.1738 -0.011,5.0463 -0.028,10.0925 -0.049,15.1387 -2.64,0 -5.28,0 -8,0 -0.01,-1.1145 -0.019,-2.2289 -0.028,-3.3772 -0.04,-4.1583 -0.1059,-8.3158 -0.1792,-12.4736 -0.028,-1.7952 -0.049,-3.5905 -0.063,-5.3858 -0.022,-2.5897 -0.068,-5.178 -0.1196,-7.7673 -0,-0.7951 -0,-1.5902 -0,-2.4093 -0.1456,-5.6124 -1.387,-8.9605 -4.6057,-13.5868 -3.8493,-2.3928 -7.5442,-2.3978 -12,-2 -4.2286,1.826 -6.0516,3.8684 -8,8 -0.4586,3.0047 -0.4883,5.9838 -0.5117,9.0195 -0.018,0.8586 -0.036,1.7172 -0.054,2.6018 -0.054,2.7303 -0.088,5.4605 -0.1214,8.1912 -0.033,1.8561 -0.068,3.7123 -0.1035,5.5684 -0.085,4.5395 -0.1517,9.0791 -0.209,13.6191 -2.97,0 -5.94,0 -9,0 0,-18.15 0,-36.3 0,-55 z"
     fill="#0b3655"
     id="path41" />
  <path
     d="m 1123,1622.625 c 1.0287,-0.017 1.0287,-0.017 2.0781,-0.035 5.4309,0.031 9.482,1.2369 13.5664,4.875 2.3515,2.965 3.4199,4.7926 4.3555,8.5352 -4.455,0.495 -4.455,0.495 -9,1 -0.66,-1.32 -1.32,-2.64 -2,-4 -4.2638,-2.5841 -9.1609,-2.6901 -14,-2 -3.2284,1.3302 -3.2284,1.3302 -5,4 -0.5735,3.5722 -0.5735,3.5722 1,7 3.9747,3.3946 9.1582,4.3372 14.125,5.5 5.9851,1.4021 9.7262,3.5208 14.25,7.6875 2.3206,4.0164 2.4991,7.2836 1.625,11.8125 -2.1365,5.0523 -4.8701,8.7639 -10,11 -3.8783,1.2867 -7.8312,1.2203 -11.875,1.25 -0.6948,0.021 -1.3896,0.041 -2.1055,0.062 -4.7859,0.036 -7.9646,-0.7893 -12.0195,-3.3125 -3.8446,-3.8446 -5.6102,-6.5422 -6,-12 2.64,-0.33 5.28,-0.66 8,-1 0.5569,0.9488 1.1138,1.8975 1.6875,2.875 2.4758,3.3456 3.3401,4.2222 7.3125,5.125 5.6612,0.4493 9.0722,0.1249 14,-3 1.4306,-2.8612 1.3869,-4.8401 1,-8 -3.8001,-2.895 -7.7098,-3.8125 -12.3125,-4.875 -5.7918,-1.4536 -11.2998,-2.867 -15.6875,-7.125 -2.7679,-4.6708 -3.8502,-8.6151 -3,-14 4.5425,-8.4451 10.4388,-11.5367 20,-11.375 z"
     fill="#0f3a5b"
     id="path42" />
  <path
     d="m 989,1623 c 2.64,0 5.28,0 8,0 0.33,2.64 0.66,5.28 1,8 0.40992,-0.4937 0.81984,-0.9874 1.24219,-1.4961 0.53883,-0.6407 1.07761,-1.2813 1.63281,-1.9414 0.5337,-0.6381 1.0673,-1.2762 1.6172,-1.9336 2.2818,-2.4651 3.356,-2.6178 6.7734,-2.8672 1.3149,-0.024 2.6297,-0.049 3.9844,-0.074 1.3045,-0.037 2.6091,-0.075 3.9531,-0.1133 5.0593,0.5674 7.8838,2.1149 11.1497,6.0599 3.8145,5.5566 4.326,9.9156 4.1355,16.5534 -0.01,0.9431 -0.014,1.8862 -0.022,2.8579 -0.028,2.9857 -0.091,5.9695 -0.1543,8.9546 -0.025,2.0351 -0.048,4.0703 -0.068,6.1055 -0.055,4.9655 -0.141,9.9297 -0.2441,14.8945 -2.64,0 -5.28,0 -8,0 -0.01,-1.1145 -0.019,-2.2289 -0.028,-3.3772 -0.04,-4.1583 -0.1059,-8.3158 -0.1792,-12.4736 -0.028,-1.7952 -0.049,-3.5905 -0.063,-5.3858 -0.022,-2.5897 -0.068,-5.178 -0.1196,-7.7673 -0,-0.7951 -0,-1.5902 -0,-2.4093 -0.1456,-5.6124 -1.387,-8.9605 -4.6057,-13.5868 -3.8484,-2.3923 -7.5466,-2.4688 -12,-2 -3.9909,2.1084 -6.4849,3.7314 -8,8 -0.33034,2.9712 -0.37261,5.9344 -0.41406,8.9219 -0.0194,0.86 -0.0387,1.7199 -0.0587,2.606 -0.0597,2.7406 -0.10613,5.4812 -0.15225,8.2221 -0.0382,1.8607 -0.0772,3.7214 -0.11719,5.582 -0.0959,4.5559 -0.18,9.1118 -0.25781,13.668 -2.97,0 -5.94,0 -9,0 0,-18.15 0,-36.3 0,-55 z"
     fill="#0c3857"
     id="path43" />
  <path
     d="m 932.0625,1622.5625 c 1.02722,-0.015 1.02722,-0.015 2.0752,-0.031 6.13666,0.1052 10.0461,1.9346 14.6748,5.8433 2.24884,2.6986 2.89191,4.1764 3.1875,7.625 -2.88862,1.4443 -4.79648,1.3769 -8,1 -2.6875,-2.4375 -2.6875,-2.4375 -5,-5 -4.76724,-1.5891 -8.61112,-1.463 -13.375,0.125 -2.85932,1.6776 -2.85932,1.6776 -3.75,4.8125 -0.14913,3.0482 -0.14913,3.0482 1.51172,5.0664 3.82152,2.919 7.94353,3.7922 12.55078,4.9961 7.33307,1.9245 12.6564,3.3909 17.0625,10 0.70162,5.1969 0.62739,9.6728 -1.625,14.4375 -4.40427,4.752 -8.61384,7.3601 -15.10547,7.8359 -14.52668,0.4684 -14.52668,0.4684 -19.82031,-3.707 C 913.27748,1672.1382 911,1668.8124 911,1664 c 4.455,-0.495 4.455,-0.495 9,-1 0.4125,0.9488 0.825,1.8975 1.25,2.875 1.85166,3.3065 2.3677,3.8452 5.75,5.125 4.92407,0.599 9.58012,0.4108 14,-2 2.34886,-1.9407 2.34886,-1.9407 2.4375,-5.4375 -0.14437,-1.1756 -0.28875,-2.3512 -0.4375,-3.5625 -4.77469,-3.7076 -10.54096,-4.4954 -16.30859,-5.8398 C 920.93365,1652.3506 915.96094,1649.3525 913,1644 c -0.78786,-5.2577 -0.64791,-9.5746 1.5625,-14.4375 5.55841,-5.8435 9.55108,-6.9151 17.5,-7 z"
     fill="#0e3959"
     id="path44" />
  <path
     d="m 1551.1875,1631.125 c 5.2442,3.4961 8.5283,7.6873 9.8125,13.875 0.8518,8.2954 -0.1405,15.897 -5.2852,22.6992 -3.3761,3.2822 -6.9381,4.1854 -11.4765,4.4219 -3.7596,-0.2034 -6.0612,-1.1049 -9.2383,-3.1211 -6.4842,-7.9289 -6.7828,-16.0143 -6,-26 1.3967,-5.427 4.3545,-9.1647 9.0742,-12.1562 4.516,-1.9786 8.5064,-1.3447 13.1133,0.2812 z"
     fill="#f6f9fa"
     id="path45" />
  <path
     d="m 1493.1875,1631 c 4.043,2.875 6.2738,5.2129 7.8125,10 0.3876,3.0244 0.4809,6.0153 0.5,9.0625 0.01,0.7677 0.013,1.5354 0.019,2.3264 -0.1288,5.8181 -1.078,10.8409 -5.0542,15.3533 -4.9498,3.6712 -8.2278,5.094 -14.4648,4.2578 -5.5637,-2.8343 -7.8813,-6.0474 -10.0508,-11.7734 -2.1449,-7.291 -2.0221,-14.8484 1.1758,-21.7891 4.8479,-8.3515 11.1853,-10.2225 20.0625,-7.4375 z"
     fill="#f7fafb"
     id="path46" />
  <path
     d="m 728,1630 c 5.42169,2.0198 7.9967,4.9197 11.08984,9.6758 1.30079,3.3217 1.25067,6.5581 1.22266,10.0742 -0.005,0.7165 -0.01,1.433 -0.0149,2.1711 -0.15676,7.0635 -1.14288,11.5471 -5.79761,17.0164 -3.59484,2.9657 -6.73903,3.4929 -11.375,3.3906 -3.94912,-0.6098 -6.48527,-2.381 -9.125,-5.3281 -4.67749,-7.2991 -4.99266,-15.5775 -4,-24 1.57365,-5.4531 4.22335,-8.8575 9,-12 3.07195,-1.536 5.60244,-1.2265 9,-1 z"
     fill="#f7fafa"
     id="path47" />
  <path
     d="m 514.25,1624 c 5.80158,3.216 9.75559,7.5906 11.625,14 0.0412,0.66 0.0825,1.32 0.125,2 -3.0726,0.3545 -5.94138,0.5257 -9,0 -2.25,-2.8125 -2.25,-2.8125 -4,-6 -3.46248,-2.8854 -6.49092,-3.5435 -11.01172,-3.3477 -4.74996,0.8306 -7.4238,3.6307 -10.30078,7.2852 -3.3627,6.1027 -3.75735,13.5314 -2.15625,20.3125 1.70167,4.8831 4.00724,8.9039 8.21875,12.0625 4.80958,1.4696 8.90111,1.1456 13.5625,-0.4375 3.20896,-2.2388 4.2502,-4.2818 5.6875,-7.875 2.97,0 5.94,0 9,0 -2.07863,8.07 -4.84843,11.6428 -11.73828,16.1328 -5.93914,2.2772 -14.89636,1.9471 -20.87891,0.027 C 487.05954,1674.5064 482.10284,1667.9556 480,1661 c -1.03417,-9.2753 -1.64676,-19.9506 3.44922,-28.0898 7.92771,-9.7649 18.84822,-14.2304 30.80078,-8.9102 z"
     fill="#0e3858"
     id="path48" />
  <path
     d="m 1388.957,1626.2188 c 4.9596,3.7588 6.6492,7.8081 8.043,13.7813 -3.0726,0.3545 -5.9414,0.5257 -9,0 -2.25,-2.8125 -2.25,-2.8125 -4,-6 -3.4605,-2.8837 -6.4918,-3.5527 -11.0117,-3.3399 -4.1027,0.7012 -6.667,2.7066 -9.2461,5.8945 -3.842,6.26 -3.4528,13.3479 -2.7422,20.4454 0.7379,2.9293 1.7015,5.2473 3,8 0.33,0.99 0.66,1.98 1,3 2.4238,1.1695 2.4238,1.1695 5,2 0.66,0.33 1.32,0.66 2,1 5.2064,0.4004 8.6463,-0.032 13,-3 1.902,-3.0504 1.902,-3.0504 3,-6 2.97,0 5.94,0 9,0 -1.859,7.5519 -4.5188,11.6095 -11,16 -3.6356,1.2118 -7.0241,1.2609 -10.8125,1.3125 -1.049,0.043 -1.049,0.043 -2.1192,0.088 -6.1617,0.075 -9.4766,-2.0955 -14.08,-6.1894 -6.8431,-7.497 -8.6045,-15.2269 -8.2579,-25.2656 0.9045,-9.884 4.5981,-16.4998 12.2696,-22.9454 8.6278,-4.7596 17.7564,-3.8882 25.957,1.2188 z"
     fill="#0f3959"
     id="path49" />
  <path
     d="m 1236,1605 c 32,0 32,0 41,4 3.8,3.8 3.8394,6.07 4.2109,11.2578 -0.3338,4.3397 -2.0042,5.9172 -5.2109,8.7422 -0.33,0 -0.66,0 -1,0 -0.086,-0.5917 -0.1727,-1.1834 -0.2617,-1.793 -0.9832,-5.5291 -2.1365,-8.6153 -6.7383,-12.207 -2.8551,-0.9517 -4.9094,-1.1901 -7.8867,-1.3164 -1.2679,-0.057 -1.2679,-0.057 -2.5613,-0.1155 -1.069,-0.043 -2.1381,-0.086 -3.2395,-0.1306 -3.4031,-0.1444 -6.8062,-0.2887 -10.3125,-0.4375 0,7.92 0,15.84 0,24 -0.33,0 -0.66,0 -1,0 -0.66,-4.29 -1.32,-8.58 -2,-13 -0.66,0.66 -1.32,1.32 -2,2 -0.33,-0.66 -0.66,-1.32 -1,-2 -0.33,17.49 -0.66,34.98 -1,53 17.7593,0.4554 17.7593,0.4554 24,-3 0.33,-0.66 0.66,-1.32 1,-2 -5.61,0 -11.22,0 -17,0 0,-0.33 0,-0.66 0,-1 0.5943,-0.01 1.1885,-0.019 1.8008,-0.028 2.7338,-0.054 5.4661,-0.1378 8.1992,-0.2217 0.9346,-0.014 1.8691,-0.028 2.832,-0.043 6.1005,-0.2133 11.1294,-1.0669 16.168,-4.707 2.9238,-4.2883 3.8777,-8.9929 5,-14 0.66,0 1.32,0 2,0 0.495,-0.99 0.495,-0.99 1,-2 2,1.3125 2,1.3125 4,4 0.8505,5.1687 0.8028,10.2416 -1.6875,14.9375 -4.0568,5.3726 -6.8104,6.8951 -13.3125,9.0625 -11.55,0 -23.1,0 -35,0 0,-24.09 0,-48.18 0,-73 z"
     fill="#093454"
     id="path50" />
  <path
     d="m 600,1629 c 0,0.66 0,1.32 0,2 -0.66,0 -1.32,0 -2,0 -0.12375,0.9488 -0.2475,1.8975 -0.375,2.875 C 597,1637 597,1637 595,1639 c 0,-1.32 0,-2.64 0,-4 -0.33,0.33 -0.66,0.66 -1,1 0.33,3.63 0.66,7.26 1,11 10.23,0 20.46,0 31,0 0.33,-1.65 0.66,-3.3 1,-5 1.9375,-1.1875 1.9375,-1.1875 4,-2 0.66,-0.66 1.32,-1.32 2,-2 1,3 1,3 1,15 -12.87,0 -25.74,0 -39,0 0.99,3.3 1.98,6.6 3,10 0.28875,0.99 0.5775,1.98 0.875,3 1.5416,2.7406 3.17886,3.1162 6.125,4 0.66,0.33 1.32,0.66 2,1 5.60728,0.3738 9.16773,0.1849 14,-3 0.61875,-0.9075 1.2375,-1.815 1.875,-2.75 2.125,-2.25 2.125,-2.25 4.14844,-2.3477 2.0091,0.2573 3.99698,0.6688 5.97656,1.0977 -0.27551,4.546 -2.32622,7.0032 -5.13672,10.3516 -6.22885,5.5106 -12.87308,5.3943 -20.71484,5.1172 -5.58802,-0.4513 -9.30979,-2.3803 -13.14844,-6.4688 -5.7388,-7.0848 -7.16639,-12.2031 -7.0625,-21.25 0.005,-0.7451 0.009,-1.4902 0.0137,-2.2578 0.0117,-1.8308 0.0297,-3.6615 0.0488,-5.4922 0.66,0.66 1.32,1.32 2,2 1.60203,-1.602 1.15739,-3.4748 1.25,-5.6875 C 590.83067,1633.8883 592.82765,1629 600,1629 Z"
     fill="#0c3859"
     id="path51" />
  <path
     d="m 1055,1628 c 0.66,0.33 1.32,0.66 2,1 0,1.32 0,2.64 0,4 -0.66,0 -1.32,0 -2,0 -0.2166,1.3613 -0.2166,1.3613 -0.4375,2.75 -0.5625,3.25 -0.5625,3.25 -1.125,5.375 -0.589,2.2033 -0.589,2.2033 -0.4375,5.875 10.23,0 20.46,0 31,0 0.33,-1.32 0.66,-2.64 1,-4 0.66,1.32 1.32,2.64 2,4 0.66,0 1.32,0 2,0 0,1.32 0,2.64 0,4 0.66,0.66 1.32,1.32 2,2 -12.54,0 -25.08,0 -38,0 2.632,10.9454 2.632,10.9454 9.8125,17.3125 4.7761,1.5011 9.4193,1.2061 14.0625,-0.5 3.2804,-1.5364 3.2804,-1.5364 4.5625,-4.5 0.2784,-1.1447 0.2784,-1.1447 0.5625,-2.3125 2.97,0.33 5.94,0.66 9,1 -0.2755,4.546 -2.3262,7.0032 -5.1367,10.3516 -4.9984,4.422 -9.8352,5.2036 -16.2383,5.1484 -0.7544,-0.01 -1.5088,-0.01 -2.2861,-0.015 -5.9052,-0.1856 -10.0323,-1.2343 -14.3389,-5.4849 -0.486,-0.4692 -0.972,-0.9384 -1.4727,-1.4219 -5.7737,-6.2619 -6.987,-12.3712 -6.7148,-20.5156 0.014,-0.7792 0.027,-1.5585 0.041,-2.3613 0.035,-1.9007 0.089,-3.8011 0.1465,-5.7012 0.66,0 1.32,0 2,0 0.2681,-1.0312 0.5363,-2.0625 0.8125,-3.125 1.4207,-4.9424 3.2025,-9.4593 7.1875,-12.875 z"
     fill="#0a3556"
     id="path52" />
  <path
     d="m 622.5625,1624.5 c 4.13591,2.5668 7.36703,6.089 9.4375,10.5 0.18771,2.6939 -0.23055,4.3619 -1,7 -1.32,0.33 -2.64,0.66 -4,1 -0.33,1.32 -0.66,2.64 -1,4 -10.23,0 -20.46,0 -31,0 -0.66,-3.96 -1.32,-7.92 -2,-12 0.66,0 1.32,0 2,0 0.33,0.66 0.66,1.32 1,2 0.66,-1.98 1.32,-3.96 2,-6 0.66,0 1.32,0 2,0 0,-0.66 0,-1.32 0,-2 -3.95438,1.2825 -5.82164,2.4524 -8,6 -0.49876,2.3777 -0.49876,2.3777 -0.5625,4.875 -0.2838,3.9968 -0.95463,7.3684 -2.4375,11.125 -0.33,0 -0.66,0 -1,0 -1.05203,-6.2207 -1.80804,-11.4802 1.48828,-17.0781 8.06375,-10.2516 20.48449,-14.982 33.07422,-9.4219 z"
     fill="#174261"
     id="path53" />
  <path
     d="m 1676,1633 c 1.8906,0.2852 1.8906,0.2852 4,1 3.0999,6.0892 3.3044,11.2698 3,18 -8.2503,0.9281 -16.3904,1.1231 -24.6875,1.0625 -1.1904,-0 -2.3809,-0.01 -3.6074,-0.014 -2.9018,-0.012 -5.8034,-0.028 -8.7051,-0.049 0.4398,1.7719 0.8913,3.5409 1.3477,5.3086 0.2501,0.9854 0.5003,1.9708 0.758,2.9861 1.4461,4.3745 4.0983,6.4048 7.7068,9.0178 4.7652,1.4976 8.849,1.1766 13.4375,-0.5 2.9039,-1.6642 2.9039,-1.6642 4.625,-4.5625 2.125,-2.25 2.125,-2.25 4.1484,-2.3477 2.0091,0.2573 3.997,0.6688 5.9766,1.0977 -0.2755,4.546 -2.3262,7.0032 -5.1367,10.3516 -4.9984,4.422 -9.8352,5.2036 -16.2383,5.1484 -0.7544,-0.01 -1.5088,-0.01 -2.2861,-0.015 -5.9052,-0.1856 -10.0323,-1.2343 -14.3389,-5.4849 -0.486,-0.4692 -0.972,-0.9384 -1.4727,-1.4219 -3.8561,-4.1821 -6.5703,-8.6838 -6.4843,-14.4687 0.2406,-2.7207 0.5517,-5.4087 0.957,-8.1094 1.6667,0 3.3333,0 5,0 0.33,-3.63 0.66,-7.26 1,-11 0.66,0 1.32,0 2,0 -0.33,2.64 -0.66,5.28 -1,8 10.23,0 20.46,0 31,0 1.3451,-3.8594 1.3451,-3.8594 0,-7 -0.3554,-2.3301 -0.6914,-4.6633 -1,-7 z"
     fill="#0c3758"
     id="path54" />
  <path
     d="m 1245,1645 c 3.6713,-0.062 7.3425,-0.1237 11.125,-0.1875 1.7192,-0.041 1.7192,-0.041 3.4731,-0.083 5.5383,-0.045 9.6658,0.038 14.4019,3.2703 3.2026,3.6296 3.5191,7.1071 3.3555,11.7813 -0.5585,3.4859 -2.0568,5.6007 -4.3555,8.2187 -3.2478,2.0851 -5.8228,2.2359 -9.6406,2.1953 -0.9646,-0.01 -1.9291,-0.01 -2.9229,-0.015 -1.2165,-0.018 -2.4331,-0.036 -3.6865,-0.055 -3.8775,-0.041 -7.755,-0.082 -11.75,-0.125 0,-8.25 0,-16.5 0,-25 z"
     fill="#fafdfe"
     id="path55" />
  <path
     d="m 803,1645 c 3.65062,-0.082 7.30125,-0.165 11.0625,-0.25 1.13703,-0.036 2.27407,-0.073 3.44556,-0.1104 6.41775,-0.07 10.28483,0.5266 15.49194,4.3604 2.42881,2.9568 2.36209,6.2106 2.25,9.9727 -0.39438,3.1982 -1.45876,5.3713 -3.25,8.0273 -3.67875,2.6916 -6.21218,3.3656 -10.73828,3.293 -0.96205,-0.01 -1.92409,-0.015 -2.91528,-0.023 -1.20745,-0.027 -2.4149,-0.055 -3.65894,-0.083 -5.78531,-0.093 -5.78531,-0.093 -11.6875,-0.1875 0,-8.25 0,-16.5 0,-25 z"
     fill="#f9fcfc"
     id="path56" />
  <path
     d="m 374,1645 c 5.75437,-0.1237 5.75437,-0.1237 11.625,-0.25 1.19835,-0.036 2.39669,-0.073 3.63135,-0.1104 6.2336,-0.065 10.04409,0.1054 14.74365,4.3604 2.38001,3.0291 2.35648,6.2473 2.25781,10.0391 -0.54792,4.1675 -3.10012,7.3295 -6.25781,9.9609 -3.05919,1.0197 -5.12418,1.1153 -8.32422,1.0977 -0.92643,-0 -1.85286,-0.01 -2.80737,-0.01 -1.17345,-0.01 -2.3469,-0.018 -3.55591,-0.028 -3.73312,-0.021 -7.46625,-0.041 -11.3125,-0.062 0,-8.25 0,-16.5 0,-25 z"
     fill="#f9fcfc"
     id="path57" />
  <path
     d="m 802,1613 c 3.50625,-0.082 7.0125,-0.165 10.625,-0.25 1.09393,-0.036 2.18786,-0.073 3.31494,-0.1104 6.02516,-0.069 9.51897,0.2749 14.06006,4.3604 2.70556,4.0583 2.51943,7.2413 2,12 -1.37718,3.7265 -2.47766,4.7148 -5.96875,6.6211 -4.74651,1.9451 -9.41789,1.7071 -14.46875,1.5664 -4.73344,-0.093 -4.73344,-0.093 -9.5625,-0.1875 0,-7.92 0,-15.84 0,-24 z"
     fill="#f9fcfc"
     id="path58" />
  <path
     d="m 365,1635 c 0.33,0 0.66,0 1,0 0.12375,0.7425 0.2475,1.485 0.375,2.25 0.59623,2.6234 1.11697,4.5276 2.625,6.75 1.32,0.33 2.64,0.66 4,1 0,8.25 0,16.5 0,25 -0.66,0 -1.32,0 -2,0 0.33,0.66 0.66,1.32 1,2 0.99,-0.495 0.99,-0.495 2,-1 1.47624,-0.1166 2.95701,-0.1787 4.4375,-0.2109 0.8959,-0.028 1.7918,-0.057 2.71484,-0.086 1.86701,-0.051 3.73422,-0.096 5.60157,-0.1328 5.78212,-0.1974 10.76417,-1.0785 16.25,-2.936 C 405,1667 405,1667 407,1667 c 0,-5.94 0,-11.88 0,-18 0.66,-0.33 1.32,-0.66 2,-1 0.99,0.33 1.98,0.66 3,1 2.82619,14.0142 2.82619,14.0142 1,20 -3.96735,4.7589 -8.03815,7.3631 -14,9 -2.71209,0.162 -5.31632,0.2347 -8.02344,0.1953 -0.66233,-0 -1.32467,-0 -2.00708,-0.01 -2.44823,-0.01 -4.89636,-0.038 -7.34448,-0.064 -8.22938,-0.062 -8.22938,-0.062 -16.625,-0.125 0,-14.19 0,-28.38 0,-43 z"
     fill="#073559"
     id="path59" />
  <path
     d="m 1245,1613 c 3.1763,-0.062 6.3525,-0.1237 9.625,-0.1875 1.4843,-0.041 1.4843,-0.041 2.9985,-0.083 5.203,-0.049 8.9417,0.2341 13.3765,3.2703 2.803,2.8564 3.4511,4.9686 3.5,8.9375 -0.1182,3.8226 -0.3507,4.8578 -2.6875,8.0625 -5.8553,4.1638 -10.6596,4.259 -17.625,4.125 -3.0319,-0.041 -6.0637,-0.082 -9.1875,-0.125 0,-7.92 0,-15.84 0,-24 z"
     fill="#f4f9fa"
     id="path60" />
  <path
     d="m 374,1613 c 3.17625,-0.062 6.3525,-0.1237 9.625,-0.1875 1.48428,-0.041 1.48428,-0.041 2.99853,-0.083 6.14777,-0.058 10.45319,0.7368 15.25147,4.8953 1.7868,3.7721 1.88237,7.2909 1.125,11.375 -1.65461,3.2207 -3.87627,5.3722 -7.0625,7.1523 -4.2621,1.2299 -8.34182,1.0575 -12.75,0.9727 -3.03188,-0.041 -6.06375,-0.082 -9.1875,-0.125 0,-7.92 0,-15.84 0,-24 z"
     fill="#f4f8f9"
     id="path61" />
  <path
     d="m 1331,1633 c 4.7059,0.7059 4.7059,0.7059 6,2 0.089,3.0298 0.1152,6.0367 0.098,9.0664 -0,0.9086 -0,1.8173 -0,2.7534 -0.01,2.9143 -0.018,5.8285 -0.031,8.7427 -0.01,1.9707 -0.01,3.9414 -0.014,5.9121 -0.011,4.8418 -0.028,9.6836 -0.049,14.5254 -1.32,0 -2.64,0 -4,0 -1.4271,-5.3072 -2.4003,-9.5389 -1,-15 -0.33,0 -0.66,0 -1,0 0,-3.3 0,-6.6 0,-10 -13.3178,1.7188 -13.3178,1.7188 -24.6914,7.7813 -1.503,2.5483 -1.8283,4.3446 -2.0586,7.2812 -0.077,0.8572 -0.1547,1.7145 -0.2344,2.5977 -0.1424,2.4969 -0.1424,2.4969 0.9844,5.3398 0.66,0.66 1.32,1.32 2,2 -4.3967,-0.5073 -6.8381,-3.1191 -10,-6 -1.8549,-3.7098 -1.454,-7.9512 -1,-12 2.4863,-4.8839 5.3553,-8.1038 10.5938,-9.8789 6.3085,-1.4839 12.5969,-2.7323 19.0078,-3.6914 2.402,-0.3138 2.402,-0.3138 4.3984,-1.4297 -0.012,-0.6381 -0.023,-1.2762 -0.035,-1.9336 -0.01,-0.8263 -0.018,-1.6526 -0.027,-2.5039 -0.012,-0.8237 -0.023,-1.6474 -0.035,-2.4961 C 1330,1634 1330,1634 1331,1633 Z"
     fill="#093556"
     id="path62" />
  <path
     d="m 457,1647 c -0.33,0.99 -0.66,1.98 -1,3 -0.66,0 -1.32,0 -2,0 0,0.66 0,1.32 0,2 -1.155,0.2888 -2.31,0.5775 -3.5,0.875 -0.72703,0.1856 -1.45406,0.3713 -2.20313,0.5625 -1.48261,0.3631 -2.97238,0.6986 -4.46875,1 -4.38748,0.9237 -7.28803,1.7524 -9.82812,5.5625 -0.66667,3 -0.66667,3 0,6 2.47608,3.0538 4.44288,4.7932 8.38281,5.3164 0.90492,0.081 1.80985,0.1624 2.74219,0.2461 0.91008,0.084 1.82016,0.1676 2.75781,0.2539 0.69867,0.061 1.39735,0.1212 2.11719,0.1836 0.38133,1.9914 0.71326,3.9928 1,6 -1.96121,1.9612 -5.52144,1.2746 -8.1875,1.3125 -1.31356,0.037 -2.62711,0.075 -3.98047,0.1133 -5.51038,-0.6123 -8.46214,-2.9838 -12.20703,-6.9258 -2.4032,-5.1761 -2.35712,-9.8897 -1.625,-15.5 1.68594,-4.1049 3.79245,-6.1971 7.5625,-8.375 7.52573,-3.0764 16.4733,-1.9167 24.4375,-1.625 z"
     fill="#0c3757"
     id="path63" />
  <path
     d="m 966,1623 c 2.64,0 5.28,0 8,0 0,18.15 0,36.3 0,55 -2.64,0 -5.28,0 -8,0 0,-18.15 0,-36.3 0,-55 z"
     fill="#083555"
     id="path64" />
  <path
     d="m 1331,1651 c 0.6205,9.6873 0.6205,9.6873 -1.625,14.4375 -3.2742,3.5327 -5.8682,6.2044 -10.8086,6.9102 -4.9474,0.169 -8.6269,-0.044 -12.5664,-3.3477 -1.6084,-3.2168 -1.6006,-6.5205 -1,-10 5.6391,-6.4935 17.6808,-8 26,-8 z"
     fill="#f0f6f7"
     id="path65" />
  <path
     d="m 459,1651 c 0.59541,12.3934 0.59541,12.3934 -3,17 -5.09534,3.7366 -9.7905,4.8012 -16,4 -5.5,-3 -5.5,-3 -7,-6 -0.52464,-3.9348 -0.36569,-5.4972 2,-8.75 3.55811,-2.6686 6.71689,-3.5098 11,-4.25 0.95391,-0.1843 1.90781,-0.3687 2.89062,-0.5586 C 456.48534,1651 456.48534,1651 459,1651 Z"
     fill="#f1f7f8"
     id="path66" />
  <path
     d="m 411,1401 c 7.5075,-0.041 15.015,-0.082 22.75,-0.125 2.34448,-0.018 4.68896,-0.036 7.10449,-0.055 26.47085,-0.121 26.47085,-0.121 35.14551,5.1802 -3.47064,1.1569 -4.1257,0.7993 -7.44287,-0.4055 -5.86887,-1.8662 -11.34765,-2.069 -17.47119,-2.1062 -1.45926,-0.025 -1.45926,-0.025 -2.948,-0.05 -3.58743,-0.057 -7.17523,-0.09 -10.76294,-0.1254 -12.06563,-0.1547 -12.06563,-0.1547 -24.375,-0.3125 0,19.14 0,38.28 0,58 18.81,0 37.62,0 57,0 -4.73599,2.368 -7.89184,3.1265 -13.13574,3.1135 -1.03496,-10e-5 -2.06991,-2e-4 -3.13623,-3e-4 -1.08072,-0.01 -2.16144,-0.01 -3.27491,-0.015 -0.99854,-10e-4 -1.99707,-0 -3.02587,-0 -3.72576,-0.01 -7.45151,-0.019 -11.17725,-0.032 -8.3325,-0.021 -16.665,-0.041 -25.25,-0.062 0,-20.79 0,-41.58 0,-63 z"
     fill="#c4d5dd"
     id="path67" />
  <path
     d="m 1075.25,1631.1875 c 3.5678,2.3515 5.8422,4.9969 7.75,8.8125 0,1.98 0,3.96 0,6 -9.9,0 -19.8,0 -30,0 2.6809,-10.7234 2.6809,-10.7234 8.8125,-15.375 4.8068,-1.3734 8.8311,-1.1206 13.4375,0.5625 z"
     fill="#f4fafa"
     id="path68" />
  <path
     d="m 617.25,1631.1875 c 3.56778,2.3515 5.84221,4.9969 7.75,8.8125 0,1.98 0,3.96 0,6 -9.9,0 -19.8,0 -30,0 2.68085,-10.7234 2.68085,-10.7234 8.8125,-15.375 4.80684,-1.3734 8.83109,-1.1206 13.4375,0.5625 z"
     fill="#f6fafb"
     id="path69" />
  <path
     d="m 1668.1875,1631 c 3.7243,2.6484 6.0621,5.7712 7.8125,10 0,1.65 0,3.3 0,5 -9.57,0 -19.14,0 -29,0 0,-6.246 0.223,-7.4279 4,-12 5.6272,-4.8599 10.3339,-5.1502 17.1875,-3 z"
     fill="#f5fafb"
     id="path70" />
  <path
     d="m 412.6875,1295.375 c 0.76312,0.2063 1.52625,0.4125 2.3125,0.625 0,1.32 0,2.64 0,4 2.475,0.99 2.475,0.99 5,2 0,0.99 0,1.98 0,3 -0.99,0 -1.98,0 -3,0 0,0.66 0,1.32 0,2 12.54,0.33 25.08,0.66 38,1 0,0.33 0,0.66 0,1 -14.19,0 -28.38,0 -43,0 0,18.48 0,36.96 0,56 12.21,0 24.42,0 37,0 0,0.33 0,0.66 0,1 -12.54,0 -25.08,0 -38,0 0,-19.14 0,-38.28 0,-58 -0.99,0.99 -1.98,1.98 -3,3 -0.66,0 -1.32,0 -2,0 0,-0.66 0,-1.32 0,-2 -1.32,0 -2.64,0 -4,0 1.20381,-2.4936 2.45429,-4.6814 4,-7 0.14438,-0.8456 0.28875,-1.6912 0.4375,-2.5625 0.86159,-3.7335 2.53784,-4.5805 6.25,-4.0625 z"
     fill="#426885"
     id="path71" />
  <path
     d="m 1462,1604 c 4.29,0 8.58,0 13,0 1.32,1.32 2.64,2.64 4,4 -0.5156,0.3713 -1.0312,0.7425 -1.5625,1.125 -1.8007,1.9067 -1.8007,1.9067 -1.125,5.0625 0.3403,1.3922 0.3403,1.3922 0.6875,2.8125 -0.66,0 -1.32,0 -2,0 -0.043,1.6661 -0.041,3.3338 0,5 0.33,0.33 0.66,0.66 1,1 0.9281,-0.33 1.8563,-0.66 2.8125,-1 4.9965,-1.4599 10.0308,-1.1678 15.1875,-1 0.495,0.99 0.495,0.99 1,2 -0.6291,-0.035 -1.2581,-0.07 -1.9062,-0.1055 -6.458,-0.2042 -12.6537,0.04 -17.7422,4.5743 -1.5182,1.7199 -2.4164,3.4449 -3.3516,5.5312 -0.33,0 -0.66,0 -1,0 0,-9.24 0,-18.48 0,-28 -2.64,0 -5.28,0 -8,0 0,24.09 0,48.18 0,73 -0.33,0 -0.66,0 -1,0 0,-24.42 0,-48.84 0,-74 z"
     fill="#bfd0d9"
     id="path72" />
  <path
     d="m 973,1603 c 1.875,1.1875 1.875,1.1875 3,3 0.42822,2.8548 0.4066,4.3449 -1.125,6.8125 -2.74656,1.7395 -4.69347,1.5852 -7.875,1.1875 -1.875,-1.1875 -1.875,-1.1875 -3,-3 -0.42822,-2.8548 -0.4066,-4.3449 1.125,-6.8125 2.74656,-1.7395 4.69347,-1.5852 7.875,-1.1875 z"
     fill="#103b5b"
     id="path73" />
  <path
     d="m 802,1613 c 7.26,0 14.52,0 22,0 0,0.33 0,0.66 0,1 -6.93,0 -13.86,0 -21,0 0.66,6.93 1.32,13.86 2,21 7.26,-0.33 14.52,-0.66 22,-1 -2.31305,2.3131 -3.91918,2.9436 -7.17651,3.1135 -0.82218,-0.01 -1.64436,-0.01 -2.49146,-0.016 -0.80461,-0 -1.60923,-0.01 -2.43823,-0.01 -1.52524,-0.014 -1.52524,-0.014 -3.0813,-0.028 -4.85719,-0.031 -4.85719,-0.031 -9.8125,-0.062 0,-7.92 0,-15.84 0,-24 z"
     fill="#bed0da"
     id="path74" />
  <path
     d="m 1298,1672 c 0.99,0.495 0.99,0.495 2,1 0,0.66 0,1.32 0,2 1.1756,0.4641 1.1756,0.4641 2.375,0.9375 C 1305,1677 1305,1677 1307,1678 c 1.8706,0.2275 3.7469,0.4096 5.625,0.5625 1.5043,0.1257 1.5043,0.1257 3.0391,0.2539 0.7708,0.061 1.5417,0.1212 2.3359,0.1836 0,0.33 0,0.66 0,1 -2.2281,0.1085 -4.4577,0.1858 -6.6875,0.25 -1.2414,0.046 -2.4827,0.093 -3.7617,0.1406 -4.1212,-0.4534 -5.6743,-1.4712 -8.5508,-4.3906 -0.8125,-2.25 -0.8125,-2.25 -1,-4 z"
     fill="#c4d5de"
     id="path75" />
  <path
     d="m 997,1623 c 0.33,1.32 0.66,2.64 1,4 0.66,0 1.32,0 2,0 0.33,-0.99 0.66,-1.98 1,-3 0.99,0.33 1.98,0.66 3,1 -0.9757,1.1696 -1.9556,2.3356 -2.9375,3.5 -0.5453,0.6497 -1.09055,1.2994 -1.65234,1.9688 -0.46536,0.5053 -0.93071,1.0106 -1.41016,1.5312 -0.33,0 -0.66,0 -1,0 0,-2.97 0,-5.94 0,-9 z"
     fill="#bad1dc"
     id="path76" />
  <path
     d="m 711,1676 c 0.70512,0.3171 1.41023,0.6342 2.13672,0.9609 2.98834,1.0845 5.51398,1.4355 8.67578,1.6641 1.46373,0.1121 1.46373,0.1121 2.95703,0.2266 0.73606,0.049 1.47211,0.098 2.23047,0.1484 0,0.33 0,0.66 0,1 -1.91409,0.2498 -3.83152,0.4741 -5.75,0.6875 -1.06734,0.1276 -2.13469,0.2552 -3.23438,0.3867 -3.43223,-0.084 -4.63961,-0.6463 -7.01562,-3.0742 0,-0.66 0,-1.32 0,-2 z"
     fill="#c2d2db"
     id="path77" />
</svg>
