<?xml version="1.0" encoding="UTF-8" standalone="no"?>
<!-- Created with Inkscape (http://www.inkscape.org/) -->

<svg
   width="1200mm"
   height="1600mm"
   viewBox="0 0 1200 1600"
   version="1.1"
   id="svg1"
   xmlns="http://www.w3.org/2000/svg"
   xmlns:svg="http://www.w3.org/2000/svg">
  <defs
     id="defs1" />
  <g
     id="layer1">
    <path
       d="m 1027.0513,26.699191 c 3.3201,25.086664 5.578,50.186345 7.573,75.414629 0.3318,4.12381 0.6635,8.24756 0.9968,12.3713 0.8729,10.83025 1.7387,21.66111 2.602,32.49213 1.5286,19.17221 3.0673,38.34358 4.6118,57.51449 0.2528,3.13842 0.2528,3.13842 0.5101,6.34027 2.8032,34.78151 5.8036,69.54215 8.9405,104.2937 6.9555,77.05986 6.9555,77.05986 6.6129,106.8237 -16.3585,-7.98675 -31.9482,-16.92389 -47.3537,-26.67347 -6.0482,-3.8269 -12.11607,-7.62077 -18.1834,-11.41586 -1.1986,-0.75078 -2.39694,-1.50086 -3.63179,-2.27406 -15.91418,-9.94332 -32.07179,-19.45472 -48.26785,-28.90732 -6.33191,7.82837 -11.90727,16.03488 -17.33861,24.52808 -1.82579,2.83287 -3.65227,5.66543 -5.47912,8.49767 -0.94638,1.47 -1.89267,2.93998 -2.86783,4.45449 -22.10715,34.29222 -44.4716,68.15431 -70.83572,99.21471 -4.73448,5.61599 -9.29166,11.33979 -13.82437,17.12664 -13.61767,17.11685 -28.3891,33.24569 -43.78209,48.69796 -3.4392,3.59057 -6.63468,7.33596 -9.83566,11.14992 -11.35894,13.44732 -23.72499,25.75765 -36.90111,37.3252 -4.65008,4.11798 -9.18717,8.35016 -13.731,12.59036 -8.64923,7.98802 -17.54578,15.58752 -26.60681,23.07958 -5.59236,4.66191 -11.07238,9.441 -16.56115,14.22974 -14.80174,12.64519 -30.36977,24.19655 -45.96894,35.7824 -4.44548,3.30962 -8.87222,6.64376 -13.2937,9.98687 -42.96149,32.32924 -88.15641,61.58893 -132.81607,91.37141 -3.93698,2.62852 -7.87391,5.25746 -11.81045,7.88683 -7.55381,5.04485 -15.10877,10.08785 -22.66475,15.12908 -7.78778,5.19611 -15.57308,10.39608 -23.3567,15.59865 -9.55237,6.38446 -19.11024,12.76019 -28.67111,19.13113 -4.66664,3.11446 -9.326,6.23992 -13.9837,9.36814 -2.53959,1.69561 -5.0795,3.39088 -7.6197,5.08548 -2.12705,1.42615 -4.25409,2.85222 -6.44561,4.32152 -4.87511,2.93668 -4.87511,2.93668 -8.85596,2.93668 4.89152,5.61732 10.19626,8.809 16.63118,12.39126 3.23916,1.81841 3.23916,1.81841 6.54377,3.67342 1.14839,0.63913 2.29684,1.27817 3.47998,1.93652 6.12152,3.40825 12.22331,6.85302 18.3246,10.29913 1.24406,0.70225 2.48815,1.40433 3.7699,2.12773 11.81024,6.6853 23.46821,13.6257 35.09835,20.63359 16.38284,9.86834 32.89026,19.46581 49.51249,28.90512 18.96895,10.78238 37.5148,22.06496 55.73264,34.12608 -5.75003,4.64647 -11.79812,8.5686 -18.06423,12.44357 -35.92894,22.29874 -69.04076,48.85194 -99.80008,78.08414 -4.60112,4.3396 -9.25815,8.569 -14.00311,12.7415 -14.45825,12.0806 -14.45825,12.0806 -25.37828,27.1225 -11.12331,-3.1667 -20.24649,-8.688 -30.10558,-14.6435 -16.94488,-10.0765 -34.08144,-19.7352 -51.37856,-29.1599 -18.93215,-10.322 -37.82188,-20.7139 -56.62149,-31.2873 -8.13315,-4.5641 -16.283,-9.066 -24.54381,-13.3837 -45.11383,-23.6138 -78.02539,-55.56878 -94.86533,-105.71262 -10.47423,-40.32755 -3.00498,-80.15892 16.52721,-115.88752 5.13119,-8.85324 11.26685,-16.49824 18.05693,-24.05435 1.44456,-1.66513 2.88911,-3.33027 4.37747,-5.04577 12.31879,-13.46378 26.02985,-23.15593 41.14244,-32.94612 5.89921,-3.83266 11.74809,-7.74271 17.60111,-11.64873 4.99676,-3.33295 10.00021,-6.65491 15.00419,-9.97637 13.21206,-8.78122 26.38628,-17.62112 39.56028,-26.46203 4.96569,-3.33211 9.93145,-6.66398 14.89729,-9.99593 1.23091,-0.82589 2.46181,-1.65187 3.73004,-2.50286 12.5289,-8.40593 25.06473,-16.8011 37.60296,-25.19267 2.11019,-1.41239 4.22046,-2.82478 6.3946,-4.28015 12.35993,-8.27036 24.72896,-16.52603 37.10373,-24.77322 17.69071,-11.7939 35.37489,-23.59346 52.88504,-35.66696 3.28822,-2.26718 6.57884,-4.53079 9.87059,-6.79257 76.82869,-52.83798 159.45286,-110.84296 217.14787,-186.30217 4.05699,-5.23235 8.27851,-10.23802 12.58947,-15.24891 23.94644,-27.94064 44.58634,-58.48236 64.39186,-89.58319 3.07115,-4.80644 6.17596,-9.58895 9.28457,-14.37007 2.03038,-3.14819 4.05963,-6.29707 6.08798,-9.44673 0.95236,-1.45921 1.90482,-2.91841 2.88601,-4.4219 5.22382,-7.87949 5.22382,-7.87949 6.56858,-17.09783 -4.0024,-3.41532 -4.0024,-3.41532 -9.33013,-6.56575 -1.99257,-1.25483 -3.98512,-2.50976 -6.03795,-3.80264 -3.23081,-1.99014 -3.23081,-1.99014 -6.52684,-4.02056 -3.27503,-2.05513 -3.27503,-2.05513 -6.61617,-4.15184 -4.393,-2.75634 -8.79095,-5.50426 -13.19417,-8.24349 -7.73448,-4.81531 -15.43057,-9.69106 -23.10878,-14.59986 -1.23452,-0.7865 -2.46897,-1.57309 -3.74087,-2.38355 -10.6693,-6.83301 -21.14721,-13.94941 -31.57849,-21.15612 -6.48586,-4.51091 -6.48586,-4.51091 -13.32235,-8.42158 0,-1.34463 0,-2.68934 0,-4.07471 2.37756,-0.95091 4.75512,-1.90181 7.20468,-2.88153 51.72462,-20.68964 103.42174,-41.44781 155.06264,-62.3556 14.28253,-5.7823 28.56596,-11.562457 42.84916,-17.343088 5.45668,-2.208593 10.91335,-4.417506 16.37002,-6.626494 16.63402,-6.732982 33.27025,-13.460591 49.91477,-20.166787 1.45445,-0.585991 2.90872,-1.172058 4.40723,-1.775845 6.91027,-2.784117 13.82129,-5.566312 20.7334,-8.345813 11.55841,-4.65129 23.10489,-9.328224 34.61193,-14.111889 1.87952,-0.779886 3.75912,-1.559697 5.69572,-2.363221 3.37144,-1.403223 6.73954,-2.815394 10.10284,-4.238872 6.0664,-2.526007 10.6842,-4.4443 17.3004,-4.4443 z"
       fill="#21748b"
       id="path2"
       style="stroke-width:2.01378" />
    <path
       d="m 800.13973,617.53715 c 7.0548,2.73933 13.55091,5.93328 20.13003,9.70927 2.94997,1.69015 2.94997,1.69015 5.95962,3.41422 3.15789,1.82395 3.15789,1.82395 6.37961,3.68475 2.20532,1.2686 4.41064,2.53703 6.68272,3.84399 16.88384,9.74369 33.63864,19.70461 50.34832,29.75779 12.28613,7.37211 24.65965,14.55392 37.11788,21.61679 55.3773,31.39465 108.82439,62.16569 130.76439,126.61692 9.5403,35.30923 3.9768,74.46496 -12.0593,106.83466 -22.4283,38.30063 -55.73299,63.31484 -92.05017,86.24666 -8.52966,5.3864 -16.94616,10.9136 -25.26215,16.6407 -12.68687,8.7276 -25.45261,17.3266 -38.24605,25.8898 -84.23496,56.0765 -84.23496,56.0765 -167.39255,113.7974 -2.17838,1.5482 -2.17838,1.5482 -4.40087,3.1277 -29.66625,21.1263 -59.26492,42.6031 -87.15993,66.1431 -1.88075,1.5731 -3.76149,3.1463 -5.69926,4.767 -3.71483,3.1074 -7.42659,6.2187 -11.13407,9.3354 -2.50552,2.0958 -2.50552,2.0958 -5.06168,4.2339 -1.81401,1.5232 -3.62802,3.0465 -5.49703,4.6159 -4.45526,3.5336 -4.45526,3.5336 -6.44568,3.5336 -1.21489,-30.7413 -2.12434,-61.4814 -2.68141,-92.2422 -0.26557,-14.2889 -0.62817,-28.5618 -1.2227,-42.8407 -4.0251,-98.6688 -4.0251,-98.6688 11.42144,-116.976 10.74535,-10.34765 23.91424,-15.81556 37.75574,-20.58508 9.22196,-3.41799 16.55626,-8.63315 24.46276,-14.45831 2.65784,-1.80414 5.32422,-3.59519 7.99923,-5.37247 2.65968,-1.78777 5.31927,-3.57563 7.97879,-5.36357 2.14337,-1.44026 2.14337,-1.44026 4.33,-2.90981 23.39756,-15.72792 46.69679,-31.60215 69.95833,-47.53992 19.27027,-13.19668 38.65712,-26.16009 58.31632,-38.74551 2.43311,-1.56172 2.43311,-1.56172 4.91536,-3.155 1.3957,-0.88835 2.79129,-1.77678 4.22929,-2.6919 3.71939,-2.40793 3.71939,-2.40793 7.41018,-6.44448 -1.4068,-0.81674 -2.81373,-1.63357 -4.26318,-2.47508 -28.5618,-16.59948 -56.99344,-33.38152 -85.21187,-50.58705 -18.01931,-10.97301 -36.14829,-21.73548 -54.33604,-32.41243 -5.81225,-3.41496 -11.6145,-6.84706 -17.41553,-10.282 -1.9471,-1.13639 -3.89427,-2.27304 -5.90042,-3.44401 -1.82717,-1.08527 -3.65436,-2.17063 -5.53691,-3.2888 -2.44947,-1.44135 -2.44947,-1.44135 -4.94838,-2.91174 -1.7418,-1.277 -1.7418,-1.277 -3.51879,-2.57959 0,-1.34465 0,-2.68938 0,-4.07474 4.58269,-3.42446 9.1866,-6.63368 13.93314,-9.80489 16.21757,-11.10873 31.26434,-23.3301 46.2431,-36.11061 4.80993,-4.07608 9.70768,-8.03759 14.59016,-12.02226 26.53804,-22.26926 52.83192,-47.24621 74.51756,-74.4914 z"
       fill="#268793"
       id="path4"
       style="stroke-width:2.01378" />
    <path
       d="m 1025.0607,1031.1236 c 12.7147,5.7233 16.7995,20.0736 21.8951,32.5979 19.0629,50.9023 19.0873,102.7665 -2.144,152.8944 -20.2549,43.922 -55.33,71.7408 -94.14418,97.4477 -3.08952,2.06 -6.17821,4.1212 -9.26623,6.1837 -6.25888,4.1784 -12.52211,8.3504 -18.78873,12.5168 -8.28062,5.5079 -16.5449,11.0408 -24.80083,16.5874 -1.22902,0.8257 -2.45781,1.6511 -3.72392,2.5018 -2.42377,1.6284 -4.84747,3.2568 -7.27104,4.8855 -19.89686,13.3639 -39.82536,26.6784 -59.76284,39.9787 -20.74878,13.8418 -41.47456,27.7195 -62.20123,41.5959 -6.35033,4.2507 -12.70201,8.4995 -19.05403,12.7475 -21.88504,14.6375 -43.75965,29.2909 -65.61756,43.9707 -3.94113,2.6461 -7.88347,5.2902 -11.82596,7.9341 -13.63591,9.1498 -27.24955,18.3324 -40.82701,27.5727 -6.97483,4.7454 -13.95623,9.4806 -20.93799,14.2153 -3.40317,2.3122 -6.80304,4.6293 -10.19957,6.9517 -4.74015,3.2406 -9.49098,6.4639 -14.24444,9.6841 -1.4214,0.9782 -2.84279,1.9564 -4.30728,2.9643 -9.90256,6.6733 -9.90256,6.6733 -16.55361,6.6733 -0.87335,-40.1076 -1.42004,-78.9207 7.96185,-118.1675 0.35133,-1.534 0.70265,-3.0682 1.06518,-4.6488 17.6765,-75.1705 65.38529,-143.7144 124.33331,-190.939 1.25341,-1.0094 2.50681,-2.0189 3.7982,-3.059 19.39319,-15.5704 39.19501,-30.1188 59.89621,-43.8004 2.54566,-1.697 5.09074,-3.3949 7.63528,-5.0936 18.93352,-12.611 37.97587,-25.0499 57.01465,-37.4934 31.77422,-20.7807 63.34983,-41.8657 94.8351,-63.1018 1.8897,-1.2738 3.77932,-2.548 5.72622,-3.8606 34.03216,-22.9539 67.86,-46.2021 101.50935,-69.7394 z"
       fill="#0e3e63"
       id="path5"
       style="stroke-width:2.01378" />
    <path
       d="m 597.11356,1022.9741 c 0.65374,30.8513 1.14356,61.702 1.44381,92.5588 0.14294,14.3309 0.33779,28.6572 0.65827,42.9851 0.30918,13.8447 0.46943,27.6847 0.54164,41.5328 0.0526,5.2655 0.1512,10.531 0.30242,15.7945 1.25536,45.5619 1.25536,45.5619 -12.62067,60.9903 -4.72052,4.5065 -9.60774,8.5821 -14.8238,12.4709 -4.91415,3.7944 -9.06893,8.2471 -13.32038,12.7877 -1.8372,1.8331 -3.67431,3.6663 -5.56709,5.5549 -13.05934,13.0701 -24.96376,26.5613 -36.23241,41.3045 -2.10577,2.6858 -4.21295,5.3704 -6.32126,8.054 -24.47567,31.3981 -46.67189,64.4185 -65.1611,99.882 -2.28111,4.3418 -4.62647,8.643 -6.97725,12.9455 -16.58492,30.7838 -30.54416,63.4865 -39.78621,97.3915 -1.18132,3.8007 -1.18132,3.8007 -3.17183,5.838 -5.75522,0.194 -11.46282,0.2557 -17.21865,0.231 -2.70872,4e-4 -2.70872,4e-4 -5.47214,0 -5.99895,0 -11.99784,-0.015 -17.99681,-0.031 -4.14741,0 -8.29482,-0.012 -12.44223,-0.012 -10.9393,-0.012 -21.87854,-0.031 -32.81776,-0.054 -11.15333,-0.024 -22.30673,-0.031 -33.46006,-0.039 -21.90147,-0.023 -43.80294,-0.054 -65.70441,-0.099 0.59583,-4.8252 1.20098,-9.6491 1.81071,-14.4726 0.1655,-1.3492 0.33176,-2.6985 0.50252,-4.0887 1.63122,-12.8055 4.49769,-25.0471 7.88807,-37.4664 0.61162,-2.2649 1.22263,-4.5298 1.85247,-6.8631 37.57316,-136.5463 116.61316,-256.925 214.15004,-356.3488 3.09833,-3.1604 6.18576,-6.3316 9.27242,-9.5038 10.73385,-10.9958 21.62538,-21.6712 33.23505,-31.7034 2.07906,-1.8352 4.15765,-3.671 6.23572,-5.5074 15.5262,-13.527 31.34054,-26.5977 47.5065,-39.315 1.27077,-1.0011 2.54148,-2.0024 3.85071,-3.034 53.21771,-41.7881 53.21771,-41.7881 59.84378,-41.7881 z"
       fill="#6bb0e9"
       id="path7"
       style="stroke-width:2.01378" />
    <path
       d="m 605.07534,193.76375 c 8.1874,85.00128 -6.45682,174.84896 -57.72314,244.48466 -5.71912,7.05763 -11.72041,13.75205 -17.91407,20.3737 -1.19563,1.35255 -2.39133,2.70511 -3.62321,4.09864 -7.73233,8.44569 -16.26217,15.48793 -25.37829,22.29969 -1.29568,0.96939 -2.59135,1.93879 -3.92631,2.93751 -16.6809,12.35729 -33.93235,23.82897 -51.16874,35.35072 -3.61909,2.4282 -7.23765,4.85713 -10.85566,7.28706 -7.32858,4.92005 -14.65986,9.83607 -21.99362,14.74808 -13.59498,9.1066 -27.17207,18.24111 -40.74825,27.37725 -4.17728,2.81057 -8.35545,5.61987 -12.53379,8.42895 -16.28144,10.94673 -32.55249,21.90945 -48.81512,32.88535 -1.88427,1.27172 -3.76856,2.54342 -5.70985,3.85372 -7.62912,5.1493 -15.25809,10.29882 -22.8866,15.44919 -35.82506,24.18571 -35.82506,24.18571 -53.362,35.89714 -1.20887,0.80743 -2.41773,1.61486 -3.66324,2.44688 -5.33897,3.56438 -10.68111,7.12364 -16.02798,10.67568 -10.69285,7.12423 -21.14565,14.47074 -31.42201,22.2142 -4.17623,2.6093 -4.17623,2.6093 -10.14759,2.6093 -24.70174,-48.91109 -38.02312,-100.09613 -22.52482,-154.87212 21.51464,-68.88757 74.22079,-105.87383 131.85093,-142.42548 1.93754,-1.22896 3.87508,-2.45786 5.87131,-3.7241 1.99396,-1.26439 3.98793,-2.52878 6.0423,-3.83151 17.84275,-11.38966 35.33726,-23.27364 52.80041,-35.26054 25.61684,-17.58256 51.42618,-34.78435 77.46634,-51.70531 7.67171,-5.00251 15.30089,-10.07107 22.92708,-15.14595 9.6935,-6.4477 19.43551,-12.80453 29.23629,-19.07998 17.10986,-10.96593 33.9787,-22.27297 50.75506,-33.76437 17.72389,-12.1346 35.45215,-24.26119 53.26932,-36.25218 2.29541,-1.54684 4.58871,-3.09698 6.87968,-4.65067 3.16912,-2.14831 6.34669,-4.28368 9.52461,-6.41829 1.80521,-1.21765 3.61042,-2.43522 5.47033,-3.68975 4.34971,-2.59747 4.34971,-2.59747 8.33063,-2.59747 z"
       fill="#6ab0e8"
       id="path8"
       style="stroke-width:2.01378" />
    <path
       d="m 374.18285,876.28339 c 5.53111,2.58395 5.53111,2.58395 11.24293,5.88132 3.21035,1.83797 3.21035,1.83797 6.48548,3.71312 2.27817,1.33005 4.55628,2.66009 6.90345,4.03042 2.40674,1.38847 4.8141,2.77576 7.2222,4.16179 17.39356,10.04017 34.65245,20.31781 51.86448,30.67997 14.44244,8.67941 29.02595,17.07173 43.67038,25.38809 18.96903,10.78229 37.5148,22.06487 55.73272,34.12599 -5.75011,4.64647 -11.7982,8.5686 -18.06423,12.44357 -35.92902,22.29874 -69.04084,48.85194 -99.80008,78.08414 -4.6012,4.3398 -9.25823,8.569 -14.00319,12.7415 -14.45825,12.0806 -14.45825,12.0806 -25.37828,27.1225 -11.12317,-3.1667 -20.24673,-8.6875 -30.10558,-14.6435 -15.99955,-9.5207 -32.16535,-18.6679 -48.50148,-27.5647 -3.61561,-1.973 -7.22513,-3.9569 -10.833,-5.9447 -10.01397,-5.5093 -20.02847,-10.977 -30.24361,-16.0879 -14.736,-7.5243 -25.71869,-14.4417 -31.98721,-30.9107 -5.18348,-21.84391 -2.87822,-39.3988 7.88407,-58.98036 20.65085,-32.86932 53.71626,-53.4063 85.64871,-73.27871 2.93606,-1.87843 5.82442,-3.83719 8.65961,-5.8715 1.35128,-0.95231 2.70247,-1.9047 4.09467,-2.88588 1.17434,-0.86451 2.34868,-1.7291 3.5586,-2.61988 5.9396,-2.40457 9.83296,-1.21337 15.94936,0.41508 z"
       fill="#0e3d62"
       id="path15"
       style="stroke-width:2.01378" />
    <path
       d="m 800.13973,617.53715 c 7.0548,2.73933 13.55091,5.93328 20.13003,9.70927 1.96878,1.12792 3.93743,2.25583 5.96602,3.41774 2.10308,1.21479 4.20628,2.42967 6.37321,3.68123 3.27976,1.88724 3.27976,1.88724 6.62594,3.81276 21.04559,12.14893 41.94764,24.55094 62.74929,37.13267 4.06546,2.42741 8.1582,4.80738 12.26728,7.15664 2.17235,1.25239 4.34456,2.50496 6.5827,3.7953 1.99281,1.13202 3.98569,2.26414 6.03883,3.43058 4.63655,3.24649 4.63655,3.24649 6.627,9.35865 1.97052,0.6722 3.94111,1.34465 5.97122,2.03741 3.12571,4.44081 3.12571,4.44081 6.22027,9.93214 1.03139,1.80171 2.06285,3.60333 3.12563,5.4596 6.01478,11.53901 6.05877,22.76149 3.29669,35.27984 -12.27467,41.28951 -41.12155,62.15596 -75.04824,84.40079 -4.91144,3.23299 -9.78269,6.52053 -14.64654,9.82772 -2.80273,1.87272 -5.60682,3.74309 -8.4127,5.61077 -1.25621,0.86124 -2.51232,1.72238 -3.80646,2.60981 -7.89046,5.147 -12.92859,6.63191 -22.19385,5.79435 -5.25369,-2.28814 -5.25369,-2.28814 -10.59759,-5.53917 -2.01937,-1.21068 -4.03865,-2.42144 -6.11918,-3.66889 -2.16043,-1.33147 -4.32074,-2.66311 -6.5467,-4.03495 -2.29745,-1.38981 -4.59633,-2.7771 -6.89658,-4.16221 -6.01909,-3.6328 -12.01977,-7.29656 -18.01596,-10.96881 -5.69491,-3.48245 -11.40405,-6.9404 -17.11242,-10.39977 -6.67182,-4.04419 -13.34229,-8.09047 -20.00649,-12.14759 -18.08755,-11.00288 -36.28288,-21.80087 -54.53436,-32.51542 -5.81255,-3.41505 -11.61516,-6.84722 -17.4165,-10.28242 -1.9471,-1.13639 -3.89427,-2.27304 -5.90042,-3.44401 -1.82717,-1.08527 -3.65436,-2.17063 -5.53691,-3.2888 -2.44947,-1.44135 -2.44947,-1.44135 -4.94838,-2.91174 -1.7418,-1.277 -1.7418,-1.277 -3.51879,-2.57959 0,-1.34465 0,-2.68938 0,-4.07474 4.58269,-3.42446 9.1866,-6.63368 13.93314,-9.80489 16.21757,-11.10873 31.26434,-23.3301 46.2431,-36.11061 4.80993,-4.07608 9.70768,-8.03759 14.59016,-12.02226 26.53804,-22.26926 52.83192,-47.24621 74.51756,-74.4914 z"
       fill="#0d3d62"
       id="path16"
       style="stroke-width:2.01378" />
  </g>
</svg>
